<?xml version="1.0" encoding="utf-8"?>
<!-- Generator: Adobe Illustrator 21.0.0, SVG Export Plug-In . SVG Version: 6.00 Build 0)  -->
<svg version="1.1" id="Layer_1" xmlns="http://www.w3.org/2000/svg" xmlns:xlink="http://www.w3.org/1999/xlink" x="0px" y="0px"
	 viewBox="0 0 46.5 23.4" style="enable-background:new 0 0 46.5 23.4;" xml:space="preserve">
<style type="text/css">
	.st0{fill:#F3CA31;}
</style>
<g>
	<path class="st0" d="M8,10.8c0.8-1,1.2-2.6,1.2-4.6c0-2-0.4-3.6-1.2-4.6C7.1,0.6,5.7,0,4,0H0.7C0.5,0,0.3,0.1,0.2,0.2
		C0.1,0.4,0,0.5,0,0.7v22c0,0.4,0.2,0.7,0.7,0.7H4c1.8,0,3.1-0.5,4-1.6c0.8-1,1.2-2.6,1.2-4.6c0-2-0.4-3.6-1.2-4.6
		c-0.3-0.4-0.7-0.7-1.1-0.9c0.2-0.1,0.3-0.2,0.5-0.3C7.6,11.2,7.8,11,8,10.8z M7.8,17.2c0,1.7-0.3,3-0.9,3.7c-0.6,0.7-1.6,1.1-3,1.1
		H1.4v-9.7H4c1.4,0,2.3,0.4,2.9,1.1C7.5,14.2,7.8,15.5,7.8,17.2z M6.9,9.9C6.3,10.7,5.3,11,4,11H1.4V1.4H4c1.4,0,2.4,0.4,3,1.1
		c0.6,0.7,0.9,2,0.9,3.7C7.8,7.9,7.5,9.2,6.9,9.9z"/>
	<path class="st0" d="M19.3,12.2c-0.1-0.1-0.3-0.2-0.4-0.2c0.5-0.2,0.9-0.6,1.2-0.9c0.9-1,1.3-2.6,1.3-4.7c0-2.1-0.5-3.7-1.3-4.7
		c-0.9-1-2.3-1.5-4.2-1.5h-3.6c-0.2,0-0.3,0.1-0.5,0.2c-0.1,0.1-0.2,0.3-0.2,0.5v22c0,0.2,0.1,0.4,0.2,0.5c0.1,0.1,0.3,0.2,0.5,0.2
		c0.4,0,0.7-0.2,0.7-0.7V12.6h2.9c1.3,0,2.4,0.4,3.1,1.1c0.7,0.7,1.1,1.8,1.1,3.2v5.9c0,0.2,0.1,0.4,0.2,0.5
		c0.1,0.1,0.3,0.2,0.5,0.2c0.4,0,0.7-0.2,0.7-0.7v-5.9c0-1.8-0.5-3.2-1.5-4.2C19.7,12.5,19.5,12.3,19.3,12.2z M13,11.2V1.4h2.9
		c1.5,0,2.5,0.4,3.1,1.1c0.6,0.8,1,2,1,3.8c0,1.8-0.3,3.1-1,3.8c-0.7,0.8-1.7,1.1-3.1,1.1H13z"/>
	<path class="st0" d="M26,2.5c0.6-0.8,1.5-1.1,2.7-1.1c1.2,0,2.2,0.4,2.7,1.1c0.6,0.8,1,2.1,1,3.7c0,0.4,0.2,0.7,0.7,0.7
		c0.4,0,0.7-0.2,0.7-0.7c0-1.3-0.2-2.3-0.5-3.1c-0.3-0.8-0.7-1.5-1.2-1.9c-0.5-0.5-1.1-0.8-1.7-0.9c-1.2-0.3-2.3-0.3-3.5,0
		c-0.6,0.2-1.2,0.5-1.7,0.9c-0.5,0.5-0.9,1.1-1.2,1.9C23.8,4,23.6,5,23.6,6.3v10.9c0,1.3,0.2,2.4,0.5,3.2c0.3,0.8,0.7,1.5,1.2,1.9
		c0.5,0.5,1.1,0.8,1.7,1c0.6,0.2,1.2,0.2,1.7,0.2c0.6,0,1.2-0.1,1.8-0.2c0.6-0.2,1.2-0.5,1.7-1c0.5-0.5,0.9-1.1,1.2-1.9
		c0.3-0.8,0.5-1.9,0.5-3.2c0-0.4-0.2-0.7-0.7-0.7c-0.4,0-0.7,0.2-0.7,0.7c0,1.7-0.3,2.9-1,3.8c-0.6,0.8-1.5,1.1-2.7,1.1
		c-1.2,0-2.1-0.4-2.7-1.1c-0.6-0.8-1-2.1-1-3.8V6.3C25,4.6,25.3,3.3,26,2.5z"/>
	<path class="st0" d="M46.4,22.4l-6.5-11.6l6.5-9.7c0.1-0.2,0.2-0.3,0.1-0.5c0-0.2-0.1-0.3-0.3-0.5C46,0,45.9,0,45.7,0
		c-0.2,0-0.3,0.1-0.5,0.3l-8.4,12.5V0.7c0-0.2-0.1-0.3-0.2-0.5C36.5,0.1,36.4,0,36.2,0c-0.2,0-0.4,0.1-0.5,0.2
		c-0.1,0.1-0.2,0.3-0.2,0.5v22c0,0.4,0.2,0.7,0.7,0.7c0.2,0,0.3-0.1,0.5-0.2c0.1-0.1,0.2-0.3,0.2-0.5v-7.4l2.2-3.3l6.2,11
		c0.1,0.2,0.4,0.3,0.6,0.3c0,0,0.1,0,0.3-0.1l0,0c0.1-0.1,0.2-0.2,0.3-0.4C46.5,22.7,46.5,22.6,46.4,22.4z"/>
</g>
</svg>
