<?xml version="1.0" encoding="utf-8"?>
<!-- Generator: Adobe Illustrator 16.0.0, SVG Export Plug-In . SVG Version: 6.00 Build 0)  -->
<!DOCTYPE svg PUBLIC "-//W3C//DTD SVG 1.1//EN" "http://www.w3.org/Graphics/SVG/1.1/DTD/svg11.dtd">
<svg version="1.1" id="Capa_1" xmlns="http://www.w3.org/2000/svg" xmlns:xlink="http://www.w3.org/1999/xlink" x="0px" y="0px"
	 width="35.926px" height="25px" viewBox="0 0 35.926 25" enable-background="new 0 0 35.926 25" xml:space="preserve">
<g id="SvMXO0.tif_2_">
	<g>
		<path fill="#FFFFFF" d="M17.936,0.638c2.803,0,5.609,0.067,8.41-0.024c1.748-0.058,3.521,1.187,3.505,3.519
			c-0.032,5.236-0.01,10.472-0.011,15.708c0,0.571,0.005,1.147-0.045,1.716c-0.132,1.501-1.418,2.762-2.926,2.805
			c-1.673,0.047-3.346,0.014-5.018,0.028c-0.27,0.001-0.34-0.093-0.34-0.351c0.012-2.602,0.018-5.205,0.01-7.807
			c0-0.311,0.125-0.354,0.388-0.348c0.789,0.012,1.58-0.004,2.368,0.007c0.426,0.006,0.671-0.159,0.721-0.603
			c0.094-0.846,0.213-1.689,0.303-2.535c0.045-0.41-0.189-0.635-0.659-0.64c-0.899-0.009-1.798-0.02-2.695,0.006
			c-0.354,0.01-0.451-0.099-0.437-0.444c0.026-0.68-0.004-1.363,0.011-2.044c0.022-1.019,0.495-1.501,1.517-1.543
			c0.495-0.021,0.99-0.002,1.486-0.013c0.48-0.012,0.646-0.172,0.651-0.645c0.007-0.696,0-1.394,0.002-2.091
			c0.002-0.347-0.145-0.591-0.509-0.583c-1.065,0.019-2.138-0.102-3.199,0.072c-2.077,0.34-3.406,1.803-3.592,3.907
			c-0.087,0.976-0.055,1.952-0.042,2.926c0.005,0.378-0.115,0.476-0.471,0.456c-0.525-0.029-1.054-0.016-1.58-0.005
			c-0.487,0.01-0.672,0.195-0.675,0.685c-0.002,0.805,0.003,1.611,0.016,2.416c0.008,0.5,0.18,0.666,0.678,0.672
			c0.573,0.008,1.146,0.014,1.72-0.004c0.269-0.008,0.343,0.09,0.342,0.35c-0.02,2.602-0.03,5.203-0.035,7.805
			c0,0.252-0.062,0.354-0.335,0.353c-2.787-0.013-5.576,0.016-8.363-0.024c-1.735-0.025-3.055-1.431-3.055-3.16
			c-0.003-5.793-0.002-11.587,0-17.38c0-1.801,1.375-3.184,3.169-3.186C12.142,0.636,15.039,0.638,17.936,0.638z"/>
	</g>
</g>
</svg>
