<?xml version="1.0" encoding="utf-8"?>
<!-- Generator: Adobe Illustrator 21.0.0, SVG Export Plug-In . SVG Version: 6.00 Build 0)  -->
<svg version="1.1" id="Capa_1" xmlns="http://www.w3.org/2000/svg" xmlns:xlink="http://www.w3.org/1999/xlink" x="0px" y="0px"
	 viewBox="0 0 890 1720" style="enable-background:new 0 0 890 1720;" xml:space="preserve">
<style type="text/css">
	.st0{fill:url(#SVGID_1_);}
	.st1{fill:url(#SVGID_2_);}
	.st2{fill:url(#SVGID_3_);}
	.st3{fill:url(#SVGID_4_);}
	.st4{fill:url(#SVGID_5_);}
	.st5{fill:url(#SVGID_6_);}
	.st6{fill:url(#SVGID_7_);}
	.st7{opacity:0.4;fill:url(#SVGID_8_);}
	.st8{opacity:0.4;fill:url(#SVGID_9_);}
	.st9{opacity:0.4;fill:url(#SVGID_10_);}
	.st10{opacity:0.4;fill:url(#SVGID_11_);}
	.st11{opacity:0.4;fill:url(#SVGID_12_);}
	.st12{opacity:0.4;fill:url(#SVGID_13_);}
	.st13{fill:#43B2DB;}
	.st14{opacity:0.39;fill:url(#SVGID_14_);}
	.st15{fill:#FFFFFF;stroke:#58595B;stroke-width:7;stroke-linecap:round;stroke-linejoin:round;stroke-miterlimit:10;}
	.st16{fill:#FFFFFF;stroke:#58595B;stroke-width:5;stroke-linecap:round;stroke-linejoin:round;stroke-miterlimit:10;}
	.st17{fill:#FFFFFF;stroke:#58595B;stroke-width:13;stroke-linecap:round;stroke-linejoin:round;stroke-miterlimit:10;}
	.st18{opacity:0.4;}
	.st19{fill:#58595B;}
	.st20{opacity:0.39;fill:url(#SVGID_15_);}
	.st21{fill:none;stroke:#58595B;stroke-width:7;stroke-linecap:round;stroke-linejoin:round;stroke-miterlimit:10;}
	.st22{fill:none;stroke:#FFFFFF;stroke-width:5;stroke-linecap:round;stroke-linejoin:round;stroke-miterlimit:10;}
	.st23{opacity:0.39;fill:url(#SVGID_16_);}
	.st24{opacity:0.39;fill:url(#SVGID_17_);}
	.st25{opacity:0.39;fill:url(#SVGID_18_);}
	.st26{fill:none;stroke:#58595B;stroke-width:4;stroke-linecap:round;stroke-linejoin:round;stroke-miterlimit:10;}
	.st27{opacity:0.39;fill:url(#SVGID_19_);}
	.st28{fill:none;stroke:#FFFFFF;stroke-width:7;stroke-linecap:round;stroke-linejoin:round;stroke-miterlimit:10;}
	.st29{fill:none;}
	.st30{font-family:'MyriadPro-Bold';}
	.st31{font-size:21px;}
	.st32{font-family:'MyriadPro-Regular';}
	.st33{letter-spacing:3;}
	.st34{letter-spacing:2;}
	.st35{letter-spacing:1;}
	.st36{letter-spacing:5;}
	.st37{letter-spacing:4;}
	.st38{letter-spacing:15;}
	.st39{fill:url(#SVGID_20_);}
	.st40{fill:url(#SVGID_21_);}
	.st41{fill:url(#SVGID_22_);}
	.st42{fill:url(#SVGID_23_);}
	.st43{fill:url(#SVGID_24_);}
	.st44{fill:url(#SVGID_25_);}
	.st45{fill:url(#SVGID_26_);}
	.st46{opacity:0.4;fill:url(#SVGID_27_);}
	.st47{opacity:0.4;fill:url(#SVGID_28_);}
	.st48{opacity:0.4;fill:url(#SVGID_29_);}
	.st49{opacity:0.4;fill:url(#SVGID_30_);}
	.st50{opacity:0.4;fill:url(#SVGID_31_);}
	.st51{opacity:0.39;fill:url(#SVGID_32_);}
	.st52{opacity:0.4;fill:url(#SVGID_33_);}
	.st53{opacity:0.39;fill:url(#SVGID_34_);}
	.st54{opacity:0.39;fill:url(#SVGID_35_);}
	.st55{opacity:0.39;fill:url(#SVGID_36_);}
	.st56{opacity:0.39;fill:url(#SVGID_37_);}
	.st57{opacity:0.39;fill:url(#SVGID_38_);}
</style>
<g>
	
		<linearGradient id="SVGID_1_" gradientUnits="userSpaceOnUse" x1="1216.0955" y1="1284.4999" x2="1216.0955" y2="1017.6903" gradientTransform="matrix(0 1 -1 0 1394.9745 -377.0854)">
		<stop  offset="0" style="stop-color:#43B2DB"/>
		<stop  offset="0.5196" style="stop-color:#4397DB"/>
		<stop  offset="1" style="stop-color:#43B2DB"/>
	</linearGradient>
	<path class="st0" d="M246.1,1603.4c-74.8,0-135.7-60.9-135.7-135.7c0-72.4,57-131.7,128.4-135.5c0.9-0.2,1.8-0.4,2.7-0.4
		c63.8,0,115.7-51.9,115.7-115.7s-51.9-115.7-115.7-115.7c-1,0-1.9-0.1-2.7-0.4c-71.4-3.8-128.4-63.1-128.4-135.5
		c0-72.4,57-131.7,128.4-135.5c0.9-0.2,1.8-0.4,2.7-0.4c63.8,0,115.7-51.9,115.7-115.7c0-63.8-51.9-115.7-115.7-115.7
		c-1,0-1.9-0.1-2.7-0.4c-71.4-3.8-128.4-63.1-128.4-135.5c0-72.4,57-131.7,128.4-135.5c0.9-0.2,1.8-0.4,2.7-0.4
		c63.8,0,115.7-51.9,115.7-115.7c0-63.8-51.9-115.7-115.7-115.7c-5.5,0-10-4.5-10-10c0-5.5,4.5-10,10-10
		c74.8,0,135.7,60.9,135.7,135.7c0,72.4-57,131.7-128.4,135.5c-0.9,0.2-1.8,0.4-2.7,0.4c-63.8,0-115.7,51.9-115.7,115.7
		s51.9,115.7,115.7,115.7c1,0,1.9,0.1,2.7,0.4c71.4,3.8,128.4,63.1,128.4,135.5c0,72.4-57,131.7-128.4,135.5
		c-0.9,0.2-1.8,0.4-2.7,0.4c-63.8,0-115.7,51.9-115.7,115.7c0,63.8,51.9,115.7,115.7,115.7c1,0,1.9,0.1,2.7,0.4
		c71.4,3.8,128.4,63.1,128.4,135.5c0,72.4-57,131.7-128.4,135.5c-0.9,0.2-1.8,0.4-2.7,0.4c-63.8,0-115.7,51.9-115.7,115.7
		s51.9,115.7,115.7,115.7c5.5,0,10,4.5,10,10S251.7,1603.4,246.1,1603.4z"/>
</g>
<g>
	
		<linearGradient id="SVGID_2_" gradientUnits="userSpaceOnUse" x1="-4258.3945" y1="1165.3456" x2="-4258.3945" y2="1019.6903" gradientTransform="matrix(0 -1 -1 0 1394.9745 -2770.895)">
		<stop  offset="0" style="stop-color:#43B2DB"/>
		<stop  offset="0.5196" style="stop-color:#4397DB"/>
		<stop  offset="1" style="stop-color:#43B2DB"/>
	</linearGradient>
	<path class="st1" d="M239.6,1603.4c-5.5,0-10-4.5-10-10s4.5-10,10-10c63.8,0,115.7-51.9,115.7-115.7c0-29.6-11.2-57.8-31.5-79.3
		c-3.8-4-3.6-10.3,0.4-14.1c4-3.8,10.3-3.6,14.1,0.4c23.8,25.3,36.9,58.3,36.9,93C375.3,1542.6,314.4,1603.4,239.6,1603.4z"/>
</g>
<g>
	
		<linearGradient id="SVGID_3_" gradientUnits="userSpaceOnUse" x1="-3985.8362" y1="1286.4999" x2="-3985.8362" y2="1217.1813" gradientTransform="matrix(0 -1 -1 0 1394.9745 -2770.895)">
		<stop  offset="0" style="stop-color:#43B2DB"/>
		<stop  offset="0.5196" style="stop-color:#4397DB"/>
		<stop  offset="1" style="stop-color:#43B2DB"/>
	</linearGradient>
	<path class="st2" d="M164.5,1323.4c-2.2,0-4.5-0.7-6.3-2.3c-31.6-25.9-49.6-64.1-49.6-104.9c0-42.6,19.4-81.8,53.2-107.8
		c4.4-3.4,10.7-2.5,14,1.9c3.4,4.4,2.5,10.7-1.9,14c-28.9,22.1-45.4,55.6-45.4,91.9c0,34.8,15.4,67.4,42.3,89.5
		c4.3,3.5,4.9,9.8,1.4,14.1C170.2,1322.2,167.4,1323.4,164.5,1323.4z"/>
</g>
<g>
	
		<linearGradient id="SVGID_4_" gradientUnits="userSpaceOnUse" x1="-3735.0642" y1="1067.683" x2="-3735.0642" y2="1019.6903" gradientTransform="matrix(0 -1 -1 0 1394.9745 -2770.895)">
		<stop  offset="0" style="stop-color:#43B2DB"/>
		<stop  offset="0.5196" style="stop-color:#4397DB"/>
		<stop  offset="1" style="stop-color:#43B2DB"/>
	</linearGradient>
	<path class="st3" d="M338.2,1052.6c-2.2,0-4.4-0.7-6.2-2.2c-4.3-3.4-5.1-9.7-1.6-14c16.3-20.6,24.9-45.4,24.9-71.7
		c0-26.4-9.1-52.3-25.8-72.8c-3.5-4.3-2.8-10.6,1.5-14.1c4.3-3.5,10.6-2.8,14.1,1.5c19.5,24,30.2,54.4,30.2,85.4
		c0,30.9-10.1,59.9-29.2,84.1C344.1,1051.3,341.2,1052.6,338.2,1052.6z"/>
</g>
<g>
	
		<linearGradient id="SVGID_5_" gradientUnits="userSpaceOnUse" x1="-3485.2825" y1="1286.4999" x2="-3485.2825" y2="1217.1763" gradientTransform="matrix(0 -1 -1 0 1394.9745 -2770.895)">
		<stop  offset="0" style="stop-color:#43B2DB"/>
		<stop  offset="0.5196" style="stop-color:#4397DB"/>
		<stop  offset="1" style="stop-color:#43B2DB"/>
	</linearGradient>
	<path class="st4" d="M167.8,823.1c-2.1,0-4.3-0.7-6.1-2.1c-33.8-25.9-53.2-65.2-53.2-107.8c0-41,18.3-79.4,50.2-105.3
		c4.3-3.5,10.6-2.8,14.1,1.5c3.5,4.3,2.8,10.6-1.5,14.1c-27.2,22.1-42.8,54.8-42.8,89.8c0,36.3,16.5,69.8,45.4,91.9
		c4.4,3.4,5.2,9.6,1.9,14C173.8,821.7,170.8,823.1,167.8,823.1z"/>
</g>
<g>
	
		<linearGradient id="SVGID_6_" gradientUnits="userSpaceOnUse" x1="-3233.1572" y1="1082.1395" x2="-3233.1572" y2="1019.6903" gradientTransform="matrix(0 -1 -1 0 1394.9745 -2770.895)">
		<stop  offset="0" style="stop-color:#43B2DB"/>
		<stop  offset="0.5196" style="stop-color:#4397DB"/>
		<stop  offset="1" style="stop-color:#43B2DB"/>
	</linearGradient>
	<path class="st5" d="M322.8,565.9c-2.8,0-5.5-1.1-7.5-3.4c-3.7-4.1-3.3-10.5,0.9-14.1c24.8-22,39.1-53.5,39.1-86.7
		c0-32.6-13.9-63.8-38-85.7c-4.1-3.7-4.4-10-0.7-14.1c3.7-4.1,10-4.4,14.1-0.7c28.4,25.7,44.6,62.3,44.6,100.6
		c0,38.8-16.7,75.9-45.8,101.7C327.6,565.1,325.2,565.9,322.8,565.9z"/>
</g>
<g>
	
		<linearGradient id="SVGID_7_" gradientUnits="userSpaceOnUse" x1="-2961.6167" y1="1286.4999" x2="-2961.6167" y2="1140.8456" gradientTransform="matrix(0 -1 -1 0 1394.9745 -2770.895)">
		<stop  offset="0" style="stop-color:#43B2DB"/>
		<stop  offset="0.5196" style="stop-color:#4397DB"/>
		<stop  offset="1" style="stop-color:#43B2DB"/>
	</linearGradient>
	<path class="st6" d="M153.1,306.8c-2.6,0-5.3-1-7.2-3.1c-24.1-25.3-37.3-58.5-37.3-93.5c0-74.8,60.9-135.7,135.7-135.7
		c5.5,0,10,4.5,10,10c0,5.5-4.5,10-10,10c-63.8,0-115.7,51.9-115.7,115.7c0,29.8,11.3,58.1,31.8,79.7c3.8,4,3.6,10.3-0.4,14.1
		C158,305.9,155.5,306.8,153.1,306.8z"/>
</g>
<linearGradient id="SVGID_8_" gradientUnits="userSpaceOnUse" x1="992.1494" y1="1186.5953" x2="1096.2141" y2="1368.7085" gradientTransform="matrix(1 0 0 1 -755.3107 -734.3261)">
	<stop  offset="0" style="stop-color:#58595B"/>
	<stop  offset="1" style="stop-color:#58595B;stop-opacity:0"/>
</linearGradient>
<polygon class="st7" points="156.4,497.1 316.1,401 438.1,623.9 280.1,717.9 "/>
<linearGradient id="SVGID_9_" gradientUnits="userSpaceOnUse" x1="1242.1493" y1="1197.5953" x2="1346.2141" y2="1379.7085" gradientTransform="matrix(1 0 0 1 -1004.3107 -485.3261)">
	<stop  offset="0" style="stop-color:#58595B"/>
	<stop  offset="1" style="stop-color:#58595B;stop-opacity:0"/>
</linearGradient>
<polygon class="st8" points="159.4,757.1 317.1,661 439.1,883.9 281.1,977.9 "/>
<linearGradient id="SVGID_10_" gradientUnits="userSpaceOnUse" x1="1495.1493" y1="1194.5953" x2="1599.2141" y2="1376.7085" gradientTransform="matrix(1 0 0 1 -1255.8107 -233.8261)">
	<stop  offset="0" style="stop-color:#58595B"/>
	<stop  offset="1" style="stop-color:#58595B;stop-opacity:0"/>
</linearGradient>
<polygon class="st9" points="159.9,1005.6 318.6,909.5 440.6,1132.4 282.6,1226.4 "/>
<linearGradient id="SVGID_11_" gradientUnits="userSpaceOnUse" x1="1747.1493" y1="1194.5953" x2="1851.2141" y2="1376.7085" gradientTransform="matrix(1 0 0 1 -1507.8107 18.1739)">
	<stop  offset="0" style="stop-color:#58595B"/>
	<stop  offset="1" style="stop-color:#58595B;stop-opacity:0"/>
</linearGradient>
<polygon class="st10" points="159.9,1257.6 318.6,1161.5 440.6,1384.4 282.6,1478.4 "/>
<linearGradient id="SVGID_12_" gradientUnits="userSpaceOnUse" x1="1995.1493" y1="1190.5953" x2="2099.2141" y2="1372.7085" gradientTransform="matrix(1 0 0 1 -1758.8107 269.1739)">
	<stop  offset="0" style="stop-color:#58595B"/>
	<stop  offset="1" style="stop-color:#58595B;stop-opacity:0"/>
</linearGradient>
<polygon class="st11" points="156.9,1504.6 315.6,1408.5 437.6,1631.4 279.6,1725.4 "/>
<linearGradient id="SVGID_13_" gradientUnits="userSpaceOnUse" x1="741.1494" y1="1193.5953" x2="845.2141" y2="1375.7085" gradientTransform="matrix(1 0 0 1 -502.3107 -987.3261)">
	<stop  offset="0" style="stop-color:#58595B"/>
	<stop  offset="1" style="stop-color:#58595B;stop-opacity:0"/>
</linearGradient>
<polygon class="st12" points="158.4,251.1 318.1,155 440.1,377.9 282.1,471.9 "/>
<circle class="st13" cx="243.6" cy="462.3" r="93.7"/>
<linearGradient id="SVGID_14_" gradientUnits="userSpaceOnUse" x1="752" y1="1151.3452" x2="860.9561" y2="1151.3452" gradientTransform="matrix(1 0 0 1 -595.7161 -689.0854)">
	<stop  offset="0" style="stop-color:#FFFFFF"/>
	<stop  offset="1" style="stop-color:#FFFFFF;stop-opacity:0"/>
</linearGradient>
<path class="st14" d="M244.3,461.9c0,48.2,47.6,87.7-0.7,87.7c-48.2,0-87.3-39.1-87.3-87.3c0-48.2,39.1-87.3,87.3-87.3
	C291.9,374.9,244.3,413.7,244.3,461.9z"/>
<g>
	
		<ellipse transform="matrix(0.5842 -0.8116 0.8116 0.5842 -256.1197 390.5293)" class="st15" cx="253.1" cy="445.2" rx="39" ry="39"/>
	<path class="st16" d="M266.2,427c10.1,7.2,12.3,21.3,5.1,31.3"/>
	<line class="st15" x1="230.6" y1="477" x2="205" y2="512.5"/>
	<line class="st17" x1="220.1" y1="492.1" x2="205" y2="512.5"/>
</g>
<g>
	<circle class="st13" cx="243.6" cy="210.3" r="93.7"/>
	
		<linearGradient id="SVGID_15_" gradientUnits="userSpaceOnUse" x1="500" y1="1151.3452" x2="623.5249" y2="1151.3452" gradientTransform="matrix(1 0 0 1 -343.7161 -941.0854)">
		<stop  offset="0" style="stop-color:#FFFFFF"/>
		<stop  offset="1" style="stop-color:#FFFFFF;stop-opacity:0"/>
	</linearGradient>
	<path class="st20" d="M243.6,297.6c-48.2,0-87.3-39.1-87.3-87.3c0-48.2,39.1-87.3,87.3-87.3C291.9,122.9,291.9,297.6,243.6,297.6z"
		/>
	<g>
		<circle class="st15" cx="243.4" cy="213.4" r="51.5"/>
		<g>
			<path class="st21" d="M230,224.5c0,7.4,6,13.4,13.4,13.4s13.4-6,13.4-13.4c0-15.9-24.7-8-24.7-24.7c0-6.2,5.1-11.3,11.3-11.3
				c6.2,0,11.3,5.1,11.3,11.3"/>
			<line class="st21" x1="245.1" y1="188.7" x2="245.1" y2="182"/>
			<line class="st21" x1="245.1" y1="244.6" x2="245.1" y2="237.9"/>
		</g>
	</g>
	<g>
		<line class="st22" x1="286.8" y1="162.2" x2="302.3" y2="162.2"/>
		<line class="st22" x1="294.5" y1="154.4" x2="294.5" y2="169.9"/>
	</g>
</g>
<circle class="st13" cx="240.6" cy="714.3" r="93.7"/>
<linearGradient id="SVGID_16_" gradientUnits="userSpaceOnUse" x1="1004.1089" y1="1154.3452" x2="1120.1611" y2="1154.3452" gradientTransform="matrix(1 0 0 1 -850.7161 -440.0854)">
	<stop  offset="0" style="stop-color:#FFFFFF"/>
	<stop  offset="1" style="stop-color:#FFFFFF;stop-opacity:0"/>
</linearGradient>
<path class="st23" d="M255.5,714.3c0,49.9,38.1,90.3-11.8,90.3s-90.3-40.4-90.3-90.3c0-49.9,40.4-90.3,90.3-90.3
	S255.5,664.4,255.5,714.3z"/>
<polygon class="st15" points="210.3,713.9 198.3,767.9 251.3,767.9 227.3,718.9 "/>
<path class="st15" d="M279.5,730.6c-7.4,7.4-46.4,16.1-64.2-1.7c-17.8-17.8-7.6-55.3-0.2-62.7c7.4-7.4,27.8,1,45.6,18.7
	C278.5,702.7,286.9,723.2,279.5,730.6z"/>
<ellipse transform="matrix(0.7071 -0.7071 0.7071 0.7071 -418.133 381.3668)" class="st15" cx="251.3" cy="695.4" rx="19" ry="45.5"/>
<line class="st16" x1="246.3" y1="700.9" x2="280.3" y2="670.9"/>
<circle class="st16" cx="273" cy="676.2" r="8.8"/>
<circle class="st13" cx="243.6" cy="964.3" r="93.7"/>
<linearGradient id="SVGID_17_" gradientUnits="userSpaceOnUse" x1="1254" y1="1151.3452" x2="1361.7137" y2="1151.3452" gradientTransform="matrix(1 0 0 1 -1097.7161 -187.0854)">
	<stop  offset="0" style="stop-color:#FFFFFF"/>
	<stop  offset="1" style="stop-color:#FFFFFF;stop-opacity:0"/>
</linearGradient>
<path class="st24" d="M239.3,964.3c0,48.2,52.6,87.3,4.3,87.3c-48.2,0-87.3-39.1-87.3-87.3c0-48.2,39.1-87.3,87.3-87.3
	C291.9,876.9,239.3,916,239.3,964.3z"/>
<g>
	<path class="st15" d="M270.3,1018.4h-52c-6.9,0-12.5-5.6-12.5-12.5v-85c0-6.9,5.6-12.5,12.5-12.5h52c6.9,0,12.5,5.6,12.5,12.5v85
		C282.8,1012.8,277.2,1018.4,270.3,1018.4z"/>
	<rect x="218.4" y="919.4" class="st16" width="51.8" height="74"/>
	<circle class="st16" cx="244.8" cy="1006.4" r="6"/>
</g>
<line class="st21" x1="260.5" y1="1216.4" x2="294.5" y2="1216.4"/>
<g>
	<circle class="st13" cx="243.6" cy="1216.3" r="93.7"/>
	
		<linearGradient id="SVGID_18_" gradientUnits="userSpaceOnUse" x1="1506.6906" y1="1151.3452" x2="1616.1875" y2="1151.3452" gradientTransform="matrix(1 0 0 1 -1349.7161 64.9146)">
		<stop  offset="0" style="stop-color:#FFFFFF"/>
		<stop  offset="1" style="stop-color:#FFFFFF;stop-opacity:0"/>
	</linearGradient>
	<path class="st25" d="M249.3,1216.3c0,47.9,42.2,86.7-5.7,86.7s-86.7-38.8-86.7-86.7s38.8-86.7,86.7-86.7
		S249.3,1168.4,249.3,1216.3z"/>
	<polyline class="st21" points="216.8,1272.9 243.8,1212.4 273.8,1271.9 	"/>
	<path class="st15" d="M278.6,1248.4h-69.7c-6.2,0-11.1-5-11.1-11.1v-49.7c0-6.2,5-11.1,11.1-11.1h69.7c6.2,0,11.1,5,11.1,11.1v49.7
		C289.8,1243.4,284.8,1248.4,278.6,1248.4z"/>
	<line class="st21" x1="189.3" y1="1258.9" x2="228.8" y2="1216.4"/>
	<g>
		<line class="st26" x1="221.8" y1="1203.2" x2="226" y2="1207.6"/>
		<line class="st26" x1="235.4" y1="1206.6" x2="237.3" y2="1198.3"/>
		<line class="st26" x1="240.9" y1="1212.9" x2="249.3" y2="1212.9"/>
		<line class="st26" x1="238.3" y1="1220.8" x2="242.5" y2="1226.4"/>
	</g>
</g>
<g>
	<circle class="st13" cx="242.6" cy="1467.3" r="93.7"/>
	
		<linearGradient id="SVGID_19_" gradientUnits="userSpaceOnUse" x1="1757" y1="1152.3452" x2="1864.0334" y2="1152.3452" gradientTransform="matrix(1 0 0 1 -1601.7161 314.9146)">
		<stop  offset="0" style="stop-color:#FFFFFF"/>
		<stop  offset="1" style="stop-color:#FFFFFF;stop-opacity:0"/>
	</linearGradient>
	<path class="st27" d="M235.3,1467.3c0,48.2,55.6,87.3,7.3,87.3c-48.2,0-87.3-39.1-87.3-87.3c0-48.2,39.1-87.3,87.3-87.3
		C290.9,1379.9,235.3,1419,235.3,1467.3z"/>
	<polyline class="st21" points="191.3,1420.9 191.3,1523.9 294.3,1522.9 	"/>
	<polyline class="st22" points="207.8,1509.4 235.8,1467.4 247.8,1488.4 283.8,1433.4 	"/>
	<line class="st28" x1="279.8" y1="1509.4" x2="279.8" y2="1467.4"/>
	<line class="st28" x1="234.8" y1="1509.4" x2="234.8" y2="1490.9"/>
	<line class="st28" x1="258.8" y1="1509.4" x2="258.8" y2="1493.9"/>
	<polyline class="st22" points="269.5,1434.2 283.8,1429.5 289.1,1445.6 	"/>
</g>
<rect x="435" y="162" class="st29" width="364" height="157"/>
<text transform="matrix(1 0 0 1 435 176.9097)"><tspan x="0" y="0" class="st13 st30 st31">Inversión social: </tspan><tspan x="0" y="30" class="st19 st32 st31">Trabajamos</tspan><tspan x="102.1" y="30" class="st19 st32 st31 st33"> </tspan><tspan x="110.2" y="30" class="st19 st32 st31">con</tspan><tspan x="142.8" y="30" class="st19 st32 st31 st33"> </tspan><tspan x="151" y="30" class="st19 st32 st31">corporativos</tspan><tspan x="261" y="30" class="st19 st32 st31 st33"> </tspan><tspan x="269.2" y="30" class="st19 st32 st31">y</tspan><tspan x="279.1" y="30" class="st19 st32 st31 st33"> </tspan><tspan x="287.2" y="30" class="st19 st32 st31">agencias </tspan><tspan x="0" y="60" class="st19 st32 st31">Internacionales</tspan><tspan x="134.2" y="60" class="st19 st32 st31"> </tspan><tspan x="138.9" y="60" class="st19 st32 st31">para</tspan><tspan x="178" y="60" class="st19 st32 st31"> </tspan><tspan x="182.7" y="60" class="st19 st32 st31">invertir</tspan><tspan x="245.5" y="60" class="st19 st32 st31"> </tspan><tspan x="250.2" y="60" class="st19 st32 st31">en</tspan><tspan x="272.3" y="60" class="st19 st32 st31"> </tspan><tspan x="277" y="60" class="st19 st32 st31">proyectos </tspan><tspan x="0" y="90" class="st19 st32 st31">educativos.</tspan></text>
<rect x="435" y="664" class="st29" width="364" height="141"/>
<text transform="matrix(1 0 0 1 435 678.9097)"><tspan x="0" y="0" class="st13 st30 st31">Conexión a Internet: </tspan><tspan x="0" y="30" class="st19 st32 st31">Instalamos</tspan><tspan x="94.5" y="30" class="st19 st32 st31"> </tspan><tspan x="99.3" y="30" class="st19 st32 st31">un</tspan><tspan x="122.5" y="30" class="st19 st32 st31"> </tspan><tspan x="127.2" y="30" class="st19 st32 st31">equipo</tspan><tspan x="189.5" y="30" class="st19 st32 st31"> </tspan><tspan x="194.3" y="30" class="st19 st32 st31">de</tspan><tspan x="216.7" y="30" class="st19 st32 st31"> </tspan><tspan x="221.4" y="30" class="st19 st32 st31">internet</tspan><tspan x="291.4" y="30" class="st19 st32 st31"> </tspan><tspan x="296.2" y="30" class="st19 st32 st31">satelital </tspan><tspan x="0" y="60" class="st19 st32 st31">en la comunidad o centro educativo.</tspan></text>
<rect x="435" y="1123" class="st29" width="364" height="190"/>
<text transform="matrix(1 0 0 1 435 1137.9097)"><tspan x="0" y="0" class="st13 st30 st31">Capacitación: </tspan><tspan x="0" y="30" class="st19 st32 st31">Capacitamos</tspan><tspan x="113.1" y="30" class="st19 st32 st31 st34"> </tspan><tspan x="119.8" y="30" class="st19 st32 st31">a</tspan><tspan x="129.9" y="30" class="st19 st32 st31 st34"> </tspan><tspan x="136.7" y="30" class="st19 st32 st31">los</tspan><tspan x="161.5" y="30" class="st19 st32 st31 st34"> </tspan><tspan x="168.2" y="30" class="st19 st32 st31">profesores,</tspan><tspan x="265" y="30" class="st19 st32 st31 st34"> </tspan><tspan x="271.7" y="30" class="st19 st32 st31">alumnos</tspan><tspan x="347.4" y="30" class="st19 st32 st31 st34"> </tspan><tspan x="354.1" y="30" class="st19 st32 st31">y </tspan><tspan x="0" y="60" class="st19 st32 st31">demás</tspan><tspan x="58.3" y="60" class="st19 st32 st31 st35"> </tspan><tspan x="64" y="60" class="st19 st32 st31">usuarios</tspan><tspan x="137.2" y="60" class="st19 st32 st31 st35"> </tspan><tspan x="142.8" y="60" class="st19 st32 st31">para</tspan><tspan x="181.9" y="60" class="st19 st32 st31 st35"> </tspan><tspan x="187.5" y="60" class="st19 st32 st31">el</tspan><tspan x="203" y="60" class="st19 st32 st31 st35"> </tspan><tspan x="208.6" y="60" class="st19 st32 st31">aprovechamiento </tspan><tspan x="0" y="90" class="st19 st32 st31">de</tspan><tspan x="22.4" y="90" class="st19 st32 st31 st36"> </tspan><tspan x="32.3" y="90" class="st19 st32 st31">las</tspan><tspan x="55.7" y="90" class="st19 st32 st31 st36"> </tspan><tspan x="65.6" y="90" class="st19 st32 st31">herramientas</tspan><tspan x="181.6" y="90" class="st19 st32 st31 st36"> </tspan><tspan x="191.5" y="90" class="st19 st32 st31">tecnológicas,</tspan><tspan x="306.9" y="90" class="st19 st32 st31 st36"> </tspan><tspan x="316.9" y="90" class="st19 st32 st31">y</tspan><tspan x="326.8" y="90" class="st19 st32 st31 st36"> </tspan><tspan x="336.7" y="90" class="st19 st32 st31">del </tspan><tspan x="0" y="120" class="st19 st32 st31">contenido educativo y recreativo.</tspan></text>
<rect x="435" y="1382" class="st29" width="364" height="185"/>
<text transform="matrix(1 0 0 1 435 1396.9097)"><tspan x="0" y="0" class="st13 st30 st31">Seguimientos y métricas: </tspan><tspan x="0" y="30" class="st19 st32 st31">A</tspan><tspan x="12.9" y="30" class="st19 st32 st31"> </tspan><tspan x="17.4" y="30" class="st19 st32 st31">través</tspan><tspan x="70.2" y="30" class="st19 st32 st31"> </tspan><tspan x="74.8" y="30" class="st19 st32 st31">de</tspan><tspan x="97.1" y="30" class="st19 st32 st31"> </tspan><tspan x="101.6" y="30" class="st19 st32 st31">nuestra</tspan><tspan x="167.6" y="30" class="st19 st32 st31"> </tspan><tspan x="172.2" y="30" class="st19 st32 st31">app,</tspan><tspan x="210.5" y="30" class="st19 st32 st31"> </tspan><tspan x="215" y="30" class="st19 st32 st31">monitoreamos</tspan><tspan x="344" y="30" class="st19 st32 st31"> </tspan><tspan x="348.5" y="30" class="st19 st32 st31">el </tspan><tspan x="0" y="60" class="st19 st32 st31">uso</tspan><tspan x="31.4" y="60" class="st19 st32 st31 st35"> </tspan><tspan x="37.4" y="60" class="st19 st32 st31">e</tspan><tspan x="47.9" y="60" class="st19 st32 st31 st35"> </tspan><tspan x="54" y="60" class="st19 st32 st31">impacto</tspan><tspan x="126.3" y="60" class="st19 st32 st31 st35"> </tspan><tspan x="132.4" y="60" class="st19 st32 st31">de</tspan><tspan x="154.7" y="60" class="st19 st32 st31 st35"> </tspan><tspan x="160.7" y="60" class="st19 st32 st31">la</tspan><tspan x="175.8" y="60" class="st19 st32 st31 st35"> </tspan><tspan x="181.8" y="60" class="st19 st32 st31">plataforma</tspan><tspan x="278.1" y="60" class="st19 st32 st31 st35"> </tspan><tspan x="284.1" y="60" class="st19 st32 st31">para</tspan><tspan x="323.1" y="60" class="st19 st32 st31 st35">  </tspan><tspan x="335.2" y="60" class="st19 st32 st31">dar </tspan><tspan x="0" y="90" class="st19 st32 st31">seguimiento</tspan><tspan x="110.1" y="90" class="st19 st32 st31"> </tspan><tspan x="115.1" y="90" class="st19 st32 st31">al</tspan><tspan x="130.2" y="90" class="st19 st32 st31"> </tspan><tspan x="135.1" y="90" class="st19 st32 st31">desempeño</tspan><tspan x="239.5" y="90" class="st19 st32 st31"> </tspan><tspan x="244.5" y="90" class="st19 st32 st31">del</tspan><tspan x="271.8" y="90" class="st19 st32 st31"> </tspan><tspan x="276.7" y="90" class="st19 st32 st31">docente</tspan><tspan x="349.2" y="90" class="st19 st32 st31"> </tspan><tspan x="354.1" y="90" class="st19 st32 st31">y </tspan><tspan x="0" y="120" class="st19 st32 st31">medir</tspan><tspan x="51.7" y="120" class="st19 st32 st31 st37"> </tspan><tspan x="60.8" y="120" class="st19 st32 st31">los</tspan><tspan x="85.6" y="120" class="st19 st32 st31 st37"> </tspan><tspan x="94.7" y="120" class="st19 st32 st31">resultados</tspan><tspan x="185.7" y="120" class="st19 st32 st31 st37"> </tspan><tspan x="194.9" y="120" class="st19 st32 st31">académicos</tspan><tspan x="298.6" y="120" class="st19 st32 st31 st37"> </tspan><tspan x="307.7" y="120" class="st19 st32 st31">de</tspan><tspan x="330.1" y="120" class="st19 st32 st31 st37"> </tspan><tspan x="339.2" y="120" class="st19 st32 st31">los </tspan><tspan x="0" y="150" class="st19 st32 st31">alumnos.</tspan></text>
<rect x="435" y="408" class="st29" width="364" height="149"/>
<text transform="matrix(1 0 0 1 435 422.9097)"><tspan x="0" y="0" class="st13 st30 st31">Diagnóstico: </tspan><tspan x="0" y="30" class="st19 st32 st31">Visitamos</tspan><tspan x="84.3" y="30" class="st19 st32 st31 st38"> </tspan><tspan x="104" y="30" class="st19 st32 st31">la</tspan><tspan x="119" y="30" class="st19 st32 st31 st38"> </tspan><tspan x="138.7" y="30" class="st19 st32 st31">comunidad</tspan><tspan x="239.1" y="30" class="st19 st32 st31 st38"> </tspan><tspan x="258.8" y="30" class="st19 st32 st31">y/o</tspan><tspan x="287.4" y="30" class="st19 st32 st31 st38"> </tspan><tspan x="307.1" y="30" class="st19 st32 st31">centro </tspan><tspan x="0" y="60" class="st19 st32 st31">educativo,</tspan><tspan x="91.3" y="60" class="st19 st32 st31"> </tspan><tspan x="96.7" y="60" class="st19 st32 st31">para</tspan><tspan x="135.8" y="60" class="st19 st32 st31"> </tspan><tspan x="141.2" y="60" class="st19 st32 st31">entender</tspan><tspan x="221.8" y="60" class="st19 st32 st31"> </tspan><tspan x="227.2" y="60" class="st19 st32 st31">las</tspan><tspan x="250.6" y="60" class="st19 st32 st31"> </tspan><tspan x="256" y="60" class="st19 st32 st31">necesidades </tspan><tspan x="0" y="90" class="st19 st32 st31">educativas y tecnológicas.</tspan></text>
<rect x="435" y="892" class="st29" width="364" height="160"/>
<text transform="matrix(1 0 0 1 435 906.9097)"><tspan x="0" y="0" class="st13 st30 st31">Implementación: </tspan><tspan x="0" y="30" class="st19 st32 st31">Habilitamos</tspan><tspan x="105" y="30" class="st19 st32 st31 st37"> </tspan><tspan x="114.1" y="30" class="st19 st32 st31">un</tspan><tspan x="137.4" y="30" class="st19 st32 st31 st37"> </tspan><tspan x="146.5" y="30" class="st19 st32 st31">aula</tspan><tspan x="183.3" y="30" class="st19 st32 st31 st37"> </tspan><tspan x="192.4" y="30" class="st19 st32 st31">digital</tspan><tspan x="247.9" y="30" class="st19 st32 st31 st37"> </tspan><tspan x="257" y="30" class="st19 st32 st31">con</tspan><tspan x="289.6" y="30" class="st19 st32 st31 st37"> </tspan><tspan x="298.8" y="30" class="st19 st32 st31">su</tspan><tspan x="318.6" y="30" class="st19 st32 st31 st37"> </tspan><tspan x="327.8" y="30" class="st19 st32 st31">CAP </tspan><tspan x="0" y="60" class="st19 st32 st31">(Centro</tspan><tspan x="65.7" y="60" class="st19 st32 st31"> </tspan><tspan x="70.1" y="60" class="st19 st32 st31">de</tspan><tspan x="92.4" y="60" class="st19 st32 st31"> </tspan><tspan x="96.8" y="60" class="st19 st32 st31">acceso</tspan><tspan x="156.2" y="60" class="st19 st32 st31"> </tspan><tspan x="160.6" y="60" class="st19 st32 st31">a</tspan><tspan x="170.7" y="60" class="st19 st32 st31"> </tspan><tspan x="175.1" y="60" class="st19 st32 st31">contenido),</tspan><tspan x="275.4" y="60" class="st19 st32 st31"> </tspan><tspan x="279.8" y="60" class="st19 st32 st31">tabletas</tspan><tspan x="349.7" y="60" class="st19 st32 st31"> </tspan><tspan x="354.1" y="60" class="st19 st32 st31">y </tspan><tspan x="0" y="90" class="st19 st32 st31">el</tspan><tspan x="15.5" y="90" class="st19 st32 st31 st37"> </tspan><tspan x="24.2" y="90" class="st19 st32 st31">contenido</tspan><tspan x="114.2" y="90" class="st19 st32 st31 st37"> </tspan><tspan x="122.9" y="90" class="st19 st32 st31">educativo</tspan><tspan x="209.8" y="90" class="st19 st32 st31 st37"> </tspan><tspan x="218.5" y="90" class="st19 st32 st31">de</tspan><tspan x="240.9" y="90" class="st19 st32 st31 st37"> </tspan><tspan x="249.6" y="90" class="st19 st32 st31">acuerdo</tspan><tspan x="321.4" y="90" class="st19 st32 st31 st37"> </tspan><tspan x="330.1" y="90" class="st19 st32 st31">a</tspan><tspan x="340.2" y="90" class="st19 st32 st31 st37"> </tspan><tspan x="348.9" y="90" class="st19 st32 st31">la  </tspan><tspan x="0" y="120" class="st19 st32 st31">necesidad de los usuarios.</tspan></text>
</svg>
