<?xml version="1.0" encoding="utf-8"?>
<!-- Generator: Adobe Illustrator 16.0.0, SVG Export Plug-In . SVG Version: 6.00 Build 0)  -->
<!DOCTYPE svg PUBLIC "-//W3C//DTD SVG 1.1//EN" "http://www.w3.org/Graphics/SVG/1.1/DTD/svg11.dtd">
<svg version="1.1" id="Capa_1" xmlns="http://www.w3.org/2000/svg" xmlns:xlink="http://www.w3.org/1999/xlink" x="0px" y="0px"
	 width="328.818px" height="312.747px" viewBox="0 0 328.818 312.747" enable-background="new 0 0 328.818 312.747"
	 xml:space="preserve">
<g>
	<g>
		<g>
			<path fill="#E59323" d="M236.32,136.812c0,0,12.706,32.653-9.907,66.923c0,0,14.094,5.494,17.171,5.307
				c0,0-3.015,9.086-4.145,9.847c1.303,0.433,14.314,12.259,17.404,14.907c14.422-14.127,14.464-25.426,14.464-25.426
				s-17.568-13.039-13.056-37.987c0,0,3.905-18.744,21.809-27.344c0,0-3.215-19.203-6.726-25.328l-20.778,8.021
				c0,0,3.074,9.933,1.941,10.635C252.789,135.635,238.556,134.333,236.32,136.812z"/>
			<path fill="#E59323" d="M264.3,190.688c-6.974-17.346,1.437-37.061,18.784-44.033c17.346-6.977,37.062,1.436,44.035,18.783
				c6.974,17.348-1.438,37.065-18.784,44.037C290.986,216.448,271.271,208.036,264.3,190.688z"/>
		</g>
		<g>
			<path fill="#3F00B9" d="M182.281,84.766c0,0,34.268,7.309,50.49,45.025c0,0,12.332-8.759,13.866-11.433
				c0,0,5.936,7.51,5.953,8.868c1.077-0.847,22.014-6.359,22.014-6.359L261.298,94.82c0,0-20.545,7.521-38.915-9.95
				c0,0-13.522-13.559-10.875-33.241c0,0-17.816-7.861-24.861-8.287l-4.711,21.771c0,0,9.988,2.881,9.957,4.215
				C190.344,70.358,181.438,81.534,182.281,84.766z"/>
			<circle fill="#3F00B9" cx="249.371" cy="57.783" r="33.853"/>
		</g>
		<g>
			<path fill="#477E4D" d="M110.251,105.504c0,0,23.312-26.16,64.114-21.593c0,0-1.512-15.055-3.074-17.708
				c0,0,9.461-1.444,10.651-0.785c-0.205-1.356,5.368-22.275,5.368-22.275l-29.222-1.328c0,0-3.629,21.576-27.902,28.895
				c0,0-18.472,5.041-34.266-6.997c0,0-15.647,11.59-19.506,17.5L93,96.077c0,0,7.45-7.254,8.593-6.564
				C101.722,91.368,107.027,104.637,110.251,105.504z"/>
			<circle fill="#477E4D" cx="120.004" cy="33.853" r="33.854"/>
		</g>
		<g>
			<path fill="#233EB9" d="M91.608,178.196c0,0-10.864-33.312,13.626-66.267c0,0-13.766-6.272-16.846-6.26
				c0,0,3.516-8.901,4.686-9.598c-1.276-0.505-16.546-15.853-16.546-15.853l-15.857,24.576c0,0,16.813,14,10.914,38.656
				c0,0-4.946,18.496-23.3,26.082c0,0,2.137,19.352,5.302,25.665l21.193-6.848c0,0-2.517-10.087-1.346-10.728
				C75.1,178.447,89.24,180.545,91.608,178.196z"/>
			<circle fill="#233EB9" cx="34.614" cy="133.691" r="33.853"/>
		</g>
		<g>
			<path fill="#B8D231" d="M147.527,226.67c0,0-34.61-5.464-52.833-42.253c0,0-11.844,9.408-13.233,12.16c0,0-6.331-7.18-6.42-8.538
				c-1.029,0.907-21.641,7.532-21.641,7.532l14.687,25.296c0,0,20.109-8.612,39.391,7.849c0,0,14.23,12.812,12.644,32.61
				c0,0,18.212,6.893,25.271,6.941l3.533-21.991c0,0-10.128-2.345-10.167-3.677C140.248,241.493,148.542,229.849,147.527,226.67z"/>
			<circle fill="#B8D231" cx="81.981" cy="257.21" r="33.852"/>
		</g>
		<g>
			<path fill="#DC4173" d="M221.633,207.432c0,0-23.783,25.732-64.495,20.425c0,0,1.236,15.077,2.75,17.759
				c0,0-9.485,1.271-10.665,0.59c0.181,1.361-5.771,22.176-5.771,22.176l29.192,1.858c0,0,4.02-21.505,28.424-28.38
				c0,0,18.561-4.704,34.133,7.618c0,0,13.766-5.001,21.643-15.683l-17.404-14.907c0,0-8.311,5.4-9.442,4.688
				C229.904,221.721,224.84,208.355,221.633,207.432z"/>
			<circle fill="#DC4173" cx="210.578" cy="278.894" r="33.853"/>
		</g>
	</g>
</g>
</svg>
