<?xml version="1.0" encoding="utf-8"?>
<!-- Generator: Adobe Illustrator 16.0.0, SVG Export Plug-In . SVG Version: 6.00 Build 0)  -->
<!DOCTYPE svg PUBLIC "-//W3C//DTD SVG 1.1//EN" "http://www.w3.org/Graphics/SVG/1.1/DTD/svg11.dtd">
<svg version="1.1" id="Capa_1" xmlns="http://www.w3.org/2000/svg" xmlns:xlink="http://www.w3.org/1999/xlink" x="0px" y="0px"
	 width="133.146px" height="133.146px" viewBox="0 0 133.146 133.146" enable-background="new 0 0 133.146 133.146"
	 xml:space="preserve">
<g>
	<g>
		<g>
			<circle fill-rule="evenodd" clip-rule="evenodd" fill="#445C72" cx="66.574" cy="66.573" r="66.573"/>
		</g>
		<g>
			<g>
				<g>
					<circle fill-rule="evenodd" clip-rule="evenodd" fill="#688DA5" cx="66.574" cy="65.434" r="65.434"/>
				</g>
			</g>
		</g>
		<path fill-rule="evenodd" clip-rule="evenodd" fill="#8CA353" d="M62.178,84.585c-0.395-0.2-1.246-0.266-1.585-0.803
			c-0.34-0.536-1.303-1.069-1.643-0.938c-0.339,0.134-0.907,0.269-1.359-0.067c-0.455-0.334-1.188-0.734-1.472-1.002
			c-0.284-0.268-1.019-0.469-1.359-0.469c-0.342,0-0.284-0.267-0.793,0.536c-0.51,0.801,0,1.07-0.907,0.935
			c-0.907-0.134,0.113-0.202,0.624-1.002c0.51-0.804-0.058-1.272-0.624-1.071c-0.567,0.201-0.17,0.603-1.076,0.804
			s-0.906-0.468-0.34-0.603c0.567-0.134,1.586-0.737,1.586-1.004c0-0.268-0.113-1.003-0.567-1.003c-0.452,0-0.339-0.671-1.02-1.541
			c-0.678-0.87-1.649-1.856-2.33-1.72c-0.678,0.132-1.067,0.783-1.406,0.048c-0.339-0.736-0.737-0.87-0.964-1.271
			c-0.227-0.401-0.794,0-0.963-0.201c-0.17-0.2-0.17-0.2-0.17-0.2s-0.735,0.2-0.34-0.401c0.397-0.603,0.566-1.742,0.397-1.675
			c-0.169,0.067-0.454,1.005-0.736,0.938c-0.282-0.068-0.056-0.203-0.623-0.603c-0.568-0.403-1.473-0.067-1.473,0.267
			c0,0.336-0.284,0.603-0.284,0.603s-0.17-0.2-0.34-0.603c-0.169-0.401-0.961-0.467-1.359-0.064c-0.396,0.4-0.624-1.007-0.905-1.007
			c-0.285,0-0.85,0.337-1.134,0.938c-0.281,0.604-0.169,1.473-0.396,1.405c-0.227-0.065-0.283-1.204-0.227-1.605
			c0.057-0.4,0.681-1.07,0.227-1.203c-0.452-0.135-1.132,0.669-1.416,0.734c-0.281,0.068-0.849,0.536-1.189,1.07
			c-0.34,0.536-0.51,0.872-0.85,1.071c-0.34,0.202-0.849,0-0.736-0.199c0.114-0.202-0.962-0.938-1.133-0.67
			c-0.169,0.269-0.68,0.468-1.189,0.736c-0.509,0.268-0.961-0.335-1.075-0.604c-0.113-0.267-0.34-0.335-0.397-1.205
			s0.114-1.805,0.284-2.339c0.169-0.538-0.851-1.607-1.247-1.542c-0.396,0.067-0.793,0.537-1.189,0.468
			c-0.396-0.066-0.226-0.201-0.85-0.201c-0.624,0-0.113-0.132,0-0.733c0.113-0.603-0.226-1.405,0.397-1.942
			c0.622-0.535,0.397-1.805,0-1.873c-0.397-0.065-1.134,0.201-1.643,0.135c-0.51-0.066-0.907,0.468-0.737,1.069
			c0.169,0.603-0.283,1.005-0.453,0.938c-0.171-0.068-0.396-0.402-1.02,0.133c-0.621,0.536-0.849,0.336-1.472-0.268
			c-0.623-0.602-1.304-1.204-1.417-2.142c-0.112-0.937-0.169-1.874,0.058-2.408c0.226-0.535,0.226-1.473-0.114-1.606
			c-0.339-0.133,0.396-0.802,0.793-0.938c0.396-0.134,1.019-0.734,1.133-1.004c0.111-0.269,0.679-0.2,1.302-0.2
			c0.622,0,0.737,0,1.359,0.401c0.624,0.4,0.737-0.201,0.737-0.401s0.35-0.345,1.029-0.277c0.68,0.065,1.52-0.525,1.69-0.323
			c0.169,0.2,0.508,1.002,0.849,0.733c0.34-0.266,0.453-0.733,0.566,0.067c0.113,0.805,0.397,2.009,0.906,2.21
			s0.228,1.002,0.736,1.071c0.51,0.064,0.737-1.272,0.567-1.741s-0.51-1.873-0.794-2.209c-0.282-0.334,0.193-1.167,0.76-1.434
			c0.566-0.269,1.45-1.645,1.847-2.045c0.397-0.401,1.691-0.517,1.353-1.052c-0.342-0.535-0.674-1.09-0.674-1.492
			c0-0.401,0.339-0.267,0.51,0c0.169,0.267,0.85-0.401,0.681-0.735c-0.17-0.333-0.114-0.803,0.283-0.734
			c0.396,0.065,0.509-0.336,0.339-0.604c-0.17-0.269,0.397-0.603,0.793-0.47c0.396,0.135,1.706,0.242,1.875-0.027
			c0.169-0.268-0.628-0.842-0.628-1.377c0-0.534,0.679-1.003,1.076-1.071c0.396-0.065,0.906,0,0.961-0.201
			c0.057-0.2,0.624-0.735,0.68-0.267c0.056,0.468,0,1.27,0.453,1.27c0.455,0,1.019-0.601,1.189-0.667
			c0.17-0.066,1.248-0.336,1.474-0.401c0.226-0.067,1.585-0.201,1.415-0.67c-0.169-0.469-0.34-0.937-0.509-1.138
			c-0.17-0.2-0.34,0.065-0.567,0.401c-0.225,0.335-0.623,0.335-0.734,0.066c-0.115-0.267,0.055-1.068-0.342-0.803
			c-0.396,0.268-0.452,0.536-0.68,0.4c-0.227-0.133-0.452-0.601-0.452-0.601s0.566-0.335,0.17-0.937s-0.963-0.469-1.53-0.133
			c-0.566,0.335-0.509,0.267-1.188,0.467c-0.679,0.201-1.02,0.4-1.02,0.4s0.192-1.039,0.588-1.442
			c0.397-0.399,1.62-0.228,1.961-0.632c0.339-0.4,1.245,0.203,1.245,0.203s0.454-0.536,0.454-0.203c0,0.336-0.114,1.207,0.228,1.207
			c0.339,0,1.301-0.536,0.906-0.67c-0.397-0.133,0.245-0.382,0.64-0.717c0.397-0.335,1.172,0.047,1.399-0.086
			c0.226-0.135,0.395-0.735,0.792-0.735c0.397,0,0.566,0.601,0,1.001c-0.567,0.404-0.623,1.408-0.906,1.674
			c-0.283,0.268-0.113,0.603,0.339,0.537c0.454-0.068,0.851,0.065,1.246-0.068c0.396-0.133,0.624,0.134,0.737,0.334
			c0.113,0.201,0.454-0.2,0.454-0.2s0.737-0.202,0.962,0.135c0.227,0.333,0.396-0.2,0.227-0.536c-0.17-0.333-0.397-0.668-0.567-1.07
			c-0.169-0.4-0.396-0.535-0.849-0.4c-0.454,0.133-0.567-0.135-0.85-0.336s-0.509,0.268-0.283-0.201
			c0.228-0.467,0.34-0.603,0.51-1.004s0.907-1.137,0.17-1.338c-0.736-0.199-0.962-0.334-1.077-0.735
			c-0.112-0.403-0.962-1.139-1.188-1.139c-0.227,0-1.311,0.237-1.369-0.097c-0.057-0.337-0.33-1.308-0.614-1.642
			c-0.282-0.336-1.36-1.808-1.53-1.942c-0.169-0.134-0.394-0.066-0.905,0.736c-0.511,0.804-0.963,0.937-1.36,0.738
			c-0.396-0.201-0.832,0.005-1.228-0.531c-0.397-0.533,0.774-0.743,0.604-1.077c-0.17-0.333-1.076-0.47-1.641-0.534
			c-0.567-0.068-0.963-0.803-1.812-0.871c-0.853-0.067-1.872,0.133-2.154,0.133c-0.283,0-0.283,0.47-0.396,1.206
			c-0.114,0.735,0.396,0.937-0.114,1.069c-0.509,0.135-0.735,0.201-0.224,0.47c0.508,0.268,1.188,1.337,1.188,1.337
			s0,0.604-0.397,0.938c-0.396,0.335-0.791,0.669-1.019,0.269c-0.227-0.403-0.851-0.334-0.68,0.066
			c0.169,0.403,0.51,0.604,0.51,1.005c0,0.402,0.509,1.404,0.17,1.738c-0.34,0.337-0.736,0.067-1.021,0.136
			c-0.283,0.065-0.565-0.537-0.34-0.67c0.227-0.132-0.056-1.138-0.056-1.138s-0.679,1.138-0.623,0.535
			c0.057-0.602-0.284-0.669-0.284-1.139c0-0.468-0.493-1.118-1.004-0.983c-0.51,0.134-0.978,0.248-1.94,0.046
			c-0.962-0.199-1.359-0.333-2.152-0.803c-0.792-0.468-1.077-0.132-1.474-0.066c-0.396,0.066-0.226-0.937-0.736-1.069
			c-0.51-0.134-0.184-0.284-0.299-1.154c-0.111-0.87-0.438-0.652,0.809-1.591c1.246-0.935,1.077-1.338,2.039-1.472
			c0.963-0.133,1.316,0.604,1.316,0.271c0-0.335,0.326-2.144,0.326-1.475c0,0.67,1.133,0.736,0.623,1.204
			c-0.509,0.468-0.226,0.537,0.171,0.537c0.395,0,1.133-0.47,1.133-0.47s0.904-0.469,1.131-0.067
			c0.228,0.402,0.228,0.805,0.624,0.805s1.246-0.536,0.51-1.005c-0.736-0.47-1.191-0.402-1.642-0.937
			c-0.454-0.536-0.341-0.336-0.851-0.202c-0.51,0.135-0.51-0.201-0.68-0.201s-0.451,0.136-0.566-0.133
			c-0.113-0.268,0.057-0.332,0.624-0.332c0.566,0,1.246,0.199,1.246,0.199s0.679-0.268,0.85-0.336c0.17-0.064,1.075-0.2,0.905-0.803
			c-0.17-0.602-0.735-0.602-0.905-0.802c-0.171-0.202,0.339-0.469,0.623-0.603c0.283-0.135,1.076,0,1.076,0s0.51,0.065,0.51-0.202
			c0-0.266-0.112-0.603,0.228-0.401c0.339,0.2,0,0.804,0.509,0.669c0.508-0.133,0.625,0,0.906,0.201
			c0.284,0.201-0.057,1.004-0.34,1.138c-0.282,0.133-0.735,0.402-0.112,0.47s1.076,0.067,1.076,0.067s0.396-0.469,0.567-0.871
			c0.169-0.402,0.452-0.133,0.679,0c0.227,0.134,1.076,0.334,0.284,0.604c-0.794,0.268-0.963,0.602-1.133,0.936
			c-0.17,0.335-0.226,0.535-0.962,0.335c-0.736-0.202-1.133-0.136-1.304,0.2c-0.169,0.334-0.058,1.405,0.227,1.271
			c0.283-0.134,0.566-0.134,0.907-0.268c0.34-0.135,1.698,0.134,2.038,0.067c0.34-0.067,0.906,0.67,1.076,0.535
			c0.171-0.134,0.511,0.267,0.851,0.535c0.34,0.269,0.226-0.602,0.849-0.067c0.623,0.536,0.283,0.536,0.623,0.536
			s1.077,0.065,1.077,0.065s0.055-0.667,0.622-0.534c0.567,0.133,1.076,0.87,1.019,0.333c-0.056-0.532,0.057-0.935-0.396-1.337
			c-0.454-0.401-1.19-0.669-1.302-0.869c-0.113-0.201-0.228-0.469-0.058-0.604c0.169-0.133,0.963,0.067,1.417,0.403
			c0.454,0.334,0.849,0.669,1.19,0.401c0.339-0.268,0.736-0.401,0.906-0.604c0.169-0.201,0.566-0.803,0.566-0.803
			s-1.7-0.266-1.926-0.602c-0.227-0.335-1.02-0.803-1.247-0.803c-0.226,0-0.848,0.468-1.076-0.2c-0.227-0.67-0.227-1.472-0.453-1.54
			c-0.227-0.067-2.605-0.469-2.946-0.67c-0.338-0.2-1.698-0.668-2.208-1.003c-0.51-0.334-1.246-0.804-1.698-0.804
			c-0.454,0-2.323,0.269-2.662,0.201c-0.341-0.067-1.359,0.134-1.757,0.2c-0.396,0.068,0.512,0.939-0.339,1.141
			c-0.85,0.2-0.737,0.333-0.567-0.671s-0.566-1.272-1.302-0.871c-0.737,0.401-1.926,0.671-1.643,1.139
			c0.284,0.468-0.057,0.803,0.51,1.271c0.565,0.469,0.793,0.602,1.529,0.537c0.735-0.068,1.472,0.132,1.472,0.132
			s0,0.804-0.282,0.938c-0.285,0.135-0.736,0.135-0.851,0.535c-0.113,0.399-0.679,0.603-0.679,0.399
			c0-0.198,0.284-0.869-0.113-1.203c-0.396-0.334-0.51-0.401-0.963-0.067c-0.453,0.336-0.509,0.471-0.737-0.066
			c-0.225-0.536-0.906-1.005-0.906-1.005s-0.453-0.668-0.793-1.003c-0.339-0.335-0.961-0.266-1.019,0.067
			c-0.057,0.334,0.115,0.67,0.339,1.272c0.228,0.602,0.328,1.364-0.069,1.431c-0.396,0.067-0.327,0.51-0.723,0.643
			c-0.396,0.135-0.565-0.201-0.565-0.735c0-0.536-0.171-1.005-0.057-1.206c0.112-0.2-0.454,0.134-1.02,0
			c-0.566-0.132-1.019,0.269-0.454,0.47c0.567,0.2,0.68,1.004,0.17,1.205c-0.509,0.198-2.434,0-3.059,0
			c-0.622,0-1.528,0.198-1.697-0.201c-0.17-0.4,0.509-0.67,0.906-0.67s1.586,0.066,2.038-0.67c0.454-0.735-0.565-0.868-1.019-0.868
			c-0.452,0-0.793-0.2-1.303-0.802c-0.51-0.604,0.339-1.006,0.226-1.273c-0.047-0.113-0.177-0.143-0.35-0.139
			C11.439,28.488,7.385,35.096,4.558,42.32c0.128,0.327,0.09,0.854-0.148,0.91c-0.063,0.016-0.12-0.014-0.171-0.068
			c-0.286,0.76-0.56,1.527-0.818,2.301c-0.051,0.757-0.158,1.962-0.199,2.519c-0.057,0.737,0.452,2.007,1.02,2.677
			c0.565,0.67,0.46,2.167,0.8,2.435c0.339,0.269,1.182,0.778,1.691,0.71c0.509-0.065,0.848,0.4,1.303,1.339
			c0.452,0.938,0.906,2.475,1.246,2.61c0.34,0.133,0.906,0.603,0.622,0.936c-0.282,0.335-0.734,1.071-0.225,1.071
			c0.509,0,0.679-0.335,1.075,0.268c0.396,0.602,0.907,0.938,0.85,1.339s0.453,0.533,0.679,0.602
			c0.228,0.066,0.737,1.273,1.246,0.736c0.51-0.536-0.679-1.338-1.018-1.674c-0.341-0.333,0-1.067-0.793-1.806
			c-0.793-0.735-0.681-1.271-1.247-1.809c-0.566-0.532-1.019-1.003-0.451-1.47c0.565-0.469,0.622,0.467,0.848,1.069
			c0.227,0.602,1.416,1.809,1.925,2.344c0.51,0.535,1.417,2.407,1.701,2.407c0.281,0,1.076,1.071,1.076,1.071
			s0.453,0.871,0.283,1.138c-0.171,0.266,0.227,1.27,0.623,1.539c0.397,0.268,2.124,0.273,2.21,1.272
			c0.022,0.26,0.307,1.54,0.929,1.54c0.624,0,1.449-0.336,1.619-0.136c0.169,0.201,0.68,1.004,1.02,0.534
			c0.339-0.469,0.396-0.669,0.906-0.669c0.509,0,0.736,0.468,1.019,0.803c0.283,0.336,1.076,1.206,1.473,1.14
			c0.397-0.067,0.906,0.535,1.189,0.334c0.284-0.2,0.737,0.133,0.962,0.269c0.228,0.133,0.703,0.63,0.646,1.431
			c-0.057,0.803,0.769,0.978,1.109,1.179c0.34,0.2,0.793,0.668,1.077,1.003c0.284,0.335,0.907,0.401,1.077,0.603
			c0.169,0.2,0.283,0.603,0.792,0.27c0.509-0.337,0.397-0.939,0.397-0.939s0.566-0.133,0.849,0.136
			c0.286,0.267,0.454,1.137,0.624,1.27c0.17,0.135,0.51,1.139,0.283,1.873c-0.227,0.736-0.17,1.475-0.397,1.475
			c-0.224,0-0.849,0.701-1.189,0.902c-0.34,0.199-0.906,1.305-0.848,1.64c0.055,0.335,0.251,1.394,0.138,1.863
			c-0.113,0.469-0.534,0.945-0.365,1.683c0.169,0.736,1.358,0.938,1.416,1.607c0.057,0.668,0.906,2.142,1.02,2.808
			c0.114,0.671,0.722,1.443,0.722,2.381c0,0.938,1.714,1.5,1.996,1.569c0.284,0.065,0.793,0.669,1.19,0.869
			c0.397,0.201,0.737,0.603,1.019,1.139c0.283,0.535,0.228,1.338,0.228,1.539c0,0.2-0.169,2.273-0.34,3.48
			c-0.17,1.204,0.409,2.34,0.071,2.676c-0.341,0.335-0.978,0.467-0.637,0.869c0.338,0.401-0.397,0.671-0.397,0.871
			c0,0.201,0.454,1.271,0.228,1.739c-0.228,0.468-0.398,1.138-0.568,1.539c-0.168,0.401-0.566,0.805-0.453,1.405
			c0.114,0.602-0.454,0.402-0.454,1.004c0,0.603,0.511,0.334,0.397,1.071c-0.114,0.735-0.397,0.938-0.397,1.472
			c0,0.533,0.284,1.271,0.284,1.472s-0.284,0.869-0.679,1.406c-0.397,0.534-0.681,0.867-0.624,1.204
			c0.055,0.333,0.453,0.735,0.396,0.937c-0.057,0.2-0.566,0.87-0.51,1.337c0.057,0.47,0.567,0.269,0.681,0.603
			c0.113,0.335-0.681,0.604-0.34,0.937c0.34,0.335,0.792,0.269,0.681,1.071c-0.116,0.805,0.622,1.002,0.792,1.204
			c0.169,0.201,0.509,0.669,0.794,0.669c0.282,0,0.508-0.198,0.622-0.935c0.114-0.736,0.905-0.134,0.34,0.4
			c-0.565,0.534-0.85,0.803-0.68,0.803c0.169,0,1.021,0.536,1.472,0.536c0.454,0,1.361-0.269,1.53-0.336
			c0.169-0.066,1.416-0.268,1.529-0.469c0.112-0.198-0.962-0.132-1.474-0.334c-0.509-0.2-1.416-1.204-1.527-1.605
			c-0.114-0.399-0.114-1.205,0.282-1.473s1.359-1.204,1.586-1.404c0.226-0.201,0.565-1.139,0.396-1.273
			c-0.17-0.133-1.019,0-1.131-0.199c-0.114-0.201-0.114-0.468,0.452-0.938c0.566-0.469,0.849-1.136,1.077-1.337
			c0.226-0.201,0.678-0.604,0.849-1.071c0.17-0.469-0.171-0.2-0.51-0.2c-0.339,0-0.51-0.737-0.51-1.073
			c0-0.331,0.849,0.136,1.474,0.271c0.622,0.132,0.339-0.335,0.282-0.735c-0.056-0.402,0.115-1.071,0.454-0.87
			c0.339,0.199,2.095-0.067,2.322-0.136c0.228-0.065,0.848-1.271,1.076-1.604c0.226-0.337,0.283-0.672,0-0.87
			c-0.283-0.201-1.071-0.983-1.184-1.184c-0.112-0.202,0.279-1.36,0.391-1.696c0.114-0.334,0,1.942,0.793,2.21
			c0.792,0.268,1.246,0.4,1.982-0.401c0.737-0.804,1.304-1.34,1.358-1.873c0.058-0.538,0.228-1.07,0.51-1.271
			c0.283-0.2,0.517-0.058,0.855-0.929c0.341-0.868,0.618-0.21,0.957-0.946c0.339-0.735-0.564-1.674,0.115-2.206
			c0.679-0.537,1.867-1.206,1.867-1.206s0.343-0.202,1.021-0.402c0.679-0.2,1.415-0.067,1.642-0.469
			c0.226-0.402,0.452-1.27,0.792-1.738c0.34-0.469,0.735-1.205,0.566-1.539c-0.17-0.337,0.453-1.807,0.396-2.208
			c-0.057-0.401-0.567-1.339,0.282-2.143c0.853-0.803,1.759-2.008,1.813-2.341c0.057-0.336,0.736-1.742,0.679-2.409
			C63.198,85.589,62.575,84.786,62.178,84.585z M34.201,45.439c0.169,0.133,1.359-0.201,1.586,0.133
			c0.226,0.336-0.227,0.401-0.795,0.67c-0.565,0.269-0.736,0.2-0.959,0.533c-0.228,0.337-0.964,0.47-1.304,0.871
			c-0.34,0.402-0.947,0.64-1.076,0.335c-0.171-0.401,0.057-0.201,0.113-0.401c0.057-0.201,1.076-0.669,1.076-0.669
			S34.032,45.305,34.201,45.439z M31.143,43.899c0.169-0.067,0.961-0.067,1.358,0c0.397,0.065,0.963,1.271,0.68,1.339
			c-0.283,0.066-0.737-0.268-0.737-0.736s-0.396,0.87-0.17,1.271c0.227,0.402-0.452,0.871-0.679,0.871s-0.397-0.602-0.34-1.204
			c0.058-0.603-0.339-1.139-0.961-1.072c-0.624,0.068-0.908,0.67-1.133,0.871c-0.227,0.201-0.227,1.337-0.171,1.606
			c0.057,0.268,0.057,1.211-0.509,1.137c-0.51-0.067-0.396-1.206-0.341-1.607c0.057-0.4-0.169-1.403,0.057-1.938
			c0.228-0.536,0.906-0.736,1.358-0.804C30.009,43.564,30.973,43.965,31.143,43.899z M26.724,42.093
			c0.736-0.334,1.531-1.271,1.869-0.87c0.341,0.402,0.962,0.87,1.358,0.938s-0.112,0.869-0.282,0.938
			c-0.17,0.064-0.793-0.135-1.303-0.135c-0.509,0-0.396-0.401-0.623-0.333c-0.227,0.066-0.737,0.199-1.076,0.399
			c-0.34,0.201-0.906,0.16-0.906-0.2C25.762,42.295,25.987,42.428,26.724,42.093z M31.349,31.652
			c-0.151,0.269-0.984-0.021-0.83-0.222C30.896,30.94,31.5,31.387,31.349,31.652z M33.049,32.367
			c-0.378,0.178-0.941-0.332-0.34-0.534C33.237,31.652,33.426,32.189,33.049,32.367z M19.871,19.744
			c-0.18,0-0.332-0.032-0.537-0.076c0.204-0.205,0.41-0.408,0.616-0.611C20.089,19.399,20.104,19.744,19.871,19.744z M16.873,22.286
			c0.208-0.233,0.416-0.468,0.627-0.696c-0.131,0.257-0.264,0.639-0.461,0.696C16.978,22.304,16.922,22.301,16.873,22.286z
			 M17.724,21.35c0.288-0.312,0.578-0.623,0.872-0.928c0.569,0.01,1.126,0.027,1.425-0.01c0.718-0.09,1.02,0.356,0.982,0.581
			c-0.038,0.224-0.454,0.89-0.982,0.847c-0.527-0.046-0.527,0.177-0.718-0.312C19.117,21.04,17.961,21.346,17.724,21.35z
			 M21.23,22.82c0.301,0.224,0.528,1.205,0.34,1.251c-0.188,0.043-0.151,0.4-0.831,0.803c-0.68,0.4-0.944-0.803-1.02-1.071
			c-0.074-0.269-0.792,0.088-1.206,0.044c-0.417-0.044-0.565-0.693-0.303-0.893c0.415-0.312,1.208,0.047,1.473-0.088
			C19.946,22.731,20.928,22.6,21.23,22.82z M22.476,23.357c-0.114-0.313,1.058-0.892,1.398-1.026
			c0.341-0.134,0.641,0.269,1.019,0.312c0.377,0.045,0.302,0.715-0.038,0.76c-0.34,0.042-1.058,0.132-1.546,0.222
			C22.816,23.712,22.52,23.479,22.476,23.357z M22.362,21.482c0.189-0.535,1.134-0.358,1.323,0.18
			C23.874,22.197,22.199,21.951,22.362,21.482z M21.382,18.761c0,0.135,0.805,0.31,1.283,0.446c0.945,0.268,0.869,0.268,1.322,0.356
			c0.453,0.09,1.208,0.804,1.548,1.027c0.339,0.225,0.68,0.623,1.132,0.579c0.454-0.046,1.17-0.046,1.737,0
			c0.565,0.044,2.492,0.044,2.833,0c0.339-0.046,1.737,0.312,1.661,0.492c-0.075,0.178-0.188,0.447-0.906,0.49
			c-0.718,0.045-2-0.09-2.87-0.179c-0.867-0.091-1.698,0.136-1.698,0.136l-1.208-0.136c0,0-1.02-0.358-1.322-0.804
			c-0.303-0.446-1.247-0.489-1.736-0.713c-0.492-0.224-1.171-0.626-1.586-0.847C21.154,19.387,21.382,18.627,21.382,18.761z
			 M75.514,30.139c0,0-1.021,0.043-1.171,0.311c-0.152,0.269-0.679,0.4-1.322,0.624c-0.642,0.225-0.943-0.088-1.055-0.444
			c-0.115-0.359-1.021-0.313-1.285-0.268c-0.264,0.042-0.492-0.314-0.794-0.937c-0.301-0.627,0-0.64,0.151-0.94
			c0.112-0.221,1.359-0.043,1.662,0.313c0.303,0.358,0.793,0,1.548,0c0.754,0,1.095-0.356,1.435-0.313
			c0.341,0.046,1.057,0.271,1.358,0.584C76.345,29.379,75.514,30.139,75.514,30.139z M68.628,24.693
			c0.137,0.18,0.241,0.849-0.449,1.029c-0.69,0.176-0.931-0.403-0.898-0.85c0.033-0.447-1.227-0.974-1.365-0.974
			c-0.137,0-0.051,1.375,0.468,1.375c0.517,0,0.864,0.624,1.105,0.893c0.241,0.267-0.519,0.267-0.829,0.222
			c-0.31-0.043-1.278,0.627-2.176,0.804c-0.896,0.18-1.895-0.039-2.275,0.008c-0.38,0.043-0.969,1.376-1.107,1.598
			c-0.139,0.225-1.381,0-1.829,0c-0.45,0-0.829,0.581-1.555,0.714c-0.725,0.135-0.344,0.67-0.31,1.117
			c0.033,0.444-0.208,0.667-0.657,0.534s-0.414,0.179-0.449,0.581c-0.033,0.4,0.069,0.937-0.345,1.337
			c-0.414,0.401-0.587,0.534-1.069,0.491c-0.484-0.044-0.449-1.025-0.622-0.98c-0.173,0.045-1.002,0.667-1.14,0.312
			c-0.139-0.358-1.21-1.159-1.589-1.341c-0.38-0.177-0.654-0.934-0.828-1.247c-0.172-0.313,0.518-0.356,0.31-0.401
			c-0.206-0.045-0.932-0.268-1.069-0.489c-0.138-0.225-0.586-1.294-0.622-1.607c-0.034-0.312,0.553-0.847,0.553-1.027
			c0-0.177-0.553-0.177-0.794-0.177c-0.243,0-0.518-0.669-0.173-1.339c0.345-0.67,0.863-0.49,0.863-0.49s0.241,0,0.518,0
			c0.275,0,0.208,0.758,0.07,1.114c-0.139,0.358,0.207,0.312,0.413,0.49c0.208,0.179,0.31-0.311,0.346-0.622
			c0.034-0.312-0.518-1.073-0.758-1.384c-0.242-0.312-0.967-0.447-1.106-0.222c-0.139,0.222-0.726,1.158-0.898,0.935
			c-0.171-0.223-0.207-2.23-0.516-2.81c-0.312-0.579-1.416-0.759-1.864-1.027c-0.449-0.266-2.072-0.535-2.348-0.578
			c-0.277-0.044-1.312,0.267-1.726,0.088c-0.416-0.178-0.416-1.071-0.416-1.071s-0.241,0.939-0.413,1.206
			c-0.173,0.267-0.552,0.401-0.829,0.267c-0.277-0.134-0.691-1.116-1.208-1.25c-0.518-0.132-0.759,0.091-1.175-0.267
			c-0.621-0.534,1.071-0.49,1.175-0.49c0.103,0,1.416-0.312,1.45-0.76c0.035-0.445,0.448-0.892,1.036-0.758
			c0.586,0.135,0.829-0.491,0.76-1.026c-0.069-0.534,1.035-1.113,1.277-0.846c0.241,0.266,1.173-0.045,0.863-0.581
			c-0.312-0.536,1.208-1.068,2.59-1.16c1.381-0.088,1.726,0.092,2.071,0.313c0.345,0.221,1.519,0.311,1.932-0.313
			c0.416-0.625-0.033-1.517,0.452-1.873c0.481-0.357,0.551,0.535,0.931,0.893c0.38,0.355,0.759-0.984,1.172-1.518
			c0.076-0.097,1.006-0.152,1.729-0.68c0.823-0.599,2.076-0.525,3.126-0.557c0.821-0.024,1.351-0.32,2.174-0.271
			c1.046,0.063,2.371,0.487,3.246,0.601c0.239,0.032,0.786,0.352,0.107,0.483c-0.679,0.134-2.06,0.464-2.881,0.609
			c-1.068,0.188-2.448-0.034-2.253,0c0.249,0.042,1.609,0.641,3.299,0.202c0.196-0.051,0.891-0.528,1.665-0.321
			c0.394,0.106,0.84-0.382,1.531-0.558c0.524-0.134,1.375,0.045,1.375,0.045s0,0,0.726-0.133c0.724-0.136,0.307,1.607,0.991,2.49
			c0.47,0.609,0.596,1.791,1.426,2.014c0.827,0.224,1.24-0.444,1.967-1.159c0.724-0.714,1.829-0.312,2.38-0.089
			c0.555,0.223,0,1.248-0.792,1.518c-0.796,0.268-2.244,2.008-2.521,2.273c-0.275,0.269-0.724,0.759-0.482,1.429
			c0.242,0.67,0.551,0.357,0.795,0.489c0.241,0.134-0.207,0.402-0.416,0.804c-0.206,0.4-0.24,1.159-0.206,1.876
			c0.034,0.711-1.329-0.313-2.054-0.224c-0.726,0.09-0.397,1.068-0.26,1.382C68.386,24.069,68.49,24.516,68.628,24.693z
			 M34.937,64.777c-0.283-0.267-1.302-0.803-1.529-1.138c-0.226-0.333-1.416-0.2-2.095-0.2c-0.681,0-1.247,0.2-1.19-0.469
			c0,0,1.359-0.469,1.7-0.469c0.339,0,1.188,0,1.642,0.469c0.452,0.469,1.302,1.004,1.698,0.938
			c0.397-0.066,1.077,0.669,1.021,0.936C36.125,65.111,35.22,65.044,34.937,64.777z M34.256,61.098
			c0.511-0.068,0.852,0.533,0.228,0.668C33.861,61.898,33.739,61.164,34.256,61.098z M34.767,67.727
			c-0.624,0.218-0.746-0.977-0.226-1.087C35.049,66.53,35.389,67.509,34.767,67.727z M42.243,66.99
			c-0.622,0.219-0.745-0.978-0.227-1.088C42.526,65.793,42.867,66.773,42.243,66.99z M40.6,66.451
			c-0.057,0.869-0.34,0.067-0.567,0.067c-0.224,0-0.848,0.468-1.188,0.268c-0.339-0.201-0.566-0.469-0.964-0.469
			c-0.396,0-1.018-0.134-1.018-0.134s0.962-1.004,1.303-1.072c0.34-0.067,0.848-0.201,1.302-0.067
			C39.92,65.18,40.657,65.58,40.6,66.451z M120.062,92.281c0.057,0.734-0.283,2.007-0.453,2.408c-0.17,0.4-0.453,1.941-0.795,2.678
			c-0.34,0.735-0.395,1.604-0.734,2.476c-0.34,0.871-0.623,1.203-1.416,1.203s-1.078-0.469-0.963-1.203
			c0.112-0.737-0.625-2.074-0.227-2.543c0.396-0.469,0.451-1.474,0.057-2.477c-0.396-1.004,0.848-1.541,1.076-1.472
			c0.227,0.065,0.85-0.537,1.415-1.271c0.567-0.735,0.649-1.847,1.359-1.606C119.779,90.607,120.005,91.545,120.062,92.281z
			 M91.798,49.654c-0.34-0.332-0.08-1.338,0.455-1.338c0.282,0,0.793,0.668,0.51,1.138S92.138,49.988,91.798,49.654z M87.949,49.387
			c0.395-0.736,0.68-0.2,0.564,0.067C88.401,49.723,87.812,49.641,87.949,49.387z M95.311,51.259
			c-0.284-0.132-0.831-0.588-0.624-0.733c0.285-0.2,1.021,0,1.19,0c0.171,0,0.681,0,0.907,0.669c0.225,0.668-0.51,0.735-0.736,0.668
			C95.822,51.797,95.596,51.395,95.311,51.259z M79.623,38.346c-0.114-0.468,0.283-0.602,0.621-0.602
			c0.342,0,0.395-0.636,0.907-0.737c0.34-0.066,0.737,0,0.964,0.269c0.227,0.268,0.34,0.803,0.34,1.405
			c0,0.604-0.566,1.005-0.964,1.205c-0.395,0.201-0.905,0.603-1.359,0.533c-0.453-0.066-0.848-0.869-0.509-1.07
			C79.962,39.148,79.735,38.814,79.623,38.346z M81.718,36.204c-0.228-0.336-0.4-1.023,0.057-1.203
			c0.34-0.136,0.68,0.334,0.962-0.068c0.285-0.399,0.681-0.804,1.133-0.468c0.454,0.335,1.655,0.051,2.052,0.52
			c0.397,0.467-1.201,1.354-0.861,1.622c0.34,0.267,0.906,1.472,1.416,1.739s1.076,1.003,1.133,1.472
			c0.056,0.469-0.68,1.206-1.133,1.206c-0.455,0-1.36-0.336-1.812-0.336c-0.453,0-0.625,0.604-0.906,0.469
			c-0.284-0.133,0.057-0.603,0.057-0.603s-1.594,0.18-1.48-0.222c0.112-0.401,1.424-1.719,1.877-1.986s-0.737-0.534-1.304-0.803
			C82.341,37.275,81.945,36.537,81.718,36.204z M133.101,64.235c-0.479-13.888-5.211-26.694-12.936-37.159
			c-0.094,0.037-0.203,0.069-0.331,0.095c-1.021,0.201-1.642-0.2-1.925,0.201s-0.68,1.137-0.85,0.668
			c-0.168-0.47,0.566-1.27,0.283-1.539c-0.283-0.268-1.473-0.134-1.643,0.066c-0.17,0.203-0.058,0.938,0.055,1.206
			c0.115,0.267,0.285,1.338-0.055,1.136c-0.34-0.2-0.284-0.869-0.625-0.802c-0.338,0.068-0.733,0.27-0.902,0.401
			c-0.171,0.134-0.852,0.134-1.021,0.4c-0.17,0.269,0.057,1.005-0.228,1.071c-0.282,0.066-0.509,0.335-1.132-0.133
			c-0.623-0.469-0.623-0.201-0.793-0.068c-0.17,0.135-0.963,0.67-1.021,0.068c-0.055-0.603,0.115-0.805-0.393-1.205
			c-0.51-0.402-0.115-0.402,0.566-0.134c0.678,0.267,1.526,0.4,2.772-0.067c1.249-0.467,1.758-0.668,1.249-0.936
			c-0.512-0.269-0.92-1.12-1.714-1.254c-0.792-0.134-1.969,0.449-3.216-0.085c-1.246-0.537-1.529-0.737-2.039-0.871
			c-0.51-0.132-3.619-1.747-5.036-1.481c-1.415,0.269-5.329,2.485-5.555,2.687c-0.227,0.2-0.565,1.005-1.303,1.675
			c-0.737,0.666-2.017,1.33-3.094,1.597s-2.397,2.216-2.397,2.482c0,0.269,0.451,1.273,0.339,1.474
			c-0.116,0.199,0.224,1.204,0.849,1.473c0.622,0.267,1.699,0.201,1.756-0.2c0.057-0.402,0.906-1.272,0.963-0.669
			c0.055,0.601,0.621,1.536,0.51,1.939c-0.115,0.4,0,0.804,0.395,0.735c0.396-0.066,2.494-0.602,2.494-0.602
			s0.678-0.336,0.566-0.871c-0.115-0.533,0.736-1.271,0.906-1.472c0.169-0.2,0.792-1.004,0.057-1.271
			c-0.738-0.269-1.305-0.337-0.512-1.14c0.795-0.803,1.304,0,2.322-1.203c1.021-1.204-0.227-1.54,0.852-1.607
			c1.075-0.066,2.207-0.133,1.979,0.27c-0.224,0.4-1.526,1.271-2.264,1.673s-0.624,1.137-0.34,1.538
			c0.283,0.402,0.398,1.339,0.906,1.206c0.51-0.135,1.134-0.604,1.697-0.536c0.566,0.066,1.703-0.067,1.871-0.067
			c0.171,0,0.963,0.938,0.512,1.071c-0.455,0.133-1.021,0.066-1.984,0.133c-0.962,0.068-2.039,0.068-2.039,0.269
			c0,0.201,1.303,0.668,0.85,1.005c-0.452,0.332-0.906-0.067-1.473-0.136c-0.566-0.065-0.906,0.869-1.076,1.405
			s0.283,1.473-0.565,1.14c-0.851-0.337-1.474-0.337-1.698-0.201c-0.228,0.134-0.643-0.118-1.208,0.082
			c-0.567,0.201-0.605,0.186-1.343,0.186c-0.735,0-0.735,0-0.735,0l-0.454,0.066c0,0-0.451-0.334-0.51-0.869
			c-0.055-0.538,0.229-1.139-0.055-1.271c-0.284-0.136-1.303,0.064-1.473,0.468c-0.17,0.4-0.342,1.139-0.115,1.473
			c0.229,0.334,0.908,1.003,0.285,0.803c-0.625-0.201-1.416-0.268-1.87,0.134c-0.452,0.403-1.245,1.271-1.245,1.271
			s-1.416,0.136-1.416,0.537s0,0.936-0.51,1.004c-0.51,0.066-1.19,0.267-1.869,0.4c-0.68,0.134-0.623,0.468-1.416,0.535
			c-0.795,0.068-0.905,0.469-0.17,0.602c0.736,0.133,1.867,0.67,1.925,1.271c0.058,0.604-0.058,1.271-0.339,1.874
			c-0.194,0.413-1.359,0.135-2.04,0.135c-0.679,0-2.037-0.268-2.604,0c-0.566,0.266-0.453,1.604-0.285,2.208
			c0.17,0.603-0.057,0.937-0.281,1.137c-0.228,0.2-0.284,0.803,0,1.071c0.281,0.267,0.509,0.868,0.736,0.937
			c0.228,0.065,0.962-0.201,1.246,0.135c0.281,0.334,0.566,1.137,0.736,0.936c0.171-0.2,0.395-1.07,0.68-0.87
			c0.285,0.201,0.963-0.065,1.473-0.135c0.509-0.065,0.791-0.735,1.303-1.069c0.509-0.333,0.227-0.333,0.056-0.734
			s0.511-0.872,0.907-1.34c0.396-0.469,1.132-0.066,1.302-0.603c0.169-0.534,0.228-1.471,0.679-1.406
			c0.454,0.068,1.079,0.401,1.474,0.401c0.397,0,1.245-0.734,1.474-0.868c0.227-0.135,1.075-0.066,1.189,0.535
			c0.113,0.602,1.074,1.338,1.302,1.472c0.227,0.135,1.7,0.67,1.926,0.869c0.227,0.202,0.565,0.803,0.681,1.341
			c0.111,0.533,0.789,1.173,0.848,0.703c0.055-0.467-0.565-1.977-0.17-1.908c0.397,0.066,0.852-0.136,0.852-0.136
			s-1.078-0.869-1.475-1.07c-0.395-0.199-1.131-0.601-1.471-1.271s-1.19-0.803-1.135-1.474c0.057-0.668,0.851-0.266,1.304,0.27
			c0.452,0.534,1.586,1.272,1.982,1.737c0.397,0.47,1.02,0.672,1.188,1.272c0.17,0.603,0.68,1.273,0.85,1.539
			c0.17,0.269,0.273,2.399,0.443,2.733c0.17,0.335,1.201-0.725,1.484-0.994c0.281-0.267,0.791-0.399,0.848-0.937
			c0.058-0.534-0.679-0.937-0.905-1.137c-0.226-0.2,0.565-0.4,0.849-0.67c0.284-0.266,0.793-0.734,1.018-0.334
			c0.227,0.401,0.116,2.008,0.227,2.277c0.116,0.267,1.25,0.666,1.476,1.002c0.226,0.334,1.188,0.469,1.358,0.268
			c0.17-0.2,1.076,0.134,1.303,0.201c0.227,0.066,0.906-0.135,1.359-0.268c0.451-0.134,0.906-0.537,0.848,0.334
			c-0.053,0.871-0.227,2.208-0.791,2.876c-0.565,0.67-0.338,1.006-0.906,1.006c-0.263,0-0.501,0.003-0.692,0.11
			c-0.185-0.344-0.44-0.611-0.78-0.512c-0.68,0.2-1.529,0.2-2.094,1.004c-0.568,0.803-0.794,0.867-0.908,0.602
			c-0.113-0.268,1.645-1.405,1.417-1.74c-0.228-0.334-1.589-0.201-2.323-0.201c-0.735,0-1.358-0.534-1.925-0.67
			c-0.567-0.134-0.838,1.242-1.403,1.912c-0.566,0.668-1.429-0.37-1.938-0.37c-0.511,0-1.473-0.872-1.473-0.872
			s-0.963-0.468-1.36-0.468c-0.396,0-1.188-0.869-1.416-0.869c-0.225,0-0.848-0.603-0.395-0.871
			c0.453-0.267,1.416,0.318,0.965-1.153c-0.452-1.473-1.985-1.188-2.383-0.989c-0.396,0.202-3.229,0.136-3.455,0.136
			c-0.225,0-1.867,0.669-2.377,0.937c-0.512,0.268-1.416,0.603-1.643,0.736c-0.227,0.133-1.417-0.269-1.927,0.067
			c-0.673,0.442-1.301,1.138-1.471,1.138c-0.171,0-0.683,0.468-1.021,1.472c-0.34,1.005,0.057,1.872-0.566,2.209
			c-0.623,0.332-1.967,0.867-2.422,1.402c-0.452,0.536-0.807,2.611-1.374,3.481c-0.565,0.871,0,1.674,0.116,2.207
			c0.111,0.536,0.508,1.541-0.116,2.477c-0.622,0.937-0.565,1.405-0.85,1.473c-0.281,0.066,0.284,0.334,0.397,1.005
			c0.113,0.668-0.509,1.336,0.568,1.938c1.075,0.603,2.059,0.631,2.342,1.433c0.283,0.806,1.225,2.65,1.225,2.65
			s1.018,1.07,1.529,1.54c0.51,0.469,0.681,0.2,0.793-0.268c0.112-0.469,0.793-0.536,1.585-0.536c0.794,0,1.36,0.202,2.151,0.067
			c0.795-0.134,1.371-1.288,1.652-1.423c0.285-0.133,1.464-0.315,2.2,0.217c0.737,0.536,0.624,1.272,1.021,1.74
			c0.395,0.47,1.073,0.202,1.585-0.268c0.51-0.468,0.283-0.267,0.906,0.134c0.621,0.402,0.906,0.805,0.34,1.405
			c-0.566,0.604-0.227,1.539-0.566,2.477s0.322,0.933,0.945,1.334c0.623,0.402,1.149,3.016,1.488,3.484
			c0.342,0.467-0.112,1.808,0.283,2.61c0.398,0.803,0.579,1.29,0.123,1.691c-0.453,0.401-1.027,1.186-1.086,2.524
			c-0.057,1.337,0.228,2.272,0.453,2.741c0.227,0.469,0.794,1.741,1.078,2.209c0.281,0.47,1.258,1.334,1.315,2.071
			c0.058,0.734-0.749,1.877-0.466,2.277c0.281,0.403,0.451,1.004,0.96,1.542c0.513,0.535,0.682,1.671,0.682,1.671
			s0.17,0.469,0.228,1.205c0.055,0.737,0.111,1.205,0.68,1.54c0.566,0.334,0.961,0.401,1.244,0.066
			c0.283-0.334,1.49-0.99,2.224-0.925c0.737,0.068,1.798,0.189,2.536-0.414c0.734-0.604,1.81-2.208,2.207-2.677
			c0.396-0.467,1.303-1.34,1.189-1.873c-0.111-0.536-0.767-1.4-0.312-1.668s1.957-0.475,2.01-0.877
			c0.059-0.401-0.396-2.071-0.508-2.407c-0.111-0.334,0.281-0.937,0.736-1.606c0.453-0.669,1.531-1.408,1.755-1.677
			c0.228-0.268,1.19-1.135,1.303-2.002c0.114-0.871-0.226-1.943,0-2.41c0.228-0.468,0.058-0.869-0.452-1.404
			c-0.512-0.535-0.545-1.771-0.715-2.037c-0.17-0.269,0.092-2.047,0.432-2.18c0.34-0.134,1.076-1.473,1.529-2.073
			c0.453-0.602,1.756-2.479,2.379-2.61c0.622-0.135,1.586-1.204,1.641-1.809c0.057-0.601,1.701-2.876,1.758-3.344
			c0.057-0.469,0.736-2.211,0.453-2.612s-2.493,0.604-2.775,0.737c-0.283,0.133-1.076,0.67-1.984,0.602
			c-0.904-0.065-0.509-0.938-0.564-1.339c-0.057-0.401-1.018-1.939-1.246-2.005c-0.227-0.067-0.906-0.87-1.189-1.674
			c-0.283-0.803-1.469-1.331-1.921-1.935c-0.454-0.601,0.052-2.481-0.401-3.418c-0.455-0.938-0.848-2.142-1.246-3.013
			c-0.097-0.212-0.201-0.418-0.305-0.612c0.526-0.155,1.291-0.437,1.381-0.057c0.111,0.469,0.736,1.472,0.852,2.21
			c0.112,0.733,0.734,0.467,0.791,1.137c0.057,0.669,0.621,2.274,0.85,2.476c0.227,0.2,1.247,1.271,1.418,1.673
			c0.169,0.4,0.394,0.937,0.564,1.94c0.169,1.004,0.338,2.343,0.793,2.543c0.451,0.199,1.981-0.333,2.266-0.534
			c0.283-0.201,2.152-1.273,2.832-1.341c0.68-0.065,0.792-0.603,1.641-0.803c0.852-0.201,1.473-0.935,2.04-1.471
			c0.565-0.536,1.245-1.874,1.473-2.345c0.228-0.467,0.794-0.801,0.509-1.335c-0.281-0.537-1.473-1.339-1.924-1.407
			c-0.454-0.066-0.398-0.936-0.68-0.936c-0.284,0-0.227,0.467-0.795,0.803c-0.566,0.333-1.133,1.003-1.529,0.87
			c-0.396-0.134,0.115-0.47-0.51-1.071c-0.621-0.602-0.848-0.737-0.848-1.202c0-0.47-1.246-1.342-1.361-2.009
			c-0.112-0.67,0.851-1.606,1.135-1.004c0.283,0.602,0.51,1.539,1.244,1.938c0.736,0.401,1.418,1.074,1.757,1.207
			c0.341,0.132,1.188-0.736,1.472-0.603c0.284,0.133,0.852,1.337,1.36,1.537c0.509,0.202,2.208,0.268,2.491,0.268
			c0.284,0,1.474,0.068,1.7-0.332c0.226-0.402,0.396-0.402,0.68-0.402c0.282,0,0.792,1.203,1.188,1.336
			c0.396,0.135,1.133,0.068,1.075,0.938C132.71,63.415,132.873,63.933,133.101,64.235z M107.941,82.713
			c-0.51-0.138-0.338-1.673-0.17-2.009c0.17-0.336,1.15-0.423,1.305-0.134C109.357,81.105,108.451,82.845,107.941,82.713z
			 M106.865,32.523c0.282-0.936,1.87,0.201,1.586,0.67C108.168,33.661,106.673,33.154,106.865,32.523z M113.945,48.25
			c-0.454,0.133-1.812,0.268-2.32,0.199c-0.51-0.066-1.134-0.669-1.87-0.803c-0.737-0.134-1.644-0.066-1.925,0.402
			c-0.285,0.469-1.306,0.268-1.758,0.268c-0.453,0-1.019,0.668-1.131,0.402c0,0,0.339-1.206,0-1.34
			c-0.341-0.134,0.112-0.937,0.451-1.204c0.34-0.267,0.736-0.937,1.076-1.606c0.34-0.669,0.794-0.736,1.076-0.669
			c0.285,0.065,0.906,1.271,1.076,1.673c0.17,0.401,0.736-0.133,0.965-0.268c0.223-0.135,0.566-0.535,0.619-0.869
			c0.059-0.335,0.566-0.536,1.134-0.536s0.058,0.536-0.339,0.669c-0.397,0.135-0.17,0.402,0.511,0.67
			c0.678,0.268,1.302,1.004,2.038,1.474C114.285,47.177,114.396,48.115,113.945,48.25z M122.78,44.971
			c-0.226,0.199-1.247,0.401-1.587,0c-0.34-0.402-1.131,0.066-1.188,0.802c-0.057,0.738,0.227,0.201,0.566,0.47
			s0.451,0.669,0.679,1.071c0.228,0.401,0.622,0.267,0.906,0.601c0.284,0.336-0.794,0.736-0.339,1.138
			c0.451,0.402,0.679,2.008,0.736,2.409s-1.246,0.603-1.643,0.536c-0.396-0.067-1.586-0.536-1.983-0.669
			c-0.396-0.134-0.624-1.806-0.114-1.74c0.512,0.066,0.625-0.134,1.191-0.734c0.566-0.604-0.85-0.872-1.246-1.005
			c-0.398-0.134-1.189-1.606-1.474-2.076c-0.282-0.468-0.063-1.198,0.624-1.739c0.34-0.268,1.246,0.334,1.699,0
			s0.906-0.734,1.075-0.871c0.169-0.133,1.302,0.202,1.473,0.604C122.326,44.166,123.007,44.77,122.78,44.971z"/>
		<path fill-rule="evenodd" clip-rule="evenodd" fill="#A8C060" d="M79.623,38.346c-0.114-0.468,0.283-0.602,0.621-0.602
			c0.342,0,0.395-0.636,0.907-0.737c0.34-0.066,0.737,0,0.964,0.269c0.227,0.268,0.34,0.803,0.34,1.405
			c0,0.604-0.566,1.005-0.964,1.205c-0.395,0.201-0.905,0.603-1.359,0.533c-0.453-0.066-0.848-0.869-0.509-1.07
			C79.962,39.148,79.735,38.814,79.623,38.346z M76.042,29.068c-0.302-0.313-1.018-0.538-1.358-0.584
			c-0.34-0.043-0.681,0.313-1.435,0.313c-0.755,0-1.245,0.358-1.548,0c-0.303-0.356-1.55-0.534-1.662-0.313
			c-0.151,0.301-0.452,0.313-0.151,0.94c0.302,0.622,0.53,0.979,0.794,0.937c0.264-0.046,1.17-0.092,1.285,0.268
			c0.111,0.356,0.413,0.669,1.055,0.444c0.644-0.224,1.17-0.355,1.322-0.624c0.15-0.268,1.171-0.311,1.171-0.311
			S76.345,29.379,76.042,29.068z M68.248,23.758c-0.138-0.313-0.466-1.292,0.26-1.382c0.725-0.09,2.088,0.935,2.054,0.224
			c-0.034-0.717,0-1.476,0.206-1.876c0.209-0.401,0.657-0.67,0.416-0.804c-0.244-0.132-0.553,0.181-0.795-0.489
			c-0.241-0.67,0.207-1.16,0.482-1.429c0.277-0.266,1.726-2.006,2.521-2.273c0.792-0.27,1.347-1.295,0.792-1.518
			c-0.551-0.224-1.656-0.625-2.38,0.089c-0.727,0.715-1.14,1.383-1.967,1.159c-0.83-0.223-0.956-1.404-1.426-2.014
			c-0.684-0.883-0.268-2.626-0.991-2.49c-0.726,0.133-0.726,0.133-0.726,0.133s-0.85-0.179-1.375-0.045
			c-0.691,0.176-1.138,0.664-1.531,0.558c-0.774-0.207-1.469,0.271-1.665,0.321c-1.69,0.438-3.05-0.16-3.299-0.202
			c-0.195-0.034,1.185,0.188,2.253,0c0.821-0.146,2.202-0.476,2.881-0.609c0.679-0.132,0.132-0.451-0.107-0.483
			c-0.875-0.113-2.199-0.537-3.246-0.601c-0.823-0.049-1.353,0.247-2.174,0.271c-1.051,0.031-2.304-0.042-3.126,0.557
			c-0.724,0.527-1.654,0.583-1.729,0.68c-0.413,0.533-0.792,1.873-1.172,1.518c-0.379-0.357-0.449-1.25-0.931-0.893
			c-0.484,0.356-0.036,1.248-0.452,1.873c-0.413,0.624-1.587,0.534-1.932,0.313c-0.345-0.222-0.69-0.401-2.071-0.313
			c-1.382,0.092-2.901,0.624-2.59,1.16c0.311,0.536-0.622,0.847-0.863,0.581c-0.242-0.268-1.347,0.312-1.277,0.846
			c0.069,0.535-0.173,1.161-0.76,1.026c-0.587-0.134-1.001,0.312-1.036,0.758c-0.034,0.447-1.347,0.76-1.45,0.76
			c-0.104,0-1.796-0.044-1.175,0.49c0.416,0.357,0.657,0.135,1.175,0.267c0.517,0.134,0.931,1.116,1.208,1.25
			c0.276,0.135,0.655,0,0.829-0.267c0.172-0.267,0.413-1.206,0.413-1.206s0,0.894,0.416,1.071c0.414,0.179,1.449-0.132,1.726-0.088
			c0.276,0.043,1.899,0.312,2.348,0.578c0.448,0.269,1.552,0.448,1.863,1.027c0.31,0.579,0.345,2.587,0.517,2.81
			c0.173,0.224,0.76-0.713,0.898-0.935c0.139-0.226,0.864-0.09,1.106,0.222c0.241,0.311,0.792,1.071,0.758,1.384
			c-0.036,0.312-0.137,0.801-0.346,0.622c-0.206-0.178-0.551-0.132-0.413-0.49c0.138-0.356,0.205-1.114-0.07-1.114
			c-0.276,0-0.518,0-0.518,0s-0.518-0.18-0.863,0.49c-0.345,0.67-0.07,1.339,0.173,1.339c0.241,0,0.794,0,0.794,0.177
			c0,0.181-0.587,0.716-0.553,1.027c0.036,0.313,0.483,1.383,0.622,1.607c0.138,0.222,0.863,0.444,1.069,0.489
			c0.208,0.045-0.482,0.088-0.31,0.401c0.174,0.313,0.448,1.07,0.828,1.247c0.378,0.182,1.45,0.982,1.589,1.341
			c0.138,0.355,0.966-0.267,1.14-0.312c0.172-0.045,0.137,0.937,0.622,0.98c0.482,0.043,0.655-0.09,1.069-0.491
			c0.414-0.4,0.312-0.937,0.345-1.337c0.035-0.402,0-0.714,0.449-0.581s0.69-0.09,0.657-0.534c-0.035-0.447-0.415-0.982,0.31-1.117
			c0.726-0.133,1.104-0.714,1.555-0.714c0.448,0,1.69,0.225,1.829,0c0.139-0.222,0.728-1.555,1.107-1.598
			c0.38-0.047,1.379,0.172,2.275-0.008c0.898-0.177,1.866-0.847,2.176-0.804c0.31,0.045,1.069,0.045,0.829-0.222
			c-0.241-0.269-0.588-0.893-1.105-0.893c-0.519,0-0.604-1.375-0.468-1.375c0.138,0,1.398,0.526,1.365,0.974
			c-0.033,0.446,0.208,1.025,0.898,0.85c0.69-0.181,0.586-0.85,0.449-1.029C68.49,24.516,68.386,24.069,68.248,23.758z
			 M82.907,37.543c0.566,0.269,1.757,0.535,1.304,0.803s-1.765,1.585-1.877,1.986c-0.113,0.401,1.48,0.222,1.48,0.222
			s-0.341,0.47-0.057,0.603c0.281,0.135,0.453-0.469,0.906-0.469c0.452,0,1.357,0.336,1.812,0.336c0.453,0,1.188-0.737,1.133-1.206
			c-0.057-0.469-0.623-1.204-1.133-1.472s-1.076-1.473-1.416-1.739c-0.34-0.269,1.259-1.155,0.861-1.622
			c-0.396-0.469-1.598-0.185-2.052-0.52c-0.452-0.336-0.848,0.068-1.133,0.468c-0.282,0.402-0.622-0.067-0.962,0.068
			c-0.457,0.18-0.284,0.867-0.057,1.203C81.945,36.537,82.341,37.275,82.907,37.543z M118.644,57.953
			c0.115,0.667,1.361,1.539,1.361,2.009c0,0.465,0.227,0.601,0.848,1.202c0.625,0.602,0.114,0.938,0.51,1.071
			c0.396,0.133,0.963-0.537,1.529-0.87c0.568-0.336,0.511-0.803,0.795-0.803c0.281,0,0.226,0.869,0.68,0.936
			c0.084,0.014,0.197,0.052,0.324,0.111c-0.086,1.696-0.244,3.387-0.475,5.064c-0.542,0.524-1.143,1.192-1.947,1.382
			c-0.849,0.2-0.961,0.737-1.641,0.803c-0.68,0.067-2.549,1.14-2.832,1.341c-0.284,0.201-1.814,0.733-2.266,0.534
			c-0.455-0.2-0.624-1.539-0.793-2.543c-0.171-1.004-0.396-1.54-0.564-1.94c-0.171-0.402-1.191-1.473-1.418-1.673
			c-0.229-0.201-0.793-1.807-0.85-2.476c-0.057-0.67-0.679-0.403-0.791-1.137c-0.115-0.738-0.74-1.741-0.852-2.21
			c-0.09-0.38-0.854-0.099-1.381,0.057c0.104,0.194,0.208,0.4,0.305,0.612c0.398,0.871,0.791,2.074,1.246,3.013
			c0.453,0.937-0.053,2.817,0.401,3.418c0.452,0.604,1.638,1.132,1.921,1.935c0.283,0.804,0.963,1.606,1.189,1.674
			c0.229,0.065,1.189,1.604,1.246,2.005c0.056,0.401-0.34,1.273,0.564,1.339c0.908,0.068,1.701-0.469,1.984-0.602
			c0.282-0.133,2.492-1.139,2.775-0.737s-0.396,2.144-0.453,2.612c-0.057,0.468-1.701,2.743-1.758,3.344
			c-0.055,0.604-1.019,1.674-1.641,1.809c-0.623,0.132-1.926,2.009-2.379,2.61c-0.453,0.601-1.189,1.939-1.529,2.073
			c-0.34,0.133-0.602,1.911-0.432,2.18c0.17,0.267,0.203,1.502,0.715,2.037c0.51,0.535,0.68,0.937,0.452,1.404
			c-0.226,0.467,0.114,1.539,0,2.41c-0.112,0.867-1.075,1.734-1.303,2.002c-0.224,0.269-1.302,1.008-1.755,1.677
			c-0.455,0.67-0.848,1.272-0.736,1.606c0.062,0.188,0.23,0.788,0.357,1.354c-0.492,0.603-0.994,1.197-1.508,1.784
			c-0.143,0.047-0.267,0.096-0.352,0.146c-0.146,0.086-0.177,0.235-0.147,0.415c-2.06,2.301-4.28,4.47-6.647,6.482
			c-0.473,0.204-0.896,0.478-1.049,0.659c-0.283,0.335-0.678,0.268-1.244-0.066c-0.568-0.335-0.625-0.803-0.68-1.54
			c-0.058-0.736-0.228-1.205-0.228-1.205s-0.169-1.136-0.682-1.671c-0.509-0.538-0.679-1.139-0.96-1.542
			c-0.283-0.4,0.523-1.543,0.465-2.277c-0.057-0.737-1.033-1.602-1.314-2.071c-0.284-0.468-0.852-1.74-1.078-2.209
			c-0.226-0.469-0.51-1.404-0.453-2.741c0.059-1.339,0.633-2.123,1.086-2.524c0.456-0.401,0.275-0.889-0.123-1.691
			c-0.396-0.803,0.059-2.144-0.283-2.61c-0.339-0.469-0.865-3.082-1.488-3.484c-0.623-0.401-1.285-0.396-0.945-1.334
			s0-1.873,0.566-2.477c0.566-0.601,0.281-1.003-0.34-1.405c-0.623-0.4-0.396-0.602-0.906-0.134c-0.512,0.47-1.19,0.737-1.585,0.268
			c-0.397-0.468-0.284-1.204-1.021-1.74c-0.736-0.532-1.915-0.35-2.2-0.217c-0.281,0.135-0.857,1.289-1.652,1.423
			c-0.791,0.135-1.357-0.067-2.151-0.067c-0.792,0-1.473,0.067-1.585,0.536c-0.112,0.468-0.283,0.736-0.793,0.268
			c-0.512-0.47-1.529-1.54-1.529-1.54s-0.941-1.845-1.225-2.65c-0.283-0.802-1.267-0.83-2.342-1.433
			c-1.077-0.603-0.455-1.271-0.568-1.938c-0.113-0.671-0.679-0.938-0.397-1.005c0.284-0.067,0.228-0.536,0.85-1.473
			c0.624-0.936,0.228-1.94,0.116-2.477c-0.116-0.533-0.682-1.336-0.116-2.207c0.567-0.87,0.922-2.945,1.374-3.481
			c0.455-0.535,1.799-1.07,2.422-1.402c0.623-0.337,0.227-1.204,0.566-2.209c0.338-1.004,0.85-1.472,1.021-1.472
			c0.17,0,0.798-0.695,1.471-1.138c0.51-0.336,1.7,0.065,1.927-0.067c0.227-0.134,1.131-0.469,1.643-0.736
			c0.51-0.268,2.152-0.937,2.377-0.937c0.227,0,3.06,0.066,3.455-0.136c0.397-0.199,1.931-0.483,2.383,0.989
			c0.451,1.472-0.512,0.887-0.965,1.153c-0.453,0.269,0.17,0.871,0.395,0.871c0.228,0,1.02,0.869,1.416,0.869
			c0.397,0,1.36,0.468,1.36,0.468s0.962,0.872,1.473,0.872c0.51,0,1.372,1.038,1.938,0.37c0.565-0.67,0.836-2.046,1.403-1.912
			c0.566,0.136,1.189,0.67,1.925,0.67c0.734,0,2.096-0.133,2.323,0.201c0.228,0.335-1.53,1.473-1.417,1.74
			c0.114,0.266,0.34,0.201,0.908-0.602c0.564-0.804,1.414-0.804,2.094-1.004c0.34-0.1,0.596,0.168,0.78,0.512
			c0.191-0.107,0.43-0.11,0.692-0.11c0.568,0,0.341-0.336,0.906-1.006c0.564-0.668,0.738-2.005,0.791-2.876
			c0.059-0.871-0.396-0.468-0.848-0.334c-0.453,0.133-1.133,0.334-1.359,0.268c-0.227-0.067-1.133-0.401-1.303-0.201
			c-0.171,0.201-1.133,0.066-1.358-0.268c-0.226-0.336-1.359-0.735-1.476-1.002c-0.11-0.27,0-1.876-0.227-2.277
			c-0.225-0.4-0.733,0.068-1.018,0.334c-0.283,0.27-1.074,0.47-0.849,0.67c0.227,0.2,0.963,0.603,0.905,1.137
			c-0.057,0.537-0.566,0.67-0.849,0.937c-0.282,0.27-1.313,1.329-1.483,0.994c-0.17-0.334-0.273-2.465-0.443-2.733
			c-0.17-0.266-0.68-0.937-0.85-1.539c-0.169-0.601-0.791-0.803-1.188-1.272c-0.396-0.465-1.53-1.203-1.982-1.737
			c-0.453-0.535-1.247-0.938-1.304-0.27c-0.056,0.671,0.795,0.804,1.135,1.474s1.076,1.071,1.471,1.271
			c0.396,0.201,1.475,1.07,1.475,1.07s-0.454,0.202-0.852,0.136c-0.396-0.068,0.225,1.441,0.17,1.908
			c-0.059,0.47-0.736-0.17-0.848-0.703c-0.115-0.538-0.454-1.139-0.681-1.341c-0.226-0.199-1.699-0.734-1.926-0.869
			c-0.228-0.134-1.188-0.87-1.302-1.472c-0.114-0.602-0.963-0.67-1.189-0.535c-0.229,0.134-1.076,0.868-1.474,0.868
			c-0.395,0-1.02-0.333-1.474-0.401c-0.451-0.064-0.51,0.872-0.679,1.406c-0.17,0.536-0.905,0.134-1.302,0.603
			c-0.396,0.468-1.078,0.938-0.907,1.34s0.453,0.401-0.056,0.734c-0.512,0.334-0.794,1.004-1.303,1.069
			c-0.51,0.069-1.188,0.336-1.473,0.135c-0.285-0.2-0.509,0.67-0.68,0.87c-0.17,0.201-0.455-0.602-0.736-0.936
			c-0.284-0.336-1.019-0.069-1.246-0.135c-0.228-0.068-0.455-0.67-0.736-0.937c-0.284-0.269-0.228-0.871,0-1.071
			c0.225-0.2,0.451-0.534,0.281-1.137c-0.168-0.604-0.281-1.942,0.285-2.208c0.567-0.268,1.926,0,2.604,0
			c0.681,0,1.846,0.278,2.04-0.135c0.281-0.603,0.396-1.271,0.339-1.874c-0.058-0.602-1.188-1.139-1.925-1.271
			c-0.735-0.133-0.625-0.533,0.17-0.602c0.793-0.067,0.736-0.401,1.416-0.535c0.679-0.134,1.359-0.334,1.869-0.4
			c0.51-0.068,0.51-0.603,0.51-1.004s1.416-0.537,1.416-0.537s0.793-0.867,1.245-1.271c0.454-0.401,1.245-0.335,1.87-0.134
			c0.623,0.2-0.057-0.469-0.285-0.803c-0.227-0.334-0.055-1.072,0.115-1.473c0.17-0.403,1.188-0.604,1.473-0.468
			c0.283,0.133,0,0.733,0.055,1.271c0.059,0.535,0.51,0.869,0.51,0.869l0.454-0.066c0,0,0,0,0.735,0
			c0.737,0,0.775,0.016,1.343-0.186c0.565-0.2,0.98,0.052,1.208-0.082c0.225-0.136,0.848-0.136,1.698,0.201
			c0.849,0.333,0.396-0.604,0.565-1.14s0.51-1.471,1.076-1.405c0.566,0.068,1.021,0.468,1.473,0.136
			c0.453-0.337-0.85-0.804-0.85-1.005c0-0.2,1.077-0.2,2.039-0.269c0.963-0.066,1.529,0,1.984-0.133
			c0.451-0.134-0.341-1.071-0.512-1.071c-0.168,0-1.305,0.134-1.871,0.067c-0.563-0.067-1.188,0.401-1.697,0.536
			c-0.508,0.133-0.623-0.804-0.906-1.206c-0.284-0.401-0.397-1.136,0.34-1.538s2.04-1.272,2.264-1.673
			c0.229-0.402-0.903-0.336-1.979-0.27c-1.078,0.067,0.169,0.403-0.852,1.607c-1.019,1.203-1.527,0.4-2.322,1.203
			c-0.793,0.803-0.227,0.871,0.512,1.14c0.735,0.267,0.112,1.07-0.057,1.271c-0.17,0.2-1.021,0.938-0.906,1.472
			c0.111,0.535-0.566,0.871-0.566,0.871s-2.098,0.535-2.494,0.602c-0.395,0.068-0.51-0.335-0.395-0.735
			c0.111-0.403-0.455-1.339-0.51-1.939c-0.057-0.604-0.906,0.267-0.963,0.669c-0.057,0.401-1.134,0.467-1.756,0.2
			c-0.625-0.269-0.965-1.273-0.849-1.473c0.112-0.2-0.339-1.205-0.339-1.474c0-0.267,1.32-2.216,2.397-2.482
			s2.356-0.931,3.094-1.597c0.737-0.67,1.076-1.475,1.303-1.675c0.226-0.201,4.14-2.418,5.555-2.687
			c1.417-0.266,4.526,1.35,5.036,1.481c0.51,0.134,0.793,0.334,2.039,0.871c1.247,0.534,2.424-0.049,3.216,0.085
			c0.794,0.134,1.202,0.985,1.714,1.254c0.509,0.268,0,0.469-1.249,0.936c-1.246,0.468-2.095,0.334-2.772,0.067
			c-0.682-0.269-1.076-0.269-0.566,0.134c0.508,0.4,0.338,0.603,0.393,1.205c0.059,0.602,0.852,0.066,1.021-0.068
			c0.17-0.133,0.17-0.4,0.793,0.068c0.623,0.468,0.85,0.199,1.132,0.133c0.284-0.066,0.058-0.803,0.228-1.071
			c0.17-0.267,0.851-0.267,1.021-0.4c0.169-0.132,0.564-0.333,0.902-0.401c0.341-0.067,0.285,0.602,0.625,0.802
			c0.203,0.12,0.223-0.218,0.182-0.564c2.604,4.109,4.702,8.536,6.189,13.173c1.973,6.149,2.816,12.402,2.672,18.569
			c-0.197-0.286-0.371-0.539-0.492-0.595c-0.283-0.134-1.131,0.734-1.472,0.603c-0.339-0.133-1.021-0.806-1.757-1.207
			c-0.734-0.399-0.961-1.337-1.244-1.938C119.495,56.347,118.532,57.283,118.644,57.953z M107.771,80.704
			c-0.168,0.336-0.34,1.871,0.17,2.009c0.51,0.132,1.416-1.607,1.135-2.143C108.921,80.281,107.941,80.368,107.771,80.704z
			 M108.451,33.193c0.284-0.469-1.304-1.605-1.586-0.67C106.673,33.154,108.168,33.661,108.451,33.193z M113.548,46.712
			c-0.736-0.47-1.36-1.206-2.038-1.474c-0.681-0.268-0.908-0.535-0.511-0.67c0.396-0.133,0.906-0.669,0.339-0.669
			s-1.075,0.201-1.134,0.536c-0.053,0.334-0.396,0.734-0.619,0.869c-0.229,0.135-0.795,0.669-0.965,0.268
			c-0.17-0.402-0.791-1.607-1.076-1.673c-0.282-0.067-0.736,0-1.076,0.669c-0.34,0.67-0.736,1.34-1.076,1.606
			c-0.339,0.268-0.792,1.07-0.451,1.204c0.339,0.134,0,1.34,0,1.34c0.112,0.266,0.678-0.402,1.131-0.402
			c0.452,0,1.473,0.201,1.758-0.268c0.281-0.469,1.188-0.536,1.925-0.402c0.736,0.134,1.36,0.736,1.87,0.803
			c0.508,0.068,1.866-0.066,2.32-0.199C114.396,48.115,114.285,47.177,113.548,46.712z M118.928,51.328
			c0.397,0.133,1.587,0.602,1.983,0.669c0.396,0.066,1.7-0.135,1.643-0.536s-0.285-2.007-0.736-2.409
			c-0.455-0.401,0.623-0.802,0.339-1.138c-0.284-0.334-0.679-0.199-0.906-0.601c-0.228-0.402-0.339-0.803-0.679-1.071
			s-0.623,0.269-0.566-0.47c0.057-0.735,0.848-1.204,1.188-0.802c0.34,0.401,1.361,0.199,1.587,0
			c0.228-0.201-0.454-0.805-0.623-1.205c-0.171-0.401-1.304-0.736-1.473-0.604c-0.169,0.137-0.622,0.537-1.075,0.871
			s-1.359-0.268-1.699,0c-0.688,0.541-0.906,1.271-0.624,1.739c0.284,0.47,1.075,1.942,1.474,2.076
			c0.396,0.133,1.812,0.401,1.246,1.005c-0.566,0.601-0.68,0.801-1.191,0.734C118.304,49.522,118.532,51.194,118.928,51.328z
			 M24.893,21.17c0.302,0.445,1.322,0.804,1.322,0.804l1.208,0.136c0,0,0.832-0.227,1.698-0.136c0.87,0.089,2.152,0.224,2.87,0.179
			c0.718-0.043,0.831-0.312,0.906-0.49c0.076-0.18-1.322-0.538-1.661-0.492c-0.34,0.044-2.267,0.044-2.833,0
			c-0.567-0.046-1.283-0.046-1.737,0c-0.453,0.044-0.793-0.354-1.132-0.579c-0.34-0.224-1.095-0.938-1.548-1.027
			c-0.222-0.043-0.318-0.064-0.468-0.108c-0.254,0.268-0.502,0.539-0.751,0.81c0.136,0.072,0.269,0.138,0.389,0.192
			C23.646,20.681,24.59,20.724,24.893,21.17z M63.254,86.259c0.057,0.667-0.622,2.073-0.679,2.409
			c-0.055,0.333-0.961,1.538-1.813,2.341c-0.849,0.804-0.338,1.741-0.282,2.143c0.056,0.401-0.567,1.871-0.396,2.208
			c0.169,0.334-0.227,1.07-0.566,1.539c-0.34,0.469-0.567,1.336-0.792,1.738c-0.227,0.401-0.963,0.269-1.642,0.469
			c-0.679,0.2-1.021,0.402-1.021,0.402s-1.188,0.669-1.867,1.206c-0.679,0.532,0.224,1.471-0.115,2.206
			c-0.339,0.736-0.616,0.078-0.957,0.946c-0.339,0.871-0.572,0.729-0.855,0.929c-0.283,0.201-0.453,0.733-0.51,1.271
			c-0.054,0.533-0.621,1.069-1.358,1.873c-0.736,0.802-1.19,0.669-1.982,0.401c-0.793-0.268-0.679-2.544-0.793-2.21
			c-0.112,0.336-0.502,1.494-0.391,1.696c0.113,0.2,0.901,0.982,1.184,1.184c0.283,0.198,0.226,0.533,0,0.87
			c-0.228,0.333-0.848,1.539-1.076,1.604c-0.227,0.068-1.982,0.335-2.322,0.136c-0.339-0.201-0.51,0.468-0.454,0.87
			c0.057,0.4,0.339,0.867-0.282,0.735c-0.625-0.135-1.474-0.602-1.474-0.271c0,0.336,0.17,1.073,0.51,1.073
			c0.339,0,0.68-0.269,0.51,0.2c-0.171,0.468-0.623,0.87-0.849,1.071c-0.228,0.201-0.51,0.868-1.077,1.337
			c-0.566,0.47-0.566,0.736-0.452,0.938c0.112,0.199,0.961,0.066,1.131,0.199c0.17,0.135-0.17,1.072-0.396,1.273
			c-0.096,0.085-0.326,0.304-0.587,0.546c-0.504-0.219-1.007-0.446-1.507-0.686c-1.373-0.659-2.716-1.374-4.029-2.142
			c0.096-0.237,0.307-0.506,0.573-0.863c0.395-0.537,0.679-1.206,0.679-1.406s-0.284-0.938-0.284-1.472
			c0-0.534,0.284-0.736,0.397-1.472c0.114-0.737-0.397-0.469-0.397-1.071c0-0.602,0.568-0.402,0.454-1.004
			c-0.114-0.601,0.284-1.004,0.453-1.405c0.169-0.401,0.34-1.071,0.568-1.539c0.227-0.468-0.228-1.538-0.228-1.739
			c0-0.2,0.735-0.47,0.397-0.871c-0.341-0.402,0.296-0.534,0.637-0.869c0.338-0.336-0.241-1.472-0.071-2.676
			c0.17-1.207,0.34-3.28,0.34-3.48c0-0.201,0.056-1.004-0.228-1.539c-0.282-0.536-0.622-0.938-1.019-1.139
			c-0.397-0.2-0.906-0.804-1.19-0.869c-0.282-0.069-1.996-0.631-1.996-1.569c0-0.938-0.608-1.71-0.722-2.381
			c-0.113-0.666-0.962-2.14-1.02-2.808c-0.057-0.67-1.246-0.871-1.416-1.607c-0.169-0.737,0.251-1.214,0.365-1.683
			c0.114-0.47-0.083-1.528-0.138-1.863c-0.058-0.335,0.508-1.44,0.848-1.64c0.34-0.201,0.965-0.902,1.189-0.902
			c0.228,0,0.171-0.738,0.397-1.475c0.227-0.734-0.113-1.738-0.283-1.873c-0.169-0.133-0.338-1.003-0.624-1.27
			c-0.282-0.269-0.849-0.136-0.849-0.136s0.112,0.603-0.397,0.939c-0.509,0.333-0.623-0.069-0.792-0.27
			c-0.17-0.201-0.793-0.268-1.077-0.603c-0.284-0.335-0.736-0.803-1.077-1.003c-0.34-0.201-1.166-0.376-1.109-1.179
			c0.057-0.801-0.419-1.298-0.646-1.431c-0.226-0.136-0.679-0.469-0.962-0.269c-0.283,0.201-0.792-0.401-1.189-0.334
			c-0.396,0.066-1.189-0.804-1.473-1.14c-0.282-0.335-0.51-0.803-1.019-0.803c-0.511,0-0.567,0.2-0.906,0.669
			c-0.34,0.47-0.851-0.333-1.02-0.534c-0.169-0.2-0.995,0.136-1.619,0.136c-0.622,0-0.907-1.28-0.929-1.54
			c-0.086-0.999-1.813-1.005-2.21-1.272c-0.396-0.27-0.794-1.273-0.623-1.539c0.17-0.267-0.283-1.138-0.283-1.138
			s-0.794-1.071-1.076-1.071c-0.283,0-1.19-1.872-1.701-2.407c-0.509-0.535-1.698-1.742-1.925-2.344
			c-0.226-0.603-0.283-1.538-0.848-1.069c-0.568,0.467-0.115,0.938,0.451,1.47c0.566,0.538,0.454,1.073,1.247,1.809
			c0.793,0.738,0.453,1.473,0.793,1.806c0.339,0.336,1.528,1.138,1.018,1.674c-0.509,0.537-1.018-0.67-1.246-0.736
			c-0.226-0.068-0.736-0.201-0.679-0.602s-0.454-0.737-0.85-1.339c-0.396-0.603-0.566-0.268-1.075-0.268
			c-0.509,0-0.057-0.736,0.225-1.071c0.284-0.333-0.282-0.803-0.622-0.936c-0.339-0.136-0.794-1.672-1.246-2.61
			c-0.455-0.938-0.793-1.404-1.303-1.339c-0.015,0.002-0.033-0.002-0.049,0c1.198-7.662,3.752-15.116,7.576-21.863
			c0.881-1.553,1.835-3.064,2.844-4.541c0.194-0.013,0.387-0.026,0.559-0.026c0.625,0,2.55,0.198,3.059,0
			c0.51-0.201,0.397-1.005-0.17-1.205c-0.566-0.201-0.113-0.602,0.454-0.47c0.566,0.134,1.132-0.2,1.02,0
			c-0.114,0.201,0.057,0.67,0.057,1.206c0,0.534,0.169,0.87,0.565,0.735c0.396-0.133,0.327-0.575,0.723-0.643
			c0.396-0.066,0.296-0.829,0.069-1.431c-0.224-0.603-0.396-0.938-0.339-1.272c0.058-0.333,0.68-0.402,1.019-0.067
			c0.34,0.335,0.793,1.003,0.793,1.003s0.681,0.469,0.906,1.005c0.228,0.537,0.284,0.402,0.737,0.066
			c0.453-0.334,0.567-0.267,0.963,0.067c0.397,0.334,0.113,1.005,0.113,1.203c0,0.203,0.566,0,0.679-0.399
			c0.115-0.4,0.566-0.4,0.851-0.535c0.282-0.135,0.282-0.938,0.282-0.938s-0.737-0.2-1.472-0.132
			c-0.736,0.064-0.964-0.068-1.529-0.537c-0.567-0.468-0.227-0.803-0.51-1.271c-0.283-0.468,0.906-0.737,1.643-1.139
			c0.735-0.401,1.472-0.133,1.302,0.871s-0.283,0.871,0.567,0.671c0.851-0.201-0.058-1.072,0.339-1.141
			c0.398-0.066,1.416-0.268,1.757-0.2c0.339,0.067,2.208-0.201,2.662-0.201c0.453,0,1.188,0.47,1.698,0.804
			c0.51,0.335,1.871,0.803,2.208,1.003c0.341,0.201,2.719,0.603,2.946,0.67c0.226,0.068,0.226,0.87,0.453,1.54
			c0.228,0.668,0.85,0.2,1.076,0.2c0.227,0,1.02,0.468,1.247,0.803c0.227,0.336,1.926,0.602,1.926,0.602s-0.397,0.602-0.566,0.803
			c-0.17,0.202-0.567,0.336-0.906,0.604c-0.342,0.268-0.737-0.067-1.19-0.401c-0.454-0.336-1.247-0.536-1.417-0.403
			c-0.169,0.136-0.055,0.403,0.058,0.604c0.111,0.2,0.848,0.468,1.302,0.869c0.453,0.402,0.34,0.805,0.396,1.337
			c0.057,0.537-0.452-0.2-1.019-0.333c-0.567-0.133-0.622,0.534-0.622,0.534s-0.737-0.065-1.077-0.065s0,0-0.623-0.536
			c-0.623-0.534-0.509,0.336-0.849,0.067c-0.339-0.269-0.68-0.669-0.851-0.535c-0.17,0.135-0.736-0.603-1.076-0.535
			c-0.34,0.066-1.698-0.202-2.038-0.067c-0.34,0.134-0.624,0.134-0.907,0.268c-0.285,0.134-0.396-0.938-0.227-1.271
			c0.17-0.336,0.567-0.402,1.304-0.2c0.736,0.2,0.792,0,0.962-0.335c0.17-0.334,0.339-0.668,1.133-0.936
			c0.792-0.27-0.057-0.47-0.284-0.604c-0.228-0.133-0.51-0.402-0.679,0c-0.17,0.402-0.567,0.871-0.567,0.871s-0.453,0-1.076-0.067
			s-0.17-0.337,0.112-0.47c0.283-0.134,0.624-0.937,0.34-1.138c-0.281-0.201-0.397-0.334-0.906-0.201
			c-0.509,0.135-0.17-0.469-0.509-0.669c-0.34-0.201-0.228,0.136-0.228,0.401c0,0.268-0.51,0.202-0.51,0.202s-0.793-0.135-1.076,0
			c-0.283,0.134-0.794,0.4-0.623,0.603c0.17,0.2,0.735,0.2,0.905,0.802c0.17,0.603-0.735,0.738-0.905,0.803
			c-0.171,0.068-0.85,0.336-0.85,0.336s-0.679-0.199-1.246-0.199c-0.567,0-0.737,0.064-0.624,0.332
			c0.115,0.269,0.396,0.133,0.566,0.133s0.17,0.336,0.68,0.201c0.51-0.134,0.397-0.334,0.851,0.202
			c0.451,0.534,0.906,0.467,1.642,0.937c0.735,0.469-0.114,1.005-0.51,1.005s-0.396-0.402-0.624-0.805
			c-0.227-0.401-1.131,0.067-1.131,0.067s-0.738,0.47-1.133,0.47c-0.397,0-0.68-0.069-0.171-0.537
			c0.51-0.468-0.623-0.534-0.623-1.204c0-0.669-0.326,1.14-0.326,1.475c0,0.333-0.354-0.403-1.316-0.271
			c-0.962,0.134-0.793,0.537-2.039,1.472c-1.247,0.938-0.92,0.721-0.809,1.591c0.115,0.87-0.211,1.021,0.299,1.154
			c0.51,0.133,0.339,1.136,0.736,1.069c0.396-0.065,0.681-0.401,1.474,0.066c0.792,0.47,1.189,0.604,2.152,0.803
			c0.962,0.202,1.431,0.088,1.94-0.046c0.511-0.135,1.004,0.516,1.004,0.983c0,0.47,0.341,0.537,0.284,1.139
			c-0.056,0.603,0.623-0.535,0.623-0.535s0.283,1.006,0.056,1.138c-0.225,0.133,0.057,0.735,0.34,0.67
			c0.284-0.068,0.681,0.201,1.021-0.136c0.339-0.334-0.17-1.336-0.17-1.738c0-0.401-0.341-0.602-0.51-1.005
			c-0.171-0.4,0.453-0.47,0.68-0.066c0.228,0.4,0.623,0.066,1.019-0.269c0.397-0.334,0.397-0.938,0.397-0.938
			s-0.679-1.069-1.188-1.337c-0.511-0.269-0.286-0.335,0.224-0.47c0.511-0.133,0-0.334,0.114-1.069
			c0.113-0.736,0.113-1.206,0.396-1.206c0.282,0,1.301-0.2,2.154-0.133c0.849,0.068,1.245,0.803,1.812,0.871
			c0.565,0.064,1.471,0.201,1.641,0.534c0.17,0.334-1.001,0.544-0.604,1.077c0.396,0.536,0.831,0.33,1.228,0.531
			c0.397,0.198,0.849,0.065,1.36-0.738c0.511-0.803,0.736-0.87,0.905-0.736c0.17,0.135,1.248,1.606,1.53,1.942
			c0.284,0.334,0.557,1.305,0.614,1.642c0.058,0.334,1.142,0.097,1.369,0.097c0.226,0,1.076,0.735,1.188,1.139
			c0.114,0.401,0.341,0.536,1.077,0.735c0.737,0.201,0,0.937-0.17,1.338s-0.282,0.537-0.51,1.004c-0.226,0.469,0,0,0.283,0.201
			s0.396,0.469,0.85,0.336c0.454-0.135,0.68,0,0.849,0.4c0.169,0.402,0.396,0.737,0.567,1.07c0.169,0.336,0,0.869-0.227,0.536
			c-0.225-0.337-0.962-0.135-0.962-0.135s-0.341,0.401-0.454,0.2c-0.113-0.2-0.34-0.467-0.737-0.334
			c-0.396,0.134-0.792,0-1.246,0.068c-0.453,0.065-0.622-0.27-0.339-0.537c0.284-0.266,0.339-1.27,0.906-1.674
			c0.566-0.4,0.397-1.001,0-1.001c-0.397,0-0.567,0.601-0.792,0.735c-0.227,0.133-1.001-0.249-1.399,0.086
			c-0.395,0.335-1.037,0.584-0.64,0.717c0.395,0.134-0.567,0.67-0.906,0.67c-0.341,0-0.228-0.871-0.228-1.207
			c0-0.333-0.454,0.203-0.454,0.203s-0.905-0.604-1.245-0.203c-0.341,0.404-1.564,0.232-1.961,0.632
			c-0.396,0.403-0.588,1.442-0.588,1.442s0.341-0.199,1.02-0.4c0.679-0.2,0.622-0.132,1.188-0.467
			c0.567-0.336,1.134-0.469,1.53,0.133s-0.17,0.937-0.17,0.937s0.226,0.468,0.452,0.601c0.228,0.136,0.283-0.133,0.68-0.4
			c0.396-0.266,0.227,0.536,0.342,0.803c0.112,0.269,0.51,0.269,0.734-0.066c0.227-0.336,0.396-0.602,0.567-0.401
			c0.169,0.201,0.34,0.669,0.509,1.138c0.171,0.469-1.189,0.603-1.415,0.67c-0.226,0.065-1.304,0.335-1.474,0.401
			c-0.17,0.066-0.734,0.667-1.189,0.667c-0.453,0-0.396-0.802-0.453-1.27c-0.057-0.469-0.623,0.066-0.68,0.267
			c-0.056,0.201-0.566,0.136-0.961,0.201c-0.397,0.068-1.076,0.537-1.076,1.071c0,0.535,0.798,1.109,0.628,1.377
			c-0.17,0.27-1.479,0.162-1.876,0.027c-0.395-0.133-0.963,0.201-0.792,0.47c0.17,0.268,0.057,0.669-0.339,0.604
			c-0.397-0.068-0.454,0.401-0.283,0.734c0.169,0.334-0.512,1.002-0.681,0.735c-0.17-0.267-0.51-0.401-0.51,0
			c0,0.402,0.332,0.957,0.674,1.492c0.338,0.535-0.955,0.65-1.353,1.052c-0.397,0.4-1.281,1.776-1.847,2.045
			c-0.566,0.267-1.042,1.1-0.76,1.434c0.284,0.336,0.624,1.74,0.794,2.209s-0.057,1.806-0.567,1.741
			c-0.508-0.069-0.227-0.87-0.736-1.071s-0.793-1.405-0.906-2.21c-0.113-0.801-0.226-0.333-0.566-0.067
			c-0.34,0.269-0.679-0.533-0.849-0.733c-0.17-0.202-1.01,0.389-1.69,0.323c-0.68-0.067-1.029,0.077-1.029,0.277
			s-0.113,0.802-0.737,0.401c-0.622-0.401-0.737-0.401-1.359-0.401c-0.623,0-1.19-0.068-1.302,0.2
			c-0.114,0.27-0.736,0.87-1.133,1.004c-0.397,0.136-1.133,0.805-0.793,0.938c0.34,0.134,0.34,1.071,0.114,1.606
			c-0.227,0.534-0.17,1.472-0.058,2.408c0.113,0.938,0.794,1.54,1.417,2.142c0.623,0.604,0.851,0.804,1.472,0.268
			c0.624-0.535,0.849-0.201,1.02-0.133c0.17,0.066,0.622-0.336,0.453-0.938c-0.17-0.602,0.227-1.136,0.737-1.069
			c0.509,0.066,1.246-0.2,1.643-0.135c0.397,0.068,0.622,1.338,0,1.873c-0.623,0.537-0.284,1.34-0.397,1.942
			c-0.113,0.602-0.624,0.733,0,0.733c0.625,0,0.455,0.135,0.85,0.201c0.396,0.069,0.793-0.4,1.189-0.468
			c0.396-0.065,1.416,1.004,1.247,1.542c-0.17,0.534-0.341,1.469-0.284,2.339s0.284,0.938,0.397,1.205
			c0.114,0.269,0.566,0.871,1.075,0.604c0.51-0.269,1.021-0.468,1.189-0.736c0.171-0.268,1.247,0.468,1.133,0.67
			c-0.113,0.199,0.396,0.401,0.736,0.199c0.34-0.199,0.51-0.535,0.85-1.071c0.34-0.534,0.908-1.002,1.189-1.07
			c0.284-0.065,0.964-0.869,1.416-0.734c0.454,0.133-0.169,0.803-0.227,1.203c-0.056,0.401,0,1.54,0.227,1.605
			c0.227,0.067,0.115-0.802,0.396-1.405c0.284-0.601,0.849-0.938,1.134-0.938c0.282,0,0.509,1.407,0.905,1.007
			c0.397-0.402,1.189-0.337,1.359,0.064c0.17,0.402,0.34,0.603,0.34,0.603s0.284-0.267,0.284-0.603c0-0.334,0.905-0.67,1.473-0.267
			c0.566,0.399,0.34,0.534,0.623,0.603c0.282,0.066,0.567-0.871,0.736-0.938c0.169-0.067,0,1.072-0.397,1.675
			c-0.395,0.602,0.34,0.401,0.34,0.401s0,0,0.17,0.2c0.169,0.201,0.736-0.2,0.963,0.201c0.227,0.401,0.625,0.535,0.964,1.271
			c0.339,0.735,0.728,0.084,1.406-0.048c0.681-0.137,1.652,0.85,2.33,1.72c0.68,0.87,0.567,1.541,1.02,1.541
			c0.454,0,0.567,0.735,0.567,1.003c0,0.267-1.019,0.87-1.586,1.004c-0.566,0.135-0.566,0.804,0.34,0.603s0.509-0.603,1.076-0.804
			c0.566-0.201,1.133,0.268,0.624,1.071c-0.51,0.8-1.53,0.868-0.624,1.002c0.907,0.136,0.396-0.134,0.907-0.935
			c0.509-0.803,0.451-0.536,0.793-0.536c0.34,0,1.075,0.201,1.359,0.469c0.285,0.268,1.018,0.668,1.472,1.002
			c0.452,0.336,1.02,0.201,1.359,0.067c0.339-0.132,1.302,0.401,1.643,0.938c0.339,0.537,1.19,0.603,1.585,0.803
			C62.575,84.786,63.198,85.589,63.254,86.259z M32.841,46.911c0,0-1.019,0.468-1.076,0.669c-0.056,0.2-0.284,0-0.113,0.401
			c0.129,0.305,0.736,0.067,1.076-0.335c0.34-0.401,1.076-0.534,1.304-0.871c0.224-0.333,0.395-0.265,0.959-0.533
			c0.568-0.269,1.021-0.334,0.795-0.67c-0.227-0.334-1.417,0-1.586-0.133C34.032,45.305,32.841,46.911,32.841,46.911z
			 M29.555,43.632c-0.452,0.067-1.131,0.268-1.358,0.804c-0.226,0.535,0,1.538-0.057,1.938c-0.055,0.401-0.169,1.54,0.341,1.607
			c0.565,0.074,0.565-0.869,0.509-1.137c-0.055-0.27-0.055-1.405,0.171-1.606c0.225-0.201,0.509-0.803,1.133-0.871
			c0.623-0.066,1.019,0.47,0.961,1.072c-0.057,0.603,0.112,1.204,0.34,1.204s0.906-0.469,0.679-0.871
			c-0.226-0.4,0.17-1.739,0.17-1.271s0.454,0.803,0.737,0.736c0.283-0.068-0.283-1.273-0.68-1.339c-0.397-0.067-1.188-0.067-1.358,0
			C30.973,43.965,30.009,43.564,29.555,43.632z M25.762,42.829c0,0.36,0.565,0.401,0.906,0.2c0.339-0.2,0.85-0.333,1.076-0.399
			c0.227-0.068,0.114,0.333,0.623,0.333c0.51,0,1.133,0.199,1.303,0.135c0.17-0.068,0.679-0.87,0.282-0.938
			s-1.018-0.535-1.358-0.938c-0.338-0.4-1.133,0.536-1.869,0.87C25.987,42.428,25.762,42.295,25.762,42.829z M96.048,51.862
			c0.227,0.067,0.961,0,0.736-0.668c-0.227-0.669-0.736-0.669-0.907-0.669c-0.169,0-0.905-0.2-1.19,0
			c-0.207,0.146,0.34,0.602,0.624,0.733C95.596,51.395,95.821,51.797,96.048,51.862z M34.541,66.64
			c-0.52,0.11-0.397,1.305,0.226,1.087C35.389,67.509,35.049,66.53,34.541,66.64z M34.483,61.766
			c0.625-0.135,0.283-0.736-0.228-0.668C33.739,61.164,33.861,61.898,34.483,61.766z M24.893,22.643
			c-0.378-0.043-0.679-0.445-1.019-0.312c-0.34,0.135-1.512,0.713-1.398,1.026c0.044,0.121,0.34,0.354,0.833,0.267
			c0.488-0.09,1.206-0.18,1.546-0.222C25.195,23.357,25.271,22.688,24.893,22.643z M36.183,64.844
			c0.056-0.267-0.624-1.002-1.021-0.936c-0.396,0.066-1.246-0.469-1.698-0.938c-0.454-0.469-1.303-0.469-1.642-0.469
			c-0.341,0-1.7,0.469-1.7,0.469c-0.057,0.669,0.51,0.469,1.19,0.469c0.679,0,1.869-0.133,2.095,0.2
			c0.227,0.335,1.246,0.871,1.529,1.138S36.125,65.111,36.183,64.844z M92.763,49.454c0.283-0.47-0.228-1.138-0.51-1.138
			c-0.535,0-0.795,1.006-0.455,1.338C92.138,49.988,92.48,49.924,92.763,49.454z M88.513,49.454c0.115-0.268-0.17-0.804-0.564-0.067
			C87.812,49.641,88.401,49.723,88.513,49.454z M39.467,65.044c-0.454-0.134-0.961,0-1.302,0.067
			c-0.341,0.068-1.303,1.072-1.303,1.072s0.623,0.134,1.018,0.134c0.397,0,0.625,0.268,0.964,0.469
			c0.34,0.2,0.964-0.268,1.188-0.268c0.227,0,0.511,0.802,0.567-0.067C40.657,65.58,39.92,65.18,39.467,65.044z M42.016,65.902
			c-0.518,0.11-0.395,1.307,0.227,1.088C42.867,66.773,42.526,65.793,42.016,65.902z M20.739,24.874
			c0.68-0.402,0.643-0.76,0.831-0.803c0.188-0.046-0.039-1.027-0.34-1.251c-0.12-0.089-0.348-0.119-0.595-0.117
			c-0.308,0.372-0.608,0.75-0.908,1.131C19.812,24.146,20.08,25.262,20.739,24.874z M23.686,21.662
			c-0.189-0.538-1.134-0.715-1.323-0.18C22.199,21.951,23.874,22.197,23.686,21.662z M18.908,25.831
			c0.229-0.369,0.084-0.586-0.174-0.713c-0.333,0.445-0.665,0.889-0.986,1.341C18.188,26.396,18.659,26.236,18.908,25.831z
			 M30.519,31.431c-0.154,0.2,0.679,0.49,0.83,0.222C31.5,31.387,30.896,30.94,30.519,31.431z M32.709,31.833
			c-0.601,0.202-0.039,0.712,0.34,0.534C33.426,32.189,33.237,31.652,32.709,31.833z"/>
		<g>
			<path fill-rule="evenodd" clip-rule="evenodd" fill="#B8CB6B" d="M32.709,31.833c-0.601,0.202-0.039,0.712,0.34,0.534
				C33.426,32.189,33.237,31.652,32.709,31.833z"/>
			<path fill-rule="evenodd" clip-rule="evenodd" fill="#B8CB6B" d="M39.467,65.044c-0.454-0.134-0.961,0-1.302,0.067
				c-0.341,0.068-1.303,1.072-1.303,1.072s0.623,0.134,1.018,0.134c0.397,0,0.625,0.268,0.964,0.469
				c0.34,0.2,0.964-0.268,1.188-0.268c0.227,0,0.511,0.802,0.567-0.067C40.657,65.58,39.92,65.18,39.467,65.044z"/>
			<path fill-rule="evenodd" clip-rule="evenodd" fill="#B8CB6B" d="M42.016,65.902c-0.518,0.11-0.395,1.307,0.227,1.088
				C42.867,66.773,42.526,65.793,42.016,65.902z"/>
			<path fill-rule="evenodd" clip-rule="evenodd" fill="#B8CB6B" d="M30.519,31.431c-0.154,0.2,0.679,0.49,0.83,0.222
				C31.5,31.387,30.896,30.94,30.519,31.431z"/>
			<path fill-rule="evenodd" clip-rule="evenodd" fill="#B8CB6B" d="M24.855,23.402c0.34-0.045,0.416-0.715,0.038-0.76
				c-0.273-0.031-0.506-0.249-0.742-0.317c-0.364,0.433-0.722,0.87-1.069,1.315c0.071,0.002,0.145-0.002,0.227-0.017
				C23.797,23.534,24.515,23.444,24.855,23.402z"/>
			<path fill-rule="evenodd" clip-rule="evenodd" fill="#B8CB6B" d="M27.423,22.109c0,0,0.832-0.227,1.698-0.136
				c0.87,0.089,2.152,0.224,2.87,0.179c0.718-0.043,0.831-0.312,0.906-0.49c0.076-0.18-1.322-0.538-1.661-0.492
				c-0.34,0.044-2.267,0.044-2.833,0c-0.567-0.046-1.283-0.046-1.737,0c-0.413,0.041-0.732-0.288-1.043-0.516
				c-0.203,0.219-0.402,0.441-0.601,0.665c0.392,0.373,1.192,0.654,1.192,0.654L27.423,22.109z"/>
			<path fill-rule="evenodd" clip-rule="evenodd" fill="#B8CB6B" d="M104.941,56.949c-0.568,0.803-0.794,0.867-0.908,0.602
				c-0.113-0.268,1.645-1.405,1.417-1.74c-0.228-0.334-1.589-0.201-2.323-0.201c-0.735,0-1.358-0.534-1.925-0.67
				c-0.567-0.134-0.838,1.242-1.403,1.912c-0.566,0.668-1.429-0.37-1.938-0.37c-0.511,0-1.473-0.872-1.473-0.872
				s-0.963-0.468-1.36-0.468c-0.396,0-1.188-0.869-1.416-0.869c-0.225,0-0.848-0.603-0.395-0.871
				c0.453-0.267,1.416,0.318,0.965-1.153c-0.452-1.473-1.985-1.188-2.383-0.989c-0.396,0.202-3.229,0.136-3.455,0.136
				c-0.225,0-1.867,0.669-2.377,0.937c-0.512,0.268-1.416,0.603-1.643,0.736c-0.227,0.133-1.417-0.269-1.927,0.067
				c-0.673,0.442-1.301,1.138-1.471,1.138c-0.171,0-0.683,0.468-1.021,1.472c-0.34,1.005,0.057,1.872-0.566,2.209
				c-0.623,0.332-1.967,0.867-2.422,1.402c-0.452,0.536-0.807,2.611-1.374,3.481c-0.565,0.871,0,1.674,0.116,2.207
				c0.111,0.536,0.508,1.541-0.116,2.477c-0.622,0.937-0.565,1.405-0.85,1.473c-0.281,0.066,0.284,0.334,0.397,1.005
				c0.113,0.668-0.509,1.336,0.568,1.938c1.075,0.603,2.059,0.631,2.342,1.433c0.283,0.806,1.225,2.65,1.225,2.65
				s1.018,1.07,1.529,1.54c0.51,0.469,0.681,0.2,0.793-0.268c0.112-0.469,0.793-0.536,1.585-0.536c0.794,0,1.36,0.202,2.151,0.067
				c0.795-0.134,1.371-1.288,1.652-1.423c0.285-0.133,1.464-0.315,2.2,0.217c0.737,0.536,0.624,1.272,1.021,1.74
				c0.395,0.47,1.073,0.202,1.585-0.268c0.51-0.468,0.283-0.267,0.906,0.134c0.621,0.402,0.906,0.805,0.34,1.405
				c-0.566,0.604-0.227,1.539-0.566,2.477c-0.266,0.733,0.082,0.891,0.544,1.116c2.913-2.604,5.431-5.628,7.391-9.035
				c2.974-5.167,5.079-11.046,6.122-17.108C105.935,56.199,105.359,56.354,104.941,56.949z"/>
			<path fill-rule="evenodd" clip-rule="evenodd" fill="#B8CB6B" d="M68.248,23.758c-0.138-0.313-0.466-1.292,0.26-1.382
				c0.725-0.09,2.088,0.935,2.054,0.224c-0.034-0.717,0-1.476,0.206-1.876c0.209-0.401,0.657-0.67,0.416-0.804
				c-0.244-0.132-0.553,0.181-0.795-0.489c-0.241-0.67,0.207-1.16,0.482-1.429c0.277-0.266,1.726-2.006,2.521-2.273
				c0.792-0.27,1.347-1.295,0.792-1.518c-0.551-0.224-1.656-0.625-2.38,0.089c-0.727,0.715-1.14,1.383-1.967,1.159
				c-0.83-0.223-0.956-1.404-1.426-2.014c-0.684-0.883-0.268-2.626-0.991-2.49c-0.726,0.133-0.726,0.133-0.726,0.133
				s-0.85-0.179-1.375-0.045c-0.691,0.176-1.138,0.664-1.531,0.558c-0.774-0.207-1.469,0.271-1.665,0.321
				c-1.69,0.438-3.05-0.16-3.299-0.202c-0.195-0.034,1.185,0.188,2.253,0c0.821-0.146,2.202-0.476,2.881-0.609
				c0.679-0.132,0.132-0.451-0.107-0.483c-0.875-0.113-2.199-0.537-3.246-0.601c-0.823-0.049-1.353,0.247-2.174,0.271
				c-1.051,0.031-2.304-0.042-3.126,0.557c-0.724,0.527-1.654,0.583-1.729,0.68c-0.413,0.533-0.792,1.873-1.172,1.518
				c-0.379-0.357-0.449-1.25-0.931-0.893c-0.484,0.356-0.036,1.248-0.452,1.873c-0.413,0.624-1.587,0.534-1.932,0.313
				c-0.345-0.222-0.69-0.401-2.071-0.313c-1.382,0.092-2.901,0.624-2.59,1.16c0.311,0.536-0.622,0.847-0.863,0.581
				c-0.242-0.268-1.347,0.312-1.277,0.846c0.069,0.535-0.173,1.161-0.76,1.026c-0.587-0.134-1.001,0.312-1.036,0.758
				c-0.034,0.447-1.347,0.76-1.45,0.76c-0.104,0-1.796-0.044-1.175,0.49c0.416,0.357,0.657,0.135,1.175,0.267
				c0.517,0.134,0.931,1.116,1.208,1.25c0.276,0.135,0.655,0,0.829-0.267c0.172-0.267,0.413-1.206,0.413-1.206s0,0.894,0.416,1.071
				c0.414,0.179,1.449-0.132,1.726-0.088c0.276,0.043,1.899,0.312,2.348,0.578c0.448,0.269,1.552,0.448,1.863,1.027
				c0.31,0.579,0.345,2.587,0.517,2.81c0.173,0.224,0.76-0.713,0.898-0.935c0.139-0.226,0.864-0.09,1.106,0.222
				c0.241,0.311,0.792,1.071,0.758,1.384c-0.036,0.312-0.137,0.801-0.346,0.622c-0.206-0.178-0.551-0.132-0.413-0.49
				c0.138-0.356,0.205-1.114-0.07-1.114c-0.276,0-0.518,0-0.518,0s-0.518-0.18-0.863,0.49c-0.345,0.67-0.07,1.339,0.173,1.339
				c0.241,0,0.794,0,0.794,0.177c0,0.181-0.587,0.716-0.553,1.027c0.036,0.313,0.483,1.383,0.622,1.607
				c0.138,0.222,0.863,0.444,1.069,0.489c0.208,0.045-0.482,0.088-0.31,0.401c0.174,0.313,0.448,1.07,0.828,1.247
				c0.378,0.182,1.45,0.982,1.589,1.341c0.138,0.355,0.966-0.267,1.14-0.312c0.172-0.045,0.137,0.937,0.622,0.98
				c0.482,0.043,0.655-0.09,1.069-0.491c0.414-0.4,0.312-0.937,0.345-1.337c0.035-0.402,0-0.714,0.449-0.581s0.69-0.09,0.657-0.534
				c-0.035-0.447-0.415-0.982,0.31-1.117c0.726-0.133,1.104-0.714,1.555-0.714c0.448,0,1.69,0.225,1.829,0
				c0.139-0.222,0.728-1.555,1.107-1.598c0.38-0.047,1.379,0.172,2.275-0.008c0.898-0.177,1.866-0.847,2.176-0.804
				c0.31,0.045,1.069,0.045,0.829-0.222c-0.241-0.269-0.588-0.893-1.105-0.893c-0.519,0-0.604-1.375-0.468-1.375
				c0.138,0,1.398,0.526,1.365,0.974c-0.033,0.446,0.208,1.025,0.898,0.85c0.69-0.181,0.586-0.85,0.449-1.029
				C68.49,24.516,68.386,24.069,68.248,23.758z"/>
			<path fill-rule="evenodd" clip-rule="evenodd" fill="#B8CB6B" d="M62.178,84.585c-0.395-0.2-1.246-0.266-1.585-0.803
				c-0.34-0.536-1.303-1.069-1.643-0.938c-0.339,0.134-0.907,0.269-1.359-0.067c-0.455-0.334-1.188-0.734-1.472-1.002
				c-0.284-0.268-1.019-0.469-1.359-0.469c-0.342,0-0.284-0.267-0.793,0.536c-0.51,0.801,0,1.07-0.907,0.935
				c-0.907-0.134,0.113-0.202,0.624-1.002c0.51-0.804-0.058-1.272-0.624-1.071c-0.567,0.201-0.17,0.603-1.076,0.804
				s-0.906-0.468-0.34-0.603c0.567-0.134,1.586-0.737,1.586-1.004c0-0.268-0.113-1.003-0.567-1.003c-0.452,0-0.339-0.671-1.02-1.541
				c-0.678-0.87-1.649-1.856-2.33-1.72c-0.678,0.132-1.067,0.783-1.406,0.048c-0.339-0.736-0.737-0.87-0.964-1.271
				c-0.227-0.401-0.794,0-0.963-0.201c-0.17-0.2-0.17-0.2-0.17-0.2s-0.735,0.2-0.34-0.401c0.397-0.603,0.566-1.742,0.397-1.675
				c-0.169,0.067-0.454,1.005-0.736,0.938c-0.282-0.068-0.056-0.203-0.623-0.603c-0.568-0.403-1.473-0.067-1.473,0.267
				c0,0.336-0.284,0.603-0.284,0.603s-0.17-0.2-0.34-0.603c-0.169-0.401-0.961-0.467-1.359-0.064
				c-0.396,0.4-0.624-1.007-0.905-1.007c-0.285,0-0.85,0.337-1.134,0.938c-0.281,0.604-0.169,1.473-0.396,1.405
				c-0.227-0.065-0.283-1.204-0.227-1.605c0.057-0.4,0.681-1.07,0.227-1.203c-0.452-0.135-1.132,0.669-1.416,0.734
				c-0.281,0.068-0.849,0.536-1.189,1.07c-0.34,0.536-0.51,0.872-0.85,1.071c-0.34,0.202-0.849,0-0.736-0.199
				c0.114-0.202-0.962-0.938-1.133-0.67c-0.169,0.269-0.68,0.468-1.189,0.736c-0.509,0.268-0.961-0.335-1.075-0.604
				c-0.113-0.267-0.34-0.335-0.397-1.205s0.114-1.805,0.284-2.339c0.169-0.538-0.851-1.607-1.247-1.542
				c-0.396,0.067-0.793,0.537-1.189,0.468c-0.396-0.066-0.226-0.201-0.85-0.201c-0.624,0-0.113-0.132,0-0.733
				c0.113-0.603-0.226-1.405,0.397-1.942c0.622-0.535,0.397-1.805,0-1.873c-0.397-0.065-1.134,0.201-1.643,0.135
				c-0.51-0.066-0.907,0.468-0.737,1.069c0.169,0.603-0.283,1.005-0.453,0.938c-0.171-0.068-0.396-0.402-1.02,0.133
				c-0.621,0.536-0.849,0.336-1.472-0.268c-0.623-0.602-1.304-1.204-1.417-2.142c-0.112-0.937-0.169-1.874,0.058-2.408
				c0.226-0.535,0.226-1.473-0.114-1.606c-0.339-0.133,0.396-0.802,0.793-0.938c0.396-0.134,1.019-0.734,1.133-1.004
				c0.111-0.269,0.679-0.2,1.302-0.2c0.622,0,0.737,0,1.359,0.401c0.624,0.4,0.737-0.201,0.737-0.401s0.35-0.345,1.029-0.277
				c0.68,0.065,1.52-0.525,1.69-0.323c0.169,0.2,0.508,1.002,0.849,0.733c0.34-0.266,0.453-0.733,0.566,0.067
				c0.113,0.805,0.397,2.009,0.906,2.21s0.228,1.002,0.736,1.071c0.51,0.064,0.737-1.272,0.567-1.741s-0.51-1.873-0.794-2.209
				c-0.282-0.334,0.193-1.167,0.76-1.434c0.566-0.269,1.45-1.645,1.847-2.045c0.397-0.401,1.691-0.517,1.353-1.052
				c-0.342-0.535-0.674-1.09-0.674-1.492c0-0.401,0.339-0.267,0.51,0c0.169,0.267,0.85-0.401,0.681-0.735
				c-0.17-0.333-0.114-0.803,0.283-0.734c0.396,0.065,0.509-0.336,0.339-0.604c-0.17-0.269,0.397-0.603,0.792-0.47
				c0.397,0.135,1.706,0.242,1.876-0.027c0.169-0.268-0.628-0.842-0.628-1.377c0-0.534,0.679-1.003,1.076-1.071
				c0.396-0.065,0.906,0,0.961-0.201c0.057-0.2,0.624-0.735,0.68-0.267c0.056,0.468,0,1.27,0.453,1.27
				c0.455,0,1.019-0.601,1.189-0.667c0.17-0.066,1.248-0.336,1.474-0.401c0.226-0.067,1.585-0.201,1.415-0.67
				c-0.169-0.469-0.34-0.937-0.509-1.138c-0.17-0.2-0.34,0.065-0.567,0.401c-0.225,0.335-0.623,0.335-0.734,0.066
				c-0.115-0.267,0.055-1.068-0.342-0.803c-0.396,0.268-0.452,0.536-0.68,0.4c-0.227-0.133-0.452-0.601-0.452-0.601
				s0.566-0.335,0.17-0.937s-0.963-0.469-1.53-0.133c-0.566,0.335-0.509,0.267-1.188,0.467c-0.679,0.201-1.02,0.4-1.02,0.4
				s0.192-1.039,0.588-1.442c0.396-0.399,1.62-0.228,1.961-0.632c0.339-0.4,1.245,0.203,1.245,0.203s0.454-0.536,0.454-0.203
				c0,0.336-0.114,1.207,0.228,1.207c0.339,0,1.301-0.536,0.906-0.67c-0.397-0.133,0.245-0.382,0.64-0.717
				c0.397-0.335,1.172,0.047,1.399-0.086c0.226-0.135,0.395-0.735,0.792-0.735c0.397,0,0.566,0.601,0,1.001
				c-0.567,0.404-0.623,1.408-0.906,1.674c-0.283,0.268-0.113,0.603,0.339,0.537c0.454-0.068,0.851,0.065,1.246-0.068
				c0.396-0.133,0.624,0.134,0.737,0.334c0.113,0.201,0.454-0.2,0.454-0.2s0.737-0.202,0.962,0.135
				c0.227,0.333,0.396-0.2,0.227-0.536c-0.17-0.333-0.397-0.668-0.567-1.07c-0.169-0.4-0.396-0.535-0.849-0.4
				c-0.454,0.133-0.567-0.135-0.85-0.336s-0.509,0.268-0.283-0.201c0.228-0.467,0.34-0.603,0.51-1.004s0.907-1.137,0.17-1.338
				c-0.736-0.199-0.962-0.334-1.077-0.735c-0.112-0.403-0.962-1.139-1.188-1.139c-0.227,0-1.311,0.237-1.369-0.097
				c-0.057-0.337-0.33-1.308-0.614-1.642c-0.282-0.336-1.36-1.808-1.53-1.942c-0.169-0.134-0.394-0.066-0.905,0.736
				c-0.511,0.804-0.963,0.937-1.36,0.738c-0.396-0.201-0.832,0.005-1.228-0.531c-0.397-0.533,0.774-0.743,0.604-1.077
				c-0.17-0.333-1.076-0.47-1.641-0.534c-0.567-0.068-0.963-0.803-1.812-0.871c-0.853-0.067-1.872,0.133-2.154,0.133
				c-0.283,0-0.283,0.47-0.396,1.206c-0.114,0.735,0.396,0.937-0.114,1.069c-0.509,0.135-0.735,0.201-0.224,0.47
				c0.508,0.268,1.188,1.337,1.188,1.337s0,0.604-0.397,0.938c-0.396,0.335-0.791,0.669-1.019,0.269
				c-0.227-0.403-0.851-0.334-0.68,0.066c0.169,0.403,0.51,0.604,0.51,1.005c0,0.402,0.509,1.404,0.17,1.738
				c-0.34,0.337-0.736,0.067-1.021,0.136c-0.283,0.065-0.565-0.537-0.34-0.67c0.227-0.132-0.056-1.138-0.056-1.138
				s-0.679,1.138-0.623,0.535c0.057-0.602-0.284-0.669-0.284-1.139c0-0.468-0.493-1.118-1.004-0.983
				c-0.51,0.134-0.978,0.248-1.94,0.046c-0.962-0.199-1.359-0.333-2.152-0.803c-0.792-0.468-1.077-0.132-1.474-0.066
				c-0.396,0.066-0.226-0.937-0.736-1.069c-0.51-0.134-0.184-0.284-0.299-1.154c-0.111-0.87-0.438-0.652,0.809-1.591
				c1.246-0.935,1.077-1.338,2.039-1.472c0.963-0.133,1.316,0.604,1.316,0.271c0-0.335,0.326-2.144,0.326-1.475
				c0,0.67,1.133,0.736,0.623,1.204c-0.509,0.468-0.226,0.537,0.171,0.537c0.395,0,1.133-0.47,1.133-0.47s0.904-0.469,1.131-0.067
				c0.228,0.402,0.228,0.805,0.624,0.805s1.246-0.536,0.51-1.005c-0.736-0.47-1.191-0.402-1.642-0.937
				c-0.454-0.536-0.341-0.336-0.851-0.202c-0.51,0.135-0.51-0.201-0.68-0.201s-0.451,0.136-0.566-0.133
				c-0.113-0.268,0.057-0.332,0.624-0.332c0.566,0,1.246,0.199,1.246,0.199s0.679-0.268,0.85-0.336
				c0.17-0.064,1.075-0.2,0.905-0.803c-0.17-0.602-0.735-0.602-0.905-0.802c-0.171-0.202,0.339-0.469,0.623-0.603
				c0.283-0.135,1.076,0,1.076,0s0.51,0.065,0.51-0.202c0-0.266-0.112-0.603,0.228-0.401c0.339,0.2,0,0.804,0.509,0.669
				c0.508-0.133,0.625,0,0.906,0.201c0.284,0.201-0.057,1.004-0.34,1.138c-0.282,0.133-0.735,0.402-0.112,0.47
				s1.076,0.067,1.076,0.067s0.396-0.469,0.567-0.871c0.169-0.402,0.452-0.133,0.679,0c0.227,0.134,1.076,0.334,0.284,0.604
				c-0.794,0.268-0.963,0.602-1.133,0.936c-0.17,0.335-0.226,0.535-0.962,0.335c-0.736-0.202-1.133-0.136-1.304,0.2
				c-0.169,0.334-0.058,1.405,0.227,1.271c0.283-0.134,0.566-0.134,0.907-0.268c0.34-0.135,1.698,0.134,2.038,0.067
				c0.34-0.067,0.906,0.67,1.076,0.535c0.171-0.134,0.511,0.267,0.851,0.535c0.34,0.269,0.226-0.602,0.849-0.067
				c0.623,0.536,0.283,0.536,0.623,0.536s1.077,0.065,1.077,0.065s0.055-0.667,0.622-0.534c0.567,0.133,1.076,0.87,1.019,0.333
				c-0.056-0.532,0.057-0.935-0.396-1.337c-0.454-0.401-1.19-0.669-1.302-0.869c-0.113-0.201-0.228-0.469-0.058-0.604
				c0.169-0.133,0.963,0.067,1.417,0.403c0.454,0.334,0.849,0.669,1.19,0.401c0.339-0.268,0.736-0.401,0.906-0.604
				c0.169-0.201,0.566-0.803,0.566-0.803s-1.7-0.266-1.926-0.602c-0.227-0.335-1.02-0.803-1.247-0.803
				c-0.226,0-0.848,0.468-1.076-0.2c-0.227-0.67-0.227-1.472-0.453-1.54c-0.227-0.067-2.605-0.469-2.946-0.67
				c-0.338-0.2-1.698-0.668-2.208-1.003c-0.51-0.334-1.246-0.804-1.698-0.804c-0.454,0-2.323,0.269-2.662,0.201
				c-0.341-0.067-1.359,0.134-1.757,0.2c-0.396,0.068,0.512,0.939-0.339,1.141c-0.85,0.2-0.737,0.333-0.567-0.671
				s-0.566-1.272-1.302-0.871c-0.737,0.401-1.926,0.671-1.643,1.139c0.284,0.468-0.057,0.803,0.51,1.271
				c0.565,0.469,0.793,0.602,1.529,0.537c0.735-0.068,1.472,0.132,1.472,0.132s0,0.804-0.282,0.938
				c-0.285,0.135-0.736,0.135-0.851,0.535c-0.113,0.399-0.679,0.603-0.679,0.399c0-0.198,0.284-0.869-0.113-1.203
				c-0.396-0.334-0.51-0.401-0.963-0.067c-0.453,0.336-0.509,0.471-0.737-0.066c-0.225-0.536-0.906-1.005-0.906-1.005
				s-0.453-0.668-0.793-1.003c-0.339-0.335-0.961-0.266-1.019,0.067c-0.057,0.334,0.115,0.67,0.339,1.272
				c0.228,0.602,0.328,1.364-0.069,1.431c-0.396,0.067-0.327,0.51-0.723,0.643c-0.396,0.135-0.565-0.201-0.565-0.735
				c0-0.536-0.171-1.005-0.057-1.206c0.073-0.131-0.144-0.034-0.459,0.013c-0.198,0.285-0.39,0.574-0.582,0.865
				c0.132,0.303,0.06,0.67-0.262,0.797c-0.071,0.026-0.169,0.046-0.286,0.062c-3.167,5.068-5.38,10.88-6.314,17.319
				c-0.794,5.469-0.336,11.753,1.005,17.537c0.238,0.271,0.442,0.547,0.442,0.547s0.453,0.871,0.283,1.138
				c-0.171,0.266,0.227,1.27,0.623,1.539c0.397,0.268,2.124,0.273,2.21,1.272c0.022,0.26,0.307,1.54,0.929,1.54
				c0.624,0,1.449-0.336,1.619-0.136c0.169,0.201,0.68,1.004,1.02,0.534c0.339-0.469,0.396-0.669,0.906-0.669
				c0.509,0,0.736,0.468,1.019,0.803c0.283,0.336,1.076,1.206,1.473,1.14c0.397-0.067,0.906,0.535,1.189,0.334
				c0.284-0.2,0.737,0.133,0.962,0.269c0.228,0.133,0.703,0.63,0.646,1.431c-0.057,0.803,0.769,0.978,1.109,1.179
				c0.34,0.2,0.793,0.668,1.077,1.003c0.284,0.335,0.907,0.401,1.077,0.603c0.169,0.2,0.283,0.603,0.792,0.27
				c0.509-0.337,0.397-0.939,0.397-0.939s0.566-0.133,0.849,0.136c0.286,0.267,0.454,1.137,0.624,1.27
				c0.17,0.135,0.51,1.139,0.283,1.873c-0.227,0.736-0.17,1.475-0.397,1.475c-0.224,0-0.849,0.701-1.189,0.902
				c-0.34,0.199-0.906,1.305-0.848,1.64c0.055,0.335,0.251,1.394,0.138,1.863c-0.113,0.469-0.534,0.945-0.365,1.683
				c0.002,0.012,0.007,0.021,0.011,0.033c3.401,1.873,7.091,3.386,10.854,4.721c5.69,2.02,11.639,3.273,17.623,3.528
				c0.003-0.046,0.004-0.085,0-0.117c-0.057-0.401-0.567-1.339,0.282-2.143c0.853-0.803,1.759-2.008,1.813-2.341
				c0.057-0.336,0.736-1.742,0.679-2.409C63.198,85.589,62.575,84.786,62.178,84.585z M34.201,45.439
				c0.169,0.133,1.359-0.201,1.586,0.133c0.226,0.336-0.227,0.401-0.795,0.67c-0.565,0.269-0.736,0.2-0.959,0.533
				c-0.228,0.337-0.964,0.47-1.304,0.871c-0.34,0.402-0.947,0.64-1.076,0.335c-0.171-0.401,0.057-0.201,0.113-0.401
				c0.057-0.201,1.076-0.669,1.076-0.669S34.032,45.305,34.201,45.439z M31.143,43.899c0.169-0.067,0.961-0.067,1.358,0
				c0.397,0.065,0.963,1.271,0.68,1.339c-0.283,0.066-0.737-0.268-0.737-0.736s-0.396,0.87-0.17,1.271
				c0.227,0.402-0.452,0.871-0.679,0.871s-0.397-0.602-0.34-1.204c0.058-0.603-0.339-1.139-0.961-1.072
				c-0.624,0.068-0.908,0.67-1.133,0.871c-0.227,0.201-0.227,1.337-0.171,1.606c0.057,0.268,0.057,1.211-0.509,1.137
				c-0.51-0.067-0.396-1.206-0.341-1.607c0.057-0.4-0.169-1.403,0.057-1.938c0.228-0.536,0.906-0.736,1.358-0.804
				C30.009,43.564,30.973,43.965,31.143,43.899z M26.724,42.093c0.736-0.334,1.531-1.271,1.869-0.87
				c0.341,0.402,0.962,0.87,1.358,0.938s-0.112,0.869-0.282,0.938c-0.17,0.064-0.793-0.135-1.303-0.135
				c-0.509,0-0.396-0.401-0.623-0.333c-0.227,0.066-0.737,0.199-1.076,0.399c-0.34,0.201-0.906,0.16-0.906-0.2
				C25.762,42.295,25.987,42.428,26.724,42.093z"/>
			<path fill-rule="evenodd" clip-rule="evenodd" fill="#B8CB6B" d="M96.048,51.862c0.227,0.067,0.961,0,0.736-0.668
				c-0.227-0.669-0.736-0.669-0.907-0.669c-0.169,0-0.905-0.2-1.19,0c-0.207,0.146,0.34,0.602,0.624,0.733
				C95.596,51.395,95.821,51.797,96.048,51.862z"/>
			<path fill-rule="evenodd" clip-rule="evenodd" fill="#B8CB6B" d="M88.513,49.454c0.115-0.268-0.17-0.804-0.564-0.067
				C87.812,49.641,88.401,49.723,88.513,49.454z"/>
			<path fill-rule="evenodd" clip-rule="evenodd" fill="#B8CB6B" d="M92.763,49.454c0.283-0.47-0.228-1.138-0.51-1.138
				c-0.535,0-0.795,1.006-0.455,1.338C92.138,49.988,92.48,49.924,92.763,49.454z"/>
			<path fill-rule="evenodd" clip-rule="evenodd" fill="#B8CB6B" d="M79.623,39.349c-0.339,0.201,0.056,1.004,0.509,1.07
				c0.454,0.069,0.965-0.332,1.359-0.533c0.397-0.2,0.964-0.602,0.964-1.205c0-0.603-0.113-1.138-0.34-1.405
				c-0.227-0.269-0.624-0.335-0.964-0.269c-0.513,0.102-0.565,0.737-0.907,0.737c-0.338,0-0.735,0.134-0.621,0.602
				C79.735,38.814,79.962,39.148,79.623,39.349z"/>
			<path fill-rule="evenodd" clip-rule="evenodd" fill="#B8CB6B" d="M82.907,37.543c0.566,0.269,1.757,0.535,1.304,0.803
				s-1.765,1.585-1.877,1.986c-0.113,0.401,1.48,0.222,1.48,0.222s-0.341,0.47-0.057,0.603c0.281,0.135,0.453-0.469,0.906-0.469
				c0.452,0,1.357,0.336,1.812,0.336c0.453,0,1.188-0.737,1.133-1.206c-0.057-0.469-0.623-1.204-1.133-1.472
				s-1.076-1.473-1.416-1.739c-0.34-0.269,1.259-1.155,0.861-1.622c-0.396-0.469-1.598-0.185-2.052-0.52
				c-0.452-0.336-0.848,0.068-1.133,0.468c-0.282,0.402-0.622-0.067-0.962,0.068c-0.457,0.18-0.284,0.867-0.057,1.203
				C81.945,36.537,82.341,37.275,82.907,37.543z"/>
			<path fill-rule="evenodd" clip-rule="evenodd" fill="#B8CB6B" d="M100.691,32.322c0.283,0.402,0.398,1.339,0.906,1.206
				c0.51-0.135,1.134-0.604,1.697-0.536c0.402,0.048,1.09-0.007,1.516-0.043c-0.457-1.276-0.983-2.528-1.575-3.75
				c-0.339,0.429-1.517,1.211-2.204,1.585C100.293,31.187,100.407,31.921,100.691,32.322z"/>
			<path fill-rule="evenodd" clip-rule="evenodd" fill="#B8CB6B" d="M76.042,29.068c-0.302-0.313-1.018-0.538-1.358-0.584
				c-0.34-0.043-0.681,0.313-1.435,0.313c-0.755,0-1.245,0.358-1.548,0c-0.303-0.356-1.55-0.534-1.662-0.313
				c-0.151,0.301-0.452,0.313-0.151,0.94c0.302,0.622,0.53,0.979,0.794,0.937c0.264-0.046,1.17-0.092,1.285,0.268
				c0.111,0.356,0.413,0.669,1.055,0.444c0.644-0.224,1.17-0.355,1.322-0.624c0.15-0.268,1.171-0.311,1.171-0.311
				S76.345,29.379,76.042,29.068z"/>
			<path fill-rule="evenodd" clip-rule="evenodd" fill="#B8CB6B" d="M34.541,66.64c-0.52,0.11-0.397,1.305,0.226,1.087
				C35.389,67.509,35.049,66.53,34.541,66.64z"/>
			<path fill-rule="evenodd" clip-rule="evenodd" fill="#B8CB6B" d="M106.072,48.316c-0.453,0-1.019,0.668-1.131,0.402
				c0,0,0.339-1.206,0-1.34c-0.341-0.134,0.112-0.937,0.451-1.204c0.34-0.267,0.736-0.937,1.076-1.606
				c0.188-0.37,0.411-0.553,0.621-0.634c-0.254-3.366-0.873-6.684-1.898-9.861c-0.376,0.025-0.846,0.011-1.498,0.056
				c-0.962,0.068-2.039,0.068-2.039,0.269c0,0.201,1.303,0.668,0.85,1.005c-0.452,0.332-0.906-0.067-1.473-0.136
				c-0.566-0.065-0.906,0.869-1.076,1.405s0.283,1.473-0.565,1.14c-0.851-0.337-1.474-0.337-1.698-0.201
				c-0.228,0.134-0.643-0.118-1.208,0.082c-0.567,0.201-0.605,0.186-1.343,0.186c-0.735,0-0.735,0-0.735,0l-0.454,0.066
				c0,0-0.451-0.334-0.51-0.869c-0.055-0.538,0.229-1.139-0.055-1.271c-0.284-0.136-1.303,0.064-1.473,0.468
				c-0.17,0.4-0.342,1.139-0.115,1.473c0.229,0.334,0.908,1.003,0.285,0.803c-0.625-0.201-1.416-0.268-1.87,0.134
				c-0.452,0.403-1.245,1.271-1.245,1.271s-1.416,0.136-1.416,0.537s0,0.936-0.51,1.004c-0.51,0.066-1.19,0.267-1.869,0.4
				c-0.68,0.134-0.623,0.468-1.416,0.535c-0.795,0.068-0.905,0.469-0.17,0.602c0.736,0.133,1.867,0.67,1.925,1.271
				c0.058,0.604-0.058,1.271-0.339,1.874c-0.194,0.413-1.359,0.135-2.04,0.135c-0.679,0-2.037-0.268-2.604,0
				c-0.566,0.266-0.453,1.604-0.285,2.208c0.17,0.603-0.057,0.937-0.281,1.137c-0.228,0.2-0.284,0.803,0,1.071
				c0.281,0.267,0.509,0.868,0.736,0.937c0.228,0.065,0.962-0.201,1.246,0.135c0.281,0.334,0.566,1.137,0.736,0.936
				c0.171-0.2,0.395-1.07,0.68-0.87c0.285,0.201,0.963-0.065,1.473-0.135c0.509-0.065,0.791-0.735,1.303-1.069
				c0.509-0.333,0.227-0.333,0.056-0.734s0.511-0.872,0.907-1.34c0.396-0.469,1.132-0.066,1.302-0.603
				c0.169-0.534,0.228-1.471,0.679-1.406c0.454,0.068,1.079,0.401,1.474,0.401c0.397,0,1.245-0.734,1.474-0.868
				c0.227-0.135,1.075-0.066,1.189,0.535c0.113,0.602,1.074,1.338,1.302,1.472c0.227,0.135,1.7,0.67,1.926,0.869
				c0.227,0.202,0.565,0.803,0.681,1.341c0.111,0.533,0.789,1.173,0.848,0.703c0.055-0.467-0.565-1.977-0.17-1.908
				c0.397,0.066,0.852-0.136,0.852-0.136s-1.078-0.869-1.475-1.07c-0.395-0.199-1.131-0.601-1.471-1.271s-1.19-0.803-1.135-1.474
				c0.057-0.668,0.851-0.266,1.304,0.27c0.452,0.534,1.586,1.272,1.982,1.737c0.397,0.47,1.02,0.672,1.188,1.272
				c0.17,0.603,0.68,1.273,0.85,1.539c0.17,0.269,0.273,2.399,0.443,2.733c0.17,0.335,1.201-0.725,1.483-0.994
				c0.282-0.267,0.792-0.399,0.849-0.937c0.058-0.534-0.679-0.937-0.905-1.137c-0.226-0.2,0.565-0.4,0.849-0.67
				c0.284-0.266,0.793-0.734,1.018-0.334c0.227,0.401,0.116,2.008,0.227,2.277c0.116,0.267,1.25,0.666,1.476,1.002
				c0.226,0.334,1.188,0.469,1.358,0.268c0.051-0.059,0.168-0.068,0.309-0.055c0.118-1.266,0.189-2.532,0.213-3.799
				C106.817,48.387,106.343,48.316,106.072,48.316z"/>
			<path fill-rule="evenodd" clip-rule="evenodd" fill="#B8CB6B" d="M34.483,61.766c0.625-0.135,0.283-0.736-0.228-0.668
				C33.739,61.164,33.861,61.898,34.483,61.766z"/>
			<path fill-rule="evenodd" clip-rule="evenodd" fill="#B8CB6B" d="M90.159,33.729c-0.116,0.199,0.224,1.204,0.849,1.473
				c0.622,0.267,1.699,0.201,1.756-0.2c0.057-0.402,0.906-1.272,0.963-0.669c0.055,0.601,0.621,1.536,0.51,1.939
				c-0.115,0.4,0,0.804,0.395,0.735c0.396-0.066,2.494-0.602,2.494-0.602s0.678-0.336,0.566-0.871
				c-0.115-0.533,0.736-1.271,0.906-1.472c0.169-0.2,0.792-1.004,0.057-1.271c-0.738-0.269-1.305-0.337-0.512-1.14
				c0.795-0.803,1.304,0,2.322-1.203c1.021-1.204-0.227-1.54,0.852-1.607c0.676-0.04,1.373-0.082,1.741-0.009
				c-0.508-1.019-1.061-2.019-1.668-2.991c-0.298-0.475-0.606-0.941-0.923-1.401c-1.666,0.756-3.691,1.918-3.853,2.061
				c-0.227,0.2-0.565,1.005-1.303,1.675c-0.737,0.666-2.017,1.33-3.094,1.597s-2.397,2.216-2.397,2.482
				C89.82,32.523,90.271,33.528,90.159,33.729z"/>
			<path fill-rule="evenodd" clip-rule="evenodd" fill="#B8CB6B" d="M36.183,64.844c0.056-0.267-0.624-1.002-1.021-0.936
				c-0.396,0.066-1.246-0.469-1.698-0.938c-0.454-0.469-1.303-0.469-1.642-0.469c-0.341,0-1.7,0.469-1.7,0.469
				c-0.057,0.669,0.51,0.469,1.19,0.469c0.679,0,1.869-0.133,2.095,0.2c0.227,0.335,1.246,0.871,1.529,1.138
				S36.125,65.111,36.183,64.844z"/>
		</g>
		<g>
			<g>
				<g>
					<path fill="#6C7E3C" d="M19.075,20.431c-0.155-0.003-0.315-0.005-0.479-0.009c-0.294,0.305-0.584,0.616-0.872,0.928
						c0.09-0.001,0.313-0.046,0.565-0.074C18.548,20.991,18.811,20.71,19.075,20.431z"/>
				</g>
				<g>
					<path fill="#6C7E3C" d="M20.048,19.427c-0.011-0.111-0.045-0.24-0.098-0.37c-0.206,0.203-0.412,0.406-0.616,0.611
						c0.157,0.034,0.284,0.055,0.415,0.066C19.849,19.632,19.947,19.529,20.048,19.427z"/>
				</g>
				<g>
					<path fill="#6C7E3C" d="M17.04,22.286c0.197-0.058,0.33-0.439,0.461-0.696c-0.211,0.229-0.419,0.463-0.627,0.696
						C16.922,22.301,16.978,22.304,17.04,22.286z"/>
				</g>
				<g>
					<path fill="#6C7E3C" d="M16.823,22.935c-0.001-0.016-0.004-0.031-0.011-0.047c-0.047-0.113-0.177-0.143-0.35-0.139
						C11.439,28.488,7.385,35.096,4.558,42.32c0.128,0.327,0.09,0.854-0.148,0.91c-0.063,0.016-0.12-0.014-0.171-0.068
						c-0.286,0.76-0.56,1.527-0.818,2.301c-0.051,0.757-0.158,1.962-0.199,2.519c-0.016,0.208,0.017,0.461,0.08,0.728
						C5.842,39.066,10.529,30.295,16.823,22.935z"/>
				</g>
				<g>
					<path fill="#6C7E3C" d="M133.101,64.235c-0.479-13.888-5.211-26.694-12.936-37.159c-0.094,0.037-0.203,0.069-0.331,0.095
						c-0.058,0.012-0.108,0.015-0.163,0.021c7.127,9.879,11.566,21.824,12.244,34.767c0.395,0.08,0.877,0.166,0.831,0.878
						C132.71,63.415,132.873,63.933,133.101,64.235z"/>
				</g>
			</g>
		</g>
		<path fill-rule="evenodd" clip-rule="evenodd" fill="#DDDBCD" d="M87.027,3.206c-0.007,0.022-0.012,0.047-0.02,0.07
			c-0.213,0.651-14.031,1.81-14.965,0.812c-0.375,0.689-0.999,1.083-1.791,1.12c-0.775,0.035-1.543-0.194-2.319-0.171
			c-1.037,0.031-2.024,0.51-3.061,0.517c-1.083,0.007-1.903-0.686-2.071-1.727c-3.359,1.462-6.665-0.244-10.039,1.277
			c-0.868-1.1-1.787-0.694-2.892-0.129c-2.725,1.395-6.094,1.401-8.859,0.111C48.882,1.812,57.516,0,66.574,0
			C73.71,0,80.583,1.127,87.027,3.206z M84.367,129.316c-0.502-1.289-1.848-1.753-3.162-1.541c-1.295,0.208-2.514,0.868-3.826,0.874
			c-1.311,0.005-2.788-1.114-2.414-2.37c-2.977,1.492-6.615,2.974-9.463,1.245c-0.271,0.751-0.541,1.503-0.812,2.255
			c-1.966-1.8-4.901-2.467-7.453-1.696c-0.712-0.309-1.424-0.62-2.136-0.931c-0.332,0.666-0.664,1.332-0.996,1.998
			c-0.834-0.223-1.565-0.801-1.976-1.561c-1.083,0.709-1.757,2.002-1.72,3.296c-1.822-0.812-3.706-1.21-5.62-1.391
			c6.826,2.364,14.154,3.65,21.785,3.65c8.301,0,16.244-1.523,23.573-4.3C88.004,128.257,85.598,127.951,84.367,129.316z"/>
		<g>
			<g>
				<g>
					<path fill="#ECEAE4" d="M64.871,5.555c1.037-0.007,2.024-0.485,3.061-0.517c0.776-0.023,1.544,0.206,2.319,0.171
						c0.792-0.037,1.416-0.431,1.791-1.12c0.697,0.745,8.588,0.286,12.622-0.264c-13.514-4.407-28.646-3.7-41.696,1.933
						c2.301,0.541,4.793,0.297,6.901-0.781c1.105-0.565,2.024-0.971,2.892,0.129C56.135,3.584,59.441,5.29,62.8,3.828
						C62.968,4.869,63.789,5.562,64.871,5.555z"/>
				</g>
				<g>
					<path fill="#C4C4C4" d="M81.205,127.775c-1.295,0.208-2.514,0.868-3.826,0.874c-1.311,0.005-2.788-1.114-2.414-2.37
						c-2.977,1.492-6.615,2.974-9.463,1.245c-0.271,0.751-0.541,1.503-0.812,2.255c-1.966-1.8-4.901-2.467-7.453-1.696
						c-0.712-0.309-1.424-0.62-2.136-0.931c-0.332,0.666-0.664,1.332-0.996,1.998c-0.834-0.223-1.565-0.801-1.976-1.561
						c-0.525,0.344-0.951,0.826-1.25,1.377c5.029,1.239,10.284,1.9,15.695,1.9c5.992,0,11.795-0.811,17.309-2.318
						C83.232,127.85,82.21,127.613,81.205,127.775z"/>
				</g>
			</g>
		</g>
	</g>
</g>
</svg>
