<?xml version="1.0" encoding="utf-8"?>
<!-- Generator: Adobe Illustrator 16.0.0, SVG Export Plug-In . SVG Version: 6.00 Build 0)  -->
<!DOCTYPE svg PUBLIC "-//W3C//DTD SVG 1.1//EN" "http://www.w3.org/Graphics/SVG/1.1/DTD/svg11.dtd">
<svg version="1.1" id="Capa_1" xmlns="http://www.w3.org/2000/svg" xmlns:xlink="http://www.w3.org/1999/xlink" x="0px" y="0px"
	 width="157.873px" height="110.944px" viewBox="0 0 157.873 110.944" enable-background="new 0 0 157.873 110.944"
	 xml:space="preserve">
<g>
	<path fill="#303032" d="M154.188,82.816c0.192-0.164,0.367-0.342,0.525-0.535c0.705-0.852,1.409-1.703,2.112-2.555
		c-0.159,0.193-0.336,0.373-0.529,0.539c-0.191,0.166-0.401,0.316-0.626,0.451s-0.465,0.254-0.72,0.355
		c-0.255,0.1-0.524,0.182-0.808,0.244L31.677,108.283c-0.94,0.209-1.892,0.225-2.805,0.078c-0.913-0.148-1.789-0.459-2.578-0.908
		c-0.79-0.449-1.494-1.033-2.065-1.73c-0.569-0.695-1.006-1.498-1.264-2.387L-0.01,24.096c-0.054-0.18-0.095-0.359-0.126-0.536
		c-0.031-0.179-0.052-0.355-0.062-0.53c-0.011-0.177-0.013-0.35-0.004-0.521c0.008-0.173,0.026-0.342,0.054-0.511
		c-0.172,1.065-0.345,2.132-0.517,3.198c-0.026,0.166-0.045,0.336-0.053,0.507c-0.009,0.171-0.008,0.344,0.004,0.518
		c0.01,0.174,0.03,0.351,0.062,0.526c0.031,0.177,0.072,0.354,0.124,0.533l22.677,78.595c0.253,0.881,0.685,1.678,1.249,2.365
		c0.563,0.689,1.259,1.27,2.04,1.713c0.781,0.445,1.646,0.752,2.551,0.896c0.903,0.145,1.843,0.127,2.773-0.08l121.29-26.906
		c0.28-0.062,0.548-0.145,0.802-0.244c0.252-0.1,0.489-0.219,0.714-0.354C153.789,83.133,153.997,82.982,154.188,82.816z"/>
	<path fill="#70717D" d="M31.463,108.564l121.29-26.906c0.188-0.043,0.369-0.096,0.547-0.156L31.677,108.283
		c-0.94,0.209-1.892,0.225-2.805,0.078c-0.913-0.148-1.789-0.459-2.578-0.908c-0.79-0.449-1.494-1.033-2.065-1.73
		c-0.569-0.695-1.006-1.498-1.264-2.387L0,24.134c0.013,0.136,0.024,0.271,0.049,0.407c0.031,0.177,0.071,0.354,0.123,0.532
		l22.677,78.596c0.255,0.881,0.687,1.676,1.249,2.365c0.564,0.689,1.26,1.27,2.041,1.713c0.78,0.443,1.646,0.752,2.55,0.896
		S30.532,108.771,31.463,108.564z"/>
	
		<linearGradient id="SVGID_1_" gradientUnits="userSpaceOnUse" x1="-2207.3105" y1="-563.4697" x2="-2126.4451" y2="-367.8493" gradientTransform="matrix(0.4824 0.876 -0.876 0.4824 709.3138 2181.1934)">
		<stop  offset="0" style="stop-color:#4B4C53"/>
		<stop  offset="1" style="stop-color:#37373B"/>
	</linearGradient>
	<path fill="url(#SVGID_1_)" d="M156.156,80.383c0.554-0.438,0.984-0.988,1.276-1.617c0.291-0.627,0.443-1.328,0.44-2.07
		c-0.004-0.738-0.162-1.518-0.493-2.299L127.623,4.158c-0.288-0.681-0.712-1.304-1.231-1.851c-0.52-0.545-1.135-1.014-1.807-1.384
		c-0.671-0.368-1.399-0.639-2.145-0.788c-0.746-0.15-1.51-0.18-2.251-0.067L4.793,17.629c-0.88,0.134-1.674,0.414-2.357,0.806
		c-0.685,0.393-1.257,0.897-1.693,1.481c-0.436,0.584-0.734,1.248-0.869,1.955c-0.135,0.708-0.104,1.462,0.117,2.225l22.975,79.24
		c0.258,0.889,0.694,1.691,1.264,2.387c0.571,0.697,1.275,1.281,2.065,1.73c0.789,0.449,1.665,0.76,2.578,0.908
		c0.913,0.146,1.864,0.131,2.805-0.078l122.467-26.967C154.925,81.145,155.602,80.82,156.156,80.383z"/>
	
		<linearGradient id="SVGID_2_" gradientUnits="userSpaceOnUse" x1="-2227.0566" y1="-474.7471" x2="-2113.459" y2="-474.7471" gradientTransform="matrix(0.4824 0.876 -0.876 0.4824 709.3138 2181.1934)">
		<stop  offset="0" style="stop-color:#F5F6FE"/>
		<stop  offset="0.4157" style="stop-color:#EFF2FC"/>
		<stop  offset="0.9789" style="stop-color:#DEE6F5"/>
		<stop  offset="1" style="stop-color:#DDE6F5"/>
	</linearGradient>
	<polygon fill="url(#SVGID_2_)" points="120.402,4.985 13.978,21.584 37.997,100.486 150.083,76.322 	"/>
	<polygon fill="#CFD7EA" points="119.388,6.294 148.652,76.631 150.083,76.322 120.402,4.985 13.978,21.584 14.312,22.684 	"/>
	<path fill="#303032" d="M136.709,38.213c-0.062,0.121-0.097,0.256-0.1,0.398c-0.003,0.145,0.025,0.295,0.09,0.449
		c0.063,0.152,0.157,0.293,0.271,0.414c0.115,0.123,0.249,0.227,0.396,0.307c0.146,0.082,0.307,0.141,0.468,0.172
		c0.161,0.029,0.325,0.033,0.484,0.004c0.161-0.029,0.301-0.09,0.415-0.172S138.938,39.6,139,39.48
		c0.062-0.121,0.097-0.256,0.1-0.398c0.002-0.143-0.026-0.295-0.091-0.447c-0.064-0.154-0.157-0.293-0.272-0.414
		c-0.113-0.121-0.247-0.227-0.395-0.307c-0.146-0.08-0.305-0.139-0.467-0.17c-0.161-0.029-0.327-0.033-0.486-0.004
		s-0.297,0.088-0.411,0.17C136.862,37.99,136.771,38.094,136.709,38.213z"/>
	
		<linearGradient id="SVGID_3_" gradientUnits="userSpaceOnUse" x1="-2152.71" y1="-532.8232" x2="-2151.6548" y2="-532.8232" gradientTransform="matrix(0.4824 0.876 -0.876 0.4824 709.3138 2181.1934)">
		<stop  offset="0" style="stop-color:#7396EE"/>
		<stop  offset="1" style="stop-color:#BAFCFF"/>
	</linearGradient>
	<path fill="url(#SVGID_3_)" d="M137.371,38.58c-0.026,0.051-0.041,0.107-0.042,0.168s0.011,0.125,0.037,0.189
		c0.027,0.064,0.067,0.123,0.115,0.176c0.048,0.051,0.105,0.094,0.166,0.129c0.062,0.035,0.13,0.059,0.198,0.072
		c0.067,0.012,0.137,0.014,0.204,0.002c0.067-0.014,0.127-0.039,0.175-0.072c0.049-0.035,0.086-0.08,0.113-0.129
		c0.026-0.051,0.04-0.109,0.041-0.17c0.001-0.059-0.011-0.123-0.038-0.188s-0.066-0.123-0.114-0.174s-0.104-0.096-0.167-0.129
		c-0.062-0.035-0.128-0.059-0.196-0.072s-0.138-0.014-0.206-0.002c-0.066,0.012-0.125,0.037-0.174,0.072
		C137.436,38.486,137.397,38.531,137.371,38.58z"/>
	<path fill="#70717D" d="M23.109,63.574c0.201-0.301,0.335-0.639,0.39-0.996c0.055-0.359,0.03-0.736-0.085-1.113l-0.78-2.586
		c-0.114-0.377-0.308-0.721-0.559-1.018c-0.251-0.299-0.562-0.551-0.911-0.746c-0.349-0.197-0.735-0.336-1.141-0.408
		s-0.828-0.074-1.249,0.002l-2.877,0.521c-0.423,0.078-0.803,0.227-1.129,0.432c-0.325,0.203-0.597,0.465-0.801,0.762
		c-0.206,0.299-0.344,0.635-0.402,0.99c-0.059,0.357-0.039,0.734,0.072,1.115l0.764,2.605c0.112,0.383,0.305,0.73,0.559,1.033
		c0.252,0.303,0.565,0.559,0.918,0.758s0.745,0.34,1.155,0.412c0.41,0.07,0.838,0.074,1.264-0.006l2.894-0.543
		c0.424-0.08,0.804-0.232,1.127-0.441C22.641,64.141,22.909,63.877,23.109,63.574z"/>
	<path fill="#323236" d="M23.265,63.398c0.201-0.301,0.335-0.639,0.39-0.996s0.03-0.734-0.085-1.113l-0.78-2.586
		c-0.114-0.377-0.308-0.719-0.559-1.018c-0.252-0.297-0.562-0.551-0.911-0.746s-0.735-0.336-1.141-0.408
		c-0.405-0.07-0.828-0.074-1.249,0.002l-2.877,0.521c-0.423,0.078-0.804,0.227-1.129,0.432c-0.326,0.205-0.597,0.465-0.802,0.764
		c-0.205,0.297-0.343,0.635-0.401,0.99c-0.06,0.355-0.039,0.732,0.072,1.113l0.763,2.607c0.112,0.381,0.306,0.729,0.559,1.031
		s0.565,0.559,0.919,0.758c0.353,0.199,0.744,0.342,1.154,0.412c0.411,0.072,0.839,0.074,1.265-0.006l2.893-0.543
		c0.425-0.078,0.804-0.23,1.128-0.439C22.796,63.965,23.064,63.701,23.265,63.398z"/>
	<g>
		<path fill="#242426" d="M15.656,61.807c-0.388-0.705-0.449-1.473-0.174-2.162c0.293-0.736,0.924-1.291,1.776-1.562
			c1.675-0.533,3.695,0.23,4.506,1.701c0.388,0.703,0.449,1.471,0.174,2.16c-0.294,0.736-0.925,1.291-1.777,1.562
			C18.487,64.039,16.467,63.277,15.656,61.807z M21.434,59.965c-0.728-1.32-2.549-2.004-4.06-1.523
			c-0.743,0.236-1.29,0.713-1.542,1.342c-0.231,0.584-0.177,1.238,0.155,1.84c0.727,1.322,2.549,2.004,4.06,1.523
			c0.743-0.236,1.291-0.713,1.541-1.342C21.82,61.221,21.766,60.568,21.434,59.965z"/>
	</g>
	<path opacity="0.2" fill="#FFFFFF" d="M70.957,99.635l83.187-18.318c0.781-0.172,1.458-0.496,2.013-0.934
		c0.554-0.438,0.984-0.988,1.276-1.617c0.291-0.627,0.443-1.328,0.44-2.07c-0.004-0.738-0.162-1.518-0.493-2.299L127.623,4.158
		c-0.288-0.681-0.712-1.304-1.231-1.851c-0.52-0.545-1.135-1.014-1.807-1.384c-0.671-0.368-1.399-0.639-2.145-0.788
		c-0.746-0.15-1.51-0.18-2.251-0.067l-19.345,2.944L70.957,99.635z"/>
</g>
</svg>
