<?xml version="1.0" encoding="utf-8"?>
<!-- Generator: Adobe Illustrator 16.0.0, SVG Export Plug-In . SVG Version: 6.00 Build 0)  -->
<!DOCTYPE svg PUBLIC "-//W3C//DTD SVG 1.1//EN" "http://www.w3.org/Graphics/SVG/1.1/DTD/svg11.dtd">
<svg version="1.1" id="Capa_1" xmlns="http://www.w3.org/2000/svg" xmlns:xlink="http://www.w3.org/1999/xlink" x="0px" y="0px"
	 width="360.936px" height="227.008px" viewBox="0 0 360.936 227.008" enable-background="new 0 0 360.936 227.008"
	 xml:space="preserve">
<g id="_x35_9jfWO.tif_2_">
	<g>
		<path fill-rule="evenodd" clip-rule="evenodd" d="M49.431,159.359c0.009,1.918-0.071,3.838-0.223,5.746
			c-0.034,0.426-0.465,1.039-0.842,1.158c-0.36,0.115-1.011-0.186-1.32-0.506c-0.832-0.867-1.552-1.84-2.311-2.775
			c-2.706-3.34-5.419-6.674-8.104-10.029c-0.494-0.617-1.075-0.928-1.839-0.852c-0.899,0.088-1.806,0.164-2.685,0.352
			c-2.112,0.455-4.206,0.996-6.318,1.455c-1.867,0.406-2.61,0.025-3.433-1.66c-0.168-0.342-0.279-0.713-0.424-1.066
			c-0.916-2.221-1.684-4.52-2.781-6.648c-2.747-5.328-5.65-10.574-8.479-15.857C8.704,125,7.01,121.203,5.812,117.203
			c-0.288-0.961-0.555-1.955-0.636-2.949c-0.088-1.061,0.682-1.486,1.627-0.992c0.994,0.518,1.959,1.096,2.945,1.633
			c7.31,3.977,14.593,8.004,21.942,11.908c6.481,3.439,13.008,6.797,19.568,10.08c5.528,2.768,11.15,5.344,16.698,8.07
			c1.612,0.793,3.125,1.795,4.65,2.75c0.24,0.15,0.486,0.631,0.411,0.852c-0.08,0.238-0.514,0.416-0.827,0.504
			c-0.415,0.117-0.86,0.141-1.296,0.17c-6.069,0.408-12.138,0.822-18.208,1.203c-1.169,0.074-2.344,0.012-3.454,0.012
			C49.308,153.555,49.417,156.457,49.431,159.359z M15.3,120.721c0.763,0.832,1.833,2.061,2.971,3.225
			c1.781,1.818,3.539,3.672,5.433,5.367c2.24,2.008,4.518,3.996,6.952,5.754c4.016,2.9,8.192,5.576,12.251,8.42
			c1.248,0.875,2.419,1.902,3.46,3.018c1.301,1.391,2.82,1.852,4.652,1.74c3.145-0.193,6.294-0.314,9.442-0.469
			c2.404-0.117,4.809-0.24,7.213-0.359C49.773,138.959,32.131,130.045,15.3,120.721z M9.233,122.227
			c2.486,4.564,5.078,9.07,7.624,13.602c2.266,4.031,4.548,8.053,6.772,12.105c0.562,1.023,0.939,2.148,1.334,3.068
			c5.109-0.674,10.169-1.342,15.229-2.008c-0.585-0.586-1.245-1.326-1.986-1.973c-2.97-2.592-5.953-5.168-8.954-7.725
			c-2.799-2.385-5.504-4.865-7.638-7.883c-3.929-5.553-8.653-10.299-14.216-14.209c-0.104-0.074-0.219-0.131-0.547-0.322
			C7.7,118.809,8.34,120.586,9.233,122.227z M47.471,158.893c0.059-2.189,0.065-4.385,0.214-6.568
			c0.122-1.811-0.532-3.158-1.913-4.287c-4.033-3.291-8.231-6.346-12.607-9.172c-4.291-2.771-8.21-6.014-11.624-9.838
			c-0.4-0.449-0.828-0.873-1.386-1.188c0.81,0.949,1.618,1.9,2.432,2.848c3.106,3.617,6.858,6.512,10.586,9.432
			c3.05,2.391,5.802,5.098,8.333,8.014c0.729,0.844,1.233,1.945,1.616,3.01c1.173,3.262,2.425,6.477,4.347,9.656
			C47.468,160.014,47.455,159.451,47.471,158.893z M43.592,157.611c-0.33-0.816-0.57-1.43-0.826-2.039
			c-0.551-1.307-1.097-2.615-1.677-3.908c-0.088-0.195-0.354-0.455-0.523-0.445c-0.663,0.035-1.322,0.166-1.985,0.262
			C40.243,153.516,41.842,155.469,43.592,157.611z"/>
		<path fill-rule="evenodd" clip-rule="evenodd" fill="#FFFFFF" d="M67.674,147.416c-17.9-8.457-35.543-17.371-52.374-26.695
			c0.763,0.832,1.833,2.061,2.971,3.225c1.781,1.818,3.539,3.672,5.433,5.367c2.24,2.008,4.518,3.996,6.952,5.754
			c4.016,2.9,8.192,5.576,12.251,8.42c1.248,0.875,2.419,1.902,3.46,3.018c1.301,1.391,2.82,1.852,4.652,1.74
			c3.145-0.193,6.294-0.314,9.442-0.469C62.865,147.658,65.27,147.535,67.674,147.416z"/>
		<path fill-rule="evenodd" clip-rule="evenodd" fill="#FFFFFF" d="M6.852,116.883c0.849,1.926,1.488,3.703,2.382,5.344
			c2.486,4.564,5.078,9.07,7.624,13.602c2.266,4.031,4.548,8.053,6.772,12.105c0.562,1.023,0.939,2.148,1.334,3.068
			c5.109-0.674,10.169-1.342,15.229-2.008c-0.585-0.586-1.245-1.326-1.986-1.973c-2.97-2.592-5.953-5.168-8.954-7.725
			c-2.799-2.385-5.504-4.865-7.638-7.883c-3.929-5.553-8.653-10.299-14.216-14.209C7.295,117.131,7.18,117.074,6.852,116.883z"/>
		<path fill-rule="evenodd" clip-rule="evenodd" fill="#FFFFFF" d="M47.468,160.799c0-0.785-0.013-1.348,0.003-1.906
			c0.059-2.189,0.065-4.385,0.214-6.568c0.122-1.811-0.532-3.158-1.913-4.287c-4.033-3.291-8.231-6.346-12.607-9.172
			c-4.291-2.771-8.21-6.014-11.624-9.838c-0.4-0.449-0.828-0.873-1.386-1.188c0.81,0.949,1.618,1.9,2.432,2.848
			c3.106,3.617,6.858,6.512,10.586,9.432c3.05,2.391,5.802,5.098,8.333,8.014c0.729,0.844,1.233,1.945,1.616,3.01
			C44.294,154.404,45.546,157.619,47.468,160.799z"/>
		<path fill-rule="evenodd" clip-rule="evenodd" fill="#FFFFFF" d="M38.58,151.48c1.663,2.035,3.262,3.988,5.012,6.131
			c-0.33-0.816-0.57-1.43-0.826-2.039c-0.551-1.307-1.097-2.615-1.677-3.908c-0.088-0.195-0.354-0.455-0.523-0.445
			C39.902,151.254,39.243,151.385,38.58,151.48z"/>
	</g>
</g>
<g>
	<g>
		<path fill="none" stroke="#000000" stroke-width="1.51" stroke-miterlimit="10" d="M53.388,172.105
			c0.325,0.979,0.658,1.928,1.001,2.85"/>
		<path fill="none" stroke="#000000" stroke-width="1.51" stroke-miterlimit="10" stroke-dasharray="5.4524,5.4524" d="
			M56.488,179.989c6.646,14.193,16.49,20.175,32.436,20.511"/>
		<path fill="none" stroke="#000000" stroke-width="1.51" stroke-miterlimit="10" d="M91.649,200.504
			c0.984-0.017,1.99-0.053,3.019-0.107c0.058-1.092,0.125-2.092,0.171-3.019"/>
		<path fill="none" stroke="#000000" stroke-width="1.51" stroke-miterlimit="10" stroke-dasharray="6.1512,6.1512" d="
			M94.281,191.294c-0.491-1.29-1.335-2.485-2.74-3.72c-4.724-4.148-12.097-4.35-16.865-0.672c-12.93,9.969-6.367,25.211,7.9,25.795
			c7.813,0.32,14.538-1.838,20.98-6.496c7.806-5.643,9.214-13.734,15.628-20.373c4.532-4.688,16.987-8.895,22.475-5.851"/>
		<path fill="none" stroke="#000000" stroke-width="1.51" stroke-miterlimit="10" d="M143.764,182.153
			c0.388,0.805,0.585,1.778,0.549,2.94"/>
	</g>
</g>
<g id="w6y7Me.tif_2_">
	<g>
		<path fill-rule="evenodd" clip-rule="evenodd" fill="#E1C33D" d="M146.467,115.686c-0.286-1.371-0.502-2.752-0.999-4.082
			c-0.722-1.932-1.766-3.652-3.093-5.217c-1.486-1.752-3.368-3.002-5.276-4.232c-1.927-1.24-3.642-2.744-5.193-4.43
			c-1.87-2.029-3.435-4.275-4.663-6.748c-0.739-1.488-1.335-3.035-1.819-4.627c-0.492-1.625-0.847-3.273-1.055-4.957
			c-0.437-3.533-0.264-7.029,0.592-10.49c0.776-3.143,2.021-6.074,3.771-8.801c2.419-3.775,5.524-6.832,9.372-9.135
			c2.303-1.379,4.756-2.371,7.355-3.057c4.072-1.068,8.168-1.193,12.285-0.426c3.453,0.645,6.673,1.916,9.669,3.773
			c3.532,2.186,6.446,5,8.776,8.422c1.514,2.225,2.688,4.621,3.521,7.189c0.391,1.203,0.741,2.418,0.97,3.652
			c1.251,6.771,0.36,13.234-2.859,19.357c-0.857,1.631-1.958,3.096-2.974,4.621c-1.549,2.33-2.406,4.914-2.676,7.686
			c-0.136,1.4,0.008,2.803,0.22,4.191c0.106,0.693,0.263,1.381,0.396,2.072c-0.685,0.143-1.366,0.293-2.053,0.428
			c-1.763,0.344-3.526,0.682-5.289,1.023c0.032-0.273-0.008-0.537-0.062-0.805c-1.23-6.18-2.459-12.359-3.687-18.539
			c-0.022-0.109-0.039-0.221-0.067-0.33c-0.054-0.213,0.002-0.35,0.209-0.469c1.048-0.604,1.943-1.42,2.903-2.145
			c0.778-0.588,1.411-1.318,1.926-2.152c0.734-1.188,1.056-2.48,1.06-3.873c0.005-1.316-0.434-2.447-1.298-3.426
			c-0.768-0.871-1.78-1.219-2.892-1.406c-1.82-0.309-3.647,0.492-4.527,2.055c-0.626,1.113-0.904,2.328-0.99,3.598
			c-0.111,1.646,0.257,3.23,0.566,4.826c0.085,0.436,0.378,0.941,0.175,1.293c-0.21,0.365-0.791,0.396-1.218,0.564
			c-1.579,0.625-3.228,0.844-4.902,0.938c-0.751,0.041-0.843-0.043-0.985-0.764c-0.207-1.035-0.384-2.076-0.63-3.104
			c-0.14-0.58-0.354-1.154-0.602-1.701c-0.469-1.035-1.048-1.994-1.831-2.85c-0.999-1.094-3.077-1.93-4.634-1.213
			c-0.402,0.186-0.822,0.344-1.199,0.572c-1.438,0.869-2.266,2.164-2.228,3.836c0.024,1.033,0.249,2.104,0.801,3.02
			c0.858,1.424,2.045,2.518,3.601,3.143c1.376,0.553,2.814,0.914,4.272,1.17c0.52,0.092,0.746,0.318,0.848,0.842
			c0.994,5.102,2.021,10.195,3.023,15.295c0.259,1.314,0.61,2.613,0.702,3.957C151.343,114.719,148.904,115.203,146.467,115.686z
			 M132.738,64.646c0.339-0.09,0.455-0.271,0.576-0.43c1.766-2.285,3.947-4.074,6.458-5.494c1.86-1.053,3.815-1.82,5.894-2.303
			c2.319-0.541,4.664-0.74,7.032-0.551c1.912,0.152,3.774,0.576,5.591,1.197c1.869,0.639,3.617,1.527,5.25,2.623
			c1.591,1.07,3.03,2.322,4.326,3.742c1.49,1.633,2.698,3.461,3.677,5.43c0.852,1.713,1.449,3.533,1.878,5.406
			c0.022,0.1,0.002,0.248,0.148,0.266c0.106,0.012,0.148-0.104,0.2-0.182c0.367-0.562,0.753-1.113,1.095-1.689
			c0.404-0.684,0.53-1.416,0.36-2.211c-0.452-2.113-1.301-4.072-2.353-5.938c-1.303-2.311-2.973-4.338-4.976-6.086
			c-2.615-2.281-5.595-3.91-8.932-4.838c-4.081-1.135-8.175-1.152-12.278,0c-2.833,0.795-5.396,2.09-7.733,3.857
			c-1.576,1.193-2.921,2.619-4.152,4.154C134.052,62.533,133.407,63.535,132.738,64.646z"/>
		<path fill-rule="evenodd" clip-rule="evenodd" fill="#525760" d="M146.467,115.686c2.438-0.482,4.876-0.967,7.313-1.453
			c0.751-0.154,1.502-0.309,2.252-0.463c2.396-0.42,4.776-0.916,7.158-1.41c0.751-0.152,1.504-0.307,2.255-0.459
			c1.763-0.342,3.526-0.68,5.289-1.023c0.687-0.135,1.368-0.285,2.053-0.428c1.154-0.102,1.838,0.414,2.07,1.566
			c0.206,1.02,0.363,2.049,0.626,3.055c0.238,0.908-0.384,2.021-1.463,2.174c-0.11,0.018-0.221,0.041-0.329,0.064
			c-0.075,0.018-0.168,0.025-0.186,0.123c-0.016,0.094,0.055,0.143,0.128,0.178c0.578,0.281,0.781,0.787,0.886,1.385
			c0.179,1.008,0.367,2.016,0.613,3.008c0.298,1.191-0.375,2.137-1.548,2.291c-0.87,0.113-1.726,0.34-2.59,0.496
			c-0.318,0.059-0.4,0.17-0.354,0.514c0.386,2.875-1.542,5.531-4.386,6.092c-1.851,0.363-3.709,0.697-5.549,1.109
			c-2.87,0.643-5.684-1.076-6.521-3.9c-0.111-0.375-0.251-0.434-0.6-0.357c-0.904,0.203-1.816,0.375-2.727,0.549
			c-1.042,0.201-1.857-0.357-2.067-1.404c-0.16-0.799-0.314-1.6-0.478-2.398c-0.183-0.889-0.481-1.787,0.318-2.582
			c-0.298-0.129-0.508-0.01-0.717,0.025c-1.035,0.17-1.883-0.391-2.092-1.412c-0.218-1.064-0.426-2.131-0.628-3.199
			C144.994,116.764,145.443,116.016,146.467,115.686z"/>
		<path fill-rule="evenodd" clip-rule="evenodd" fill="#C0A33B" d="M156.032,113.77c-0.75,0.154-1.501,0.309-2.252,0.463
			c-0.092-1.344-0.443-2.643-0.702-3.957c-1.002-5.1-2.029-10.193-3.023-15.295c-0.102-0.523-0.328-0.75-0.848-0.842
			c-1.458-0.256-2.896-0.617-4.272-1.17c-1.556-0.625-2.742-1.719-3.601-3.143c-0.552-0.916-0.776-1.986-0.801-3.02
			c-0.038-1.672,0.79-2.967,2.228-3.836c0.377-0.229,0.797-0.387,1.199-0.572c1.557-0.717,3.635,0.119,4.634,1.213
			c0.783,0.855,1.362,1.814,1.831,2.85c0.248,0.547,0.462,1.121,0.602,1.701c0.246,1.027,0.423,2.068,0.63,3.104
			c0.143,0.721,0.234,0.805,0.985,0.764c1.675-0.094,3.323-0.312,4.902-0.938c0.427-0.168,1.008-0.199,1.218-0.564
			c0.203-0.352-0.09-0.857-0.175-1.293c-0.31-1.596-0.678-3.18-0.566-4.826c0.086-1.27,0.364-2.484,0.99-3.598
			c0.88-1.562,2.707-2.363,4.527-2.055c1.111,0.188,2.124,0.535,2.892,1.406c0.864,0.979,1.303,2.109,1.298,3.426
			c-0.004,1.393-0.325,2.686-1.06,3.873c-0.515,0.834-1.147,1.564-1.926,2.152c-0.96,0.725-1.855,1.541-2.903,2.145
			c-0.207,0.119-0.263,0.256-0.209,0.469c0.028,0.109,0.045,0.221,0.067,0.33c1.228,6.18,2.456,12.359,3.687,18.539
			c0.054,0.268,0.094,0.531,0.062,0.805c-0.751,0.152-1.504,0.307-2.255,0.459c-1.235-6.211-2.471-12.422-3.706-18.633
			c-0.025-0.125-0.056-0.25-0.073-0.377c-0.036-0.227-0.146-0.299-0.368-0.209c-1.237,0.506-2.505,0.883-3.842,1.049
			c-0.758,0.094-1.509,0.223-2.274,0.242c-0.637,0.016-0.638,0.018-0.511,0.652c1.187,5.977,2.374,11.953,3.565,17.928
			C156.031,113.266,156.058,113.516,156.032,113.77z M149.163,90.553c-0.199-0.916-0.423-1.83-0.753-2.707
			c-0.217-0.576-0.491-1.145-0.828-1.658c-0.696-1.068-1.561-1.881-2.849-1.477c-1.188,0.371-1.918,1.225-1.799,2.424
			c0.145,1.459,1.063,2.484,2.265,3.234c1.052,0.66,2.286,0.852,3.451,1.209c0.646,0.201,0.734,0.092,0.606-0.555
			C149.225,90.865,149.194,90.709,149.163,90.553z M160.66,87.342c0.135,0.676,0.236,1.129,0.312,1.584
			c0.058,0.348,0.185,0.404,0.463,0.182c0.473-0.381,0.95-0.756,1.438-1.113c1.5-1.102,2.448-2.49,2.467-4.428
			c0.014-1.332-0.806-2.24-2.297-2.443c-1.034-0.141-1.994,0.584-2.298,1.73C160.33,84.42,160.259,85.99,160.66,87.342z"/>
		<path fill-rule="evenodd" clip-rule="evenodd" fill="#EDE7C8" d="M132.738,64.646c0.669-1.111,1.313-2.113,2.062-3.045
			c1.231-1.535,2.576-2.961,4.152-4.154c2.338-1.768,4.9-3.062,7.733-3.857c4.104-1.152,8.197-1.135,12.278,0
			c3.337,0.928,6.316,2.557,8.932,4.838c2.003,1.748,3.673,3.775,4.976,6.086c1.052,1.865,1.9,3.824,2.353,5.938
			c0.17,0.795,0.044,1.527-0.36,2.211c-0.342,0.576-0.728,1.127-1.095,1.689c-0.052,0.078-0.094,0.193-0.2,0.182
			c-0.146-0.018-0.126-0.166-0.148-0.266c-0.429-1.873-1.026-3.693-1.878-5.406c-0.979-1.969-2.187-3.797-3.677-5.43
			c-1.296-1.42-2.735-2.672-4.326-3.742c-1.633-1.096-3.381-1.984-5.25-2.623c-1.816-0.621-3.679-1.045-5.591-1.197
			c-2.368-0.189-4.713,0.01-7.032,0.551c-2.078,0.482-4.033,1.25-5.894,2.303c-2.511,1.42-4.692,3.209-6.458,5.494
			C133.193,64.375,133.077,64.557,132.738,64.646z"/>
		<path fill-rule="evenodd" clip-rule="evenodd" fill="#E1C33D" d="M156.032,113.77c0.025-0.254-0.001-0.504-0.051-0.758
			c-1.191-5.975-2.379-11.951-3.565-17.928c-0.127-0.635-0.126-0.637,0.511-0.652c0.766-0.02,1.517-0.148,2.274-0.242
			c1.337-0.166,2.604-0.543,3.842-1.049c0.222-0.09,0.332-0.018,0.368,0.209c0.018,0.127,0.048,0.252,0.073,0.377
			c1.235,6.211,2.471,12.422,3.706,18.633C160.809,112.854,158.429,113.35,156.032,113.77z"/>
		<path fill-rule="evenodd" clip-rule="evenodd" fill="#E1C33D" d="M149.163,90.553c0.031,0.156,0.062,0.312,0.094,0.471
			c0.128,0.646,0.04,0.756-0.606,0.555c-1.165-0.357-2.399-0.549-3.451-1.209c-1.201-0.75-2.12-1.775-2.265-3.234
			c-0.119-1.199,0.611-2.053,1.799-2.424c1.288-0.404,2.152,0.408,2.849,1.477c0.337,0.514,0.611,1.082,0.828,1.658
			C148.74,88.723,148.964,89.637,149.163,90.553z"/>
		<path fill-rule="evenodd" clip-rule="evenodd" fill="#E1C33D" d="M160.66,87.342c-0.401-1.352-0.33-2.922,0.085-4.488
			c0.304-1.146,1.264-1.871,2.298-1.73c1.491,0.203,2.311,1.111,2.297,2.443c-0.019,1.938-0.967,3.326-2.467,4.428
			c-0.488,0.357-0.966,0.732-1.438,1.113c-0.278,0.223-0.405,0.166-0.463-0.182C160.896,88.471,160.795,88.018,160.66,87.342z"/>
	</g>
</g>
<line fill="none" stroke="#000000" stroke-width="1.0873" stroke-linecap="round" stroke-miterlimit="10" x1="119.514" y1="77.904" x2="103.251" y2="74.564"/>
<line fill="none" stroke="#000000" stroke-width="1.1064" stroke-linecap="round" stroke-miterlimit="10" x1="121.022" y1="61.004" x2="106.036" y2="52.654"/>
<line fill="none" stroke="#000000" stroke-width="1.1859" stroke-linecap="round" stroke-miterlimit="10" x1="131.771" y1="50.488" x2="121.552" y2="33.803"/>
<line fill="none" stroke="#000000" stroke-width="1.0873" stroke-linecap="round" stroke-miterlimit="10" x1="181.333" y1="65.787" x2="196.447" y2="58.918"/>
<line fill="none" stroke="#000000" stroke-width="1.1064" stroke-linecap="round" stroke-miterlimit="10" x1="174.093" y1="51.658" x2="186.849" y2="40.186"/>
<line fill="none" stroke="#000000" stroke-width="1.1859" stroke-linecap="round" stroke-miterlimit="10" x1="161.277" y1="43.793" x2="167.533" y2="25.255"/>
<line fill="none" stroke="#000000" stroke-width="1.2655" stroke-linecap="round" stroke-miterlimit="10" x1="146.442" y1="44.123" x2="142.668" y2="22.278"/>
<path fill-rule="evenodd" clip-rule="evenodd" fill="none" stroke="#000000" stroke-width="1.51" stroke-miterlimit="10" stroke-dasharray="6.04" d="
	M164.81,134.562c8.686,11.441,29.425-3.938,38.463,4.297c4.536,4.133,4.583,18.9,3.81,24.35
	c-1.498,10.557-8.647,15.156-17.359,21.936"/>
<g id="H6hRfq.tif_2_">
	<g>
		<path fill-rule="evenodd" clip-rule="evenodd" fill="#902605" d="M25.022,36.525c1.309-0.391,2.604-0.83,3.928-1.16
			c3.869-0.963,7.757-1.291,11.608,0.061c3.259,1.143,5.761,3.316,7.756,6.074c3.502,4.836,5.271,10.199,4.584,16.217
			c-0.313,2.752-1.348,5.252-2.876,7.586c-1.737,2.656-3.977,4.781-6.533,6.598c-0.694,0.494-0.842,0.9-0.341,1.6
			c1.298,1.814,2.594,3.631,3.828,5.488c0.829,1.25,1.553,2.572,2.325,3.863c0.296,0.492,0.166,0.799-0.336,1.098
			c-2.491,1.49-4.96,3.016-7.584,4.617c-0.81-0.965-1.771-1.941-2.535-3.053c-2.249-3.279-4.439-6.6-6.607-9.932
			c-0.525-0.805-0.854-1.736-1.326-2.58c-0.278-0.496-0.182-0.795,0.222-1.174c1.408-1.318,2.831-2.631,4.142-4.043
			c1.386-1.494,2.552-3.18,2.738-5.283c0.29-3.283-1.131-5.857-3.786-7.625c-3.579-2.383-7.438-2.303-11.239-0.559
			c-3.856,1.771-5.86,4.77-5.437,9.25c-0.315,0-0.595,0.016-0.872-0.002c-2.604-0.182-5.205-0.373-7.808-0.547
			c-0.37-0.025-0.743,0.021-1.115,0.035c-0.023-0.049-0.047-0.096-0.07-0.145c0.008-0.213,0.038-0.43,0.022-0.641
			c-0.641-8.721,2.748-15.637,9.472-21.029c1.293-1.037,2.707-1.924,4.065-2.879C22.506,37.748,23.764,37.137,25.022,36.525z"/>
		<path fill-rule="evenodd" clip-rule="evenodd" fill="#5C2003" d="M46.911,37.895c3.868,1.912,6.626,4.857,8.367,8.742
			c2.04,4.553,2.458,9.25,1.164,14.088c-0.833,3.109-2.62,5.611-4.931,7.781c-0.665,0.625-1.318,1.266-2.012,1.859
			c-0.365,0.311-0.469,0.609-0.245,1.037c0.798,1.521,1.539,3.076,2.391,4.568c1.019,1.783,1.059,1.762-0.131,3.443
			c-0.475,0.67-0.951,1.34-1.486,2.094c-1.933-2.812-3.808-5.541-5.616-8.172c1.517-1.393,2.959-2.529,4.181-3.869
			c4.977-5.451,6.43-11.877,4.92-19.004c-0.994-4.68-2.846-8.961-6.407-12.328C47.031,38.064,46.976,37.975,46.911,37.895z"/>
		<path fill-rule="evenodd" clip-rule="evenodd" fill="#902605" d="M49.496,102.998c-1.456-2.588-2.888-5.135-4.321-7.682
			c-0.266-0.471-0.191-0.818,0.252-1.176c2.273-1.83,4.715-3.391,7.334-4.668c0.213-0.104,0.695-0.062,0.8,0.088
			c1.447,2.068,2.905,4.131,4.242,6.271c0.782,1.252,0.74,1.389-0.466,2.213c-2.372,1.623-4.81,3.148-7.222,4.709
			C50.007,102.824,49.871,102.852,49.496,102.998z"/>
		<path fill-rule="evenodd" clip-rule="evenodd" fill="#5C2003" d="M59.013,95.498c-1.05-1.574-2-3.027-2.981-4.461
			c-0.683-0.996-1.421-1.953-2.112-2.943c-0.268-0.385-0.526-0.418-0.948-0.221c-0.825,0.387-1.684,0.701-2.735,1.131
			c0.207-0.324,0.3-0.518,0.435-0.672c1.113-1.277,2.542-2.049,4.146-2.508c0.232-0.066,0.573,0.057,0.804,0.195
			c1.724,1.023,2.68,2.723,3.823,4.285c1.042,1.424,0.996,2.721,0.099,4.123C59.36,94.713,59.239,95.037,59.013,95.498z"/>
		<path fill-rule="evenodd" clip-rule="evenodd" fill="#5C2003" d="M18.773,63.059c-0.57-3.066,2.153-6.855,5.648-7.816
			c-0.086,0.562-0.164,1.08-0.245,1.598c-0.088,0.555-0.293,1.123-0.238,1.664c0.079,0.789-0.219,1.172-0.872,1.576
			c-1.183,0.732-2.271,1.621-3.404,2.434C19.387,62.711,19.085,62.869,18.773,63.059z"/>
	</g>
</g>
<path fill-rule="evenodd" clip-rule="evenodd" fill="none" stroke="#000000" stroke-width="1.51" stroke-miterlimit="10" stroke-dasharray="6.04" d="
	M63.645,105.119c12.892,4.168,18.684,18.418,29.454,26.02c6.617,4.67,15.145,8.428,23.446,10.119
	c5.532,1.127,12.314-0.369,17.312,2.365"/>
<g id="lW1wVk.tif_2_">
	<g>
		<path fill-rule="evenodd" clip-rule="evenodd" fill="#1300B9" d="M258.32,88.586c-2.057,1.547-3.668,1.66-5.219,0.406
			c-1.451-1.174-1.679-2.902-0.647-5.08c-0.753-0.406-1.503-0.828-2.271-1.209c-0.138-0.07-0.368-0.018-0.532,0.041
			c-1.479,0.531-2.951,1.078-4.426,1.617c-0.934,0.342-1.192,0.242-1.688-0.592c-0.068-0.113-0.262-0.232-0.387-0.223
			c-4.076,0.348-6.711-1.748-8.6-5.078c-1.124-1.982-1.928-4.086-2.189-6.369c-0.357-3.104,0.694-5.68,3.202-7.488
			c1.666-1.203,3.518-2.172,5.356-3.109c4.332-2.209,8.73-4.291,13.057-6.514c5.172-2.658,10.159-5.627,14.618-9.4
			c2.934-2.482,5.481-5.289,7.397-8.654c0.679-1.193,0.866-2.354,0.692-3.713c-0.163-1.275-0.049-2.595,0.047-3.889
			c0.064-0.862,0.412-1.35,1.001-1.855c-1.011,1.798-0.683,3.672-0.392,5.493c1.052,6.588,3.358,12.797,5.837,18.949
			c0.192,0.477,0.397,0.947,0.626,1.496c0.328-0.346,0.643-0.621,0.875-0.953c0.084-0.121,0.007-0.393-0.061-0.572
			c-1.167-3.139-2.41-6.252-3.502-9.418c-1.11-3.225-2.058-6.508-2.517-9.896c-0.186-1.374-0.167-2.781-0.147-4.172
			c0.008-0.484,0.302-0.963,0.468-1.443c0.011-0.029,0.055-0.047,0.081-0.071c1.081-1.039,2.964-1.148,4.254-0.283
			c1.8,1.21,3.137,2.859,4.403,4.574c3.444,4.662,6.136,9.759,8.57,14.998c2.757,5.932,5.083,12.023,6.718,18.365
			c0.712,2.768,1.337,5.561,1.263,8.443c-0.022,0.865-0.232,1.736-0.448,2.582c-0.151,0.598-0.608,0.988-1.204,1.223
			c-0.73,0.287-1.452,0.604-2.156,0.947c-0.856,0.422-1.698,0.379-2.46-0.131c-0.807-0.541-1.555-1.174-2.305-1.795
			c-0.307-0.256-0.613-0.549-0.812-0.887c-0.882-1.5-2.341-1.955-3.904-2.283c-3.606-0.762-7.231-0.775-10.872-0.336
			c-6.123,0.74-11.966,2.561-17.752,4.598c-0.36,0.127-0.711,0.316-1.083,0.377c-0.721,0.119-0.967,0.559-0.919,1.209
			c0.013,0.168,0.159,0.396,0.308,0.469c1.209,0.609,2.422,1.217,3.66,1.76c0.612,0.27,0.879,0.592,0.564,1.152
			c-0.312,0.551-0.146,0.973,0.116,1.438c0.938,1.68,2.389,2.83,3.973,3.83c1.785,1.131,3.536,2.295,4.979,3.865
			c0.772,0.84,1.4,1.748,1.803,2.838c0.876,2.375,2.362,4.227,4.747,5.271c0.93,0.408,1.19,1.621,0.471,2.357
			c-1.341,1.369-2.726,2.697-4.139,3.992c-0.714,0.654-1.921,0.486-2.539-0.295c-4.222-5.328-8.705-10.416-13.856-14.881
			C259.714,89.709,259.021,89.162,258.32,88.586z M277.239,37.863c-0.39,0.689-0.706,1.301-1.069,1.885
			c-2.376,3.811-5.665,6.725-9.253,9.334c-4.386,3.188-9.132,5.766-13.97,8.184c-2.672,1.336-5.376,2.607-8.059,3.924
			c-0.176,0.086-0.386,0.27-0.425,0.441c-0.279,1.275,0.076,2.496,0.348,3.797c0.443-0.211,0.818-0.385,1.189-0.568
			c4.087-2.021,8.203-3.984,12.25-6.08c5.118-2.648,10.028-5.631,14.303-9.549c2.206-2.023,4.115-4.283,5.505-6.949
			c0.102-0.193,0.218-0.447,0.173-0.635C277.931,40.4,277.587,39.166,277.239,37.863z M235.017,74.752
			c0.04-0.264,0.069-0.414,0.083-0.564c0.175-1.854,1.026-3.371,2.424-4.547c0.83-0.699,1.751-1.305,2.685-1.861
			c1.033-0.613,2.129-1.121,3.15-1.65c-0.204-1.322-0.399-2.594-0.623-4.041c-1.989,1.145-4.044,2.125-5.869,3.424
			C233.649,67.797,233.278,71.148,235.017,74.752z M291.419,63.879c0.111,0.219,0.152,0.324,0.214,0.416
			c1.341,2.029,2.627,4.096,4.042,6.068c1.161,1.617,2.485,3.109,4.15,4.262c0.508,0.352,0.779,0.227,1.026-0.244
			c0.125-0.238,0.25-0.475,0.356-0.719c0.418-0.965,0.434-1.863-0.159-2.822c-1.252-2.021-2.796-3.732-4.809-5.01
			C294.791,64.91,293.229,64.271,291.419,63.879z M295.538,55.705c-0.205-2.559-1.084-4.703-2.449-6.646
			c-0.4-0.57-0.914-1.092-1.467-1.52c-0.771-0.594-1.395-0.336-1.599,0.613c-0.088,0.404-0.123,0.844-0.064,1.252
			c0.365,2.58,1.312,4.916,3.036,6.895c0.32,0.367,0.734,0.68,1.161,0.918c0.506,0.283,0.966,0.098,1.161-0.439
			C295.459,56.391,295.488,55.963,295.538,55.705z M280.394,101.025c0.729-0.637,0.741-1.195-0.122-1.568
			c-2.512-1.084-4.007-3.043-4.927-5.537c-0.171-0.463-0.401-0.914-0.679-1.32c-1.038-1.523-2.412-2.717-3.9-3.777
			c-0.902-0.643-1.866-1.201-2.777-1.832c-1.276-0.885-2.435-1.896-3.217-3.32c-0.29,0.35-0.531,0.635-0.794,0.951
			c0.212,0.291,0.399,0.578,0.614,0.842c0.906,1.117,2.079,1.912,3.259,2.703c1.748,1.172,3.496,2.348,5.198,3.584
			c0.856,0.619,1.555,1.414,1.912,2.459c0.21,0.613,0.451,1.221,0.717,1.812c0.764,1.713,1.788,3.203,3.521,4.098
			C279.612,100.332,279.954,100.688,280.394,101.025z M295.924,46.73c-0.031,0.023-0.063,0.047-0.095,0.072
			c0.868,2.283,1.773,4.553,2.598,6.852c1.852,5.16,3.48,10.385,4.099,15.859c0.251,2.223,0.546,4.492-0.816,6.58
			c0.362-0.158,0.776-0.316,0.953-0.613c0.293-0.498,0.539-1.07,0.62-1.639c0.363-2.547-0.11-5.039-0.631-7.518
			c-0.997-4.748-2.55-9.326-4.329-13.828C297.559,50.561,296.727,48.652,295.924,46.73z M293.264,57.514
			c-0.481-0.459-0.915-0.887-1.368-1.293c-0.108-0.098-0.315-0.211-0.417-0.168c-0.947,0.389-1.883,0.809-2.856,1.236
			c0.324,0.652,0.614,1.24,0.911,1.838C290.827,58.568,292.054,58.037,293.264,57.514z M259.767,79.678
			c1.135,0.639,2.133,1.217,3.147,1.764c0.501,0.271,1.031,0.488,1.557,0.732c0.396-0.68,0.277-1.092-0.381-1.354
			c-1.218-0.482-2.423-0.994-3.732-1.535C260.319,79.311,260.146,79.426,259.767,79.678z M289.466,47.549
			c-0.479-0.066-3.439,1.107-4.312,1.707c0.104,0.242,0.211,0.492,0.326,0.762c0.984-0.426,1.898-0.871,2.849-1.215
			C288.945,48.58,289.32,48.225,289.466,47.549z M286.208,51.828c0.146,0.35,0.273,0.656,0.41,0.982
			c0.764-0.332,1.479-0.645,2.194-0.953c0.78-0.338,0.807-0.424,0.354-1.305C288.198,50.971,287.227,51.389,286.208,51.828z
			 M288.071,56.088c0.138,0.289,0.25,0.521,0.382,0.799c1.002-0.432,1.958-0.842,2.956-1.271c-0.16-0.26-0.308-0.496-0.471-0.762
			C289.983,55.264,289.062,55.66,288.071,56.088z M252.593,84.672c-0.557,1.035-0.442,2.559,0.223,3.084
			c0.087-0.27,0.222-0.533,0.249-0.811c0.03-0.297-0.06-0.602-0.063-0.902c-0.004-0.246,0.01-0.5,0.07-0.736
			C253.184,84.869,253.07,84.643,252.593,84.672z"/>
		<path fill-rule="evenodd" clip-rule="evenodd" d="M318.353,38.379c5.879-2.771,11.64-5.486,17.507-8.25
			c-0.323,1.898-0.628,3.691-0.952,5.601c4.943-2.328,9.785-4.609,14.627-6.888c0.025,0.036,0.05,0.072,0.074,0.109
			c-6.123,4.808-12.246,9.619-18.511,14.539c0.339-2.006,0.651-3.854,0.979-5.789c-5.852,2.758-11.629,5.48-17.506,8.25
			c0.328-1.893,0.641-3.688,0.979-5.627c-5.025,2.371-9.923,4.684-14.82,6.994c-0.015-0.027-0.028-0.055-0.043-0.08
			c6.171-4.848,12.343-9.693,18.642-14.643C318.994,34.576,318.685,36.408,318.353,38.379z M318.521,33.951
			c-4.571,3.59-9.018,7.08-13.465,10.568c0.021,0.035,0.041,0.068,0.062,0.102c3.687-1.732,7.372-3.465,11.146-5.24
			c-0.323,1.895-0.626,3.672-0.952,5.588c5.899-2.781,11.652-5.49,17.51-8.252c-0.311,1.84-0.597,3.545-0.911,5.406
			c4.549-3.572,8.97-7.045,13.39-10.516c-0.021-0.035-0.041-0.069-0.062-0.104c-3.666,1.723-7.33,3.448-11.086,5.213
			c0.325-1.922,0.628-3.709,0.946-5.592c-5.841,2.75-11.595,5.459-17.494,8.239C317.919,37.502,318.206,35.811,318.521,33.951z"/>
		<path fill-rule="evenodd" clip-rule="evenodd" d="M316.653,6.768c0.586,1.578,1.122,3.022,1.704,4.592
			c2.771-3.988,5.468-7.875,8.167-11.761c0.025,0.015,0.052,0.03,0.078,0.046c-2.563,6.396-5.128,12.792-7.752,19.34
			c-0.623-1.666-1.188-3.177-1.78-4.76c-3.181,4.582-6.312,9.091-9.507,13.691c-0.55-1.477-1.061-2.851-1.624-4.364
			c-2.747,3.953-5.435,7.821-8.123,11.69c-0.03-0.014-0.062-0.029-0.093-0.043c2.557-6.375,5.113-12.75,7.74-19.304
			c0.588,1.586,1.113,3.007,1.687,4.557C310.333,15.869,313.459,11.368,316.653,6.768z M306.094,22.323
			c0.556,1.487,1.075,2.875,1.629,4.357c3.18-4.578,6.309-9.083,9.505-13.683c0.565,1.508,1.086,2.894,1.646,4.387
			c1.785-4.454,3.527-8.797,5.268-13.14c-0.034-0.019-0.068-0.037-0.104-0.056c-1.925,2.77-3.851,5.539-5.838,8.397
			c-0.584-1.572-1.126-3.032-1.703-4.586c-3.187,4.589-6.312,9.091-9.499,13.679c-0.533-1.434-1.021-2.745-1.556-4.186
			c-1.796,4.477-3.531,8.806-5.267,13.136c0.036,0.018,0.073,0.035,0.109,0.053C302.204,27.92,304.123,25.158,306.094,22.323z"/>
		<path fill-rule="evenodd" clip-rule="evenodd" d="M334.078,69.869c1.125-1.357,2.153-2.6,3.251-3.926
			c-5.577-0.463-11.04-0.914-16.63-1.375c1.034-1.25,1.982-2.395,3.014-3.641c-4.754-0.395-9.396-0.779-14.039-1.164
			c-0.002-0.047-0.005-0.092-0.008-0.139c6.786-1.018,13.571-2.033,20.532-3.076c-1.136,1.365-2.159,2.596-3.264,3.922
			c5.562,0.465,11.022,0.92,16.631,1.387c-1.062,1.289-2.048,2.484-3.106,3.768c4.812,0.404,9.514,0.801,14.216,1.197
			c-0.001,0.031-0.002,0.062-0.004,0.094C347.859,67.893,341.047,68.871,334.078,69.869z M328.67,57.486
			c-0.019-0.039-0.038-0.08-0.058-0.119c-4.742,0.709-9.484,1.418-14.227,2.127c0,0.029,0.001,0.059,0.001,0.086
			c3.455,0.289,6.91,0.576,10.464,0.871c-1.026,1.244-1.979,2.4-3.002,3.641c5.589,0.463,11.053,0.916,16.621,1.379
			c-1.014,1.227-1.945,2.352-2.876,3.479c0.027,0.037,0.054,0.076,0.082,0.113c4.654-0.668,9.31-1.336,13.964-2.004
			c-0.001-0.027-0.003-0.055-0.004-0.082c-3.403-0.285-6.806-0.57-10.328-0.867c1.063-1.289,2.055-2.488,3.109-3.766
			c-5.582-0.471-11.062-0.932-16.629-1.4C326.796,59.734,327.733,58.609,328.67,57.486z"/>
		<path fill-rule="evenodd" clip-rule="evenodd" fill="#FFFFFF" d="M277.239,37.863c0.348,1.303,0.691,2.537,0.992,3.783
			c0.045,0.188-0.071,0.441-0.173,0.635c-1.39,2.666-3.299,4.926-5.505,6.949c-4.274,3.918-9.185,6.9-14.303,9.549
			c-4.047,2.096-8.163,4.059-12.25,6.08c-0.371,0.184-0.746,0.357-1.189,0.568c-0.271-1.301-0.627-2.521-0.348-3.797
			c0.039-0.172,0.249-0.355,0.425-0.441c2.683-1.316,5.387-2.588,8.059-3.924c4.838-2.418,9.584-4.996,13.97-8.184
			c3.588-2.609,6.877-5.523,9.253-9.334C276.533,39.164,276.85,38.553,277.239,37.863z"/>
		<path fill-rule="evenodd" clip-rule="evenodd" fill="#FFFFFF" d="M235.017,74.752c-1.738-3.604-1.367-6.955,1.85-9.24
			c1.825-1.299,3.88-2.279,5.869-3.424c0.224,1.447,0.419,2.719,0.623,4.041c-1.021,0.529-2.117,1.037-3.15,1.65
			c-0.934,0.557-1.854,1.162-2.685,1.861c-1.397,1.176-2.249,2.693-2.424,4.547C235.086,74.338,235.057,74.488,235.017,74.752z"/>
		<path fill-rule="evenodd" clip-rule="evenodd" fill="#FFFFFF" d="M291.419,63.879c1.811,0.393,3.372,1.031,4.821,1.951
			c2.013,1.277,3.557,2.988,4.809,5.01c0.593,0.959,0.577,1.857,0.159,2.822c-0.106,0.244-0.231,0.48-0.356,0.719
			c-0.247,0.471-0.519,0.596-1.026,0.244c-1.665-1.152-2.989-2.645-4.15-4.262c-1.415-1.973-2.701-4.039-4.042-6.068
			C291.571,64.203,291.53,64.098,291.419,63.879z"/>
		<path fill-rule="evenodd" clip-rule="evenodd" fill="#FFFFFF" d="M295.538,55.705c-0.05,0.258-0.079,0.686-0.221,1.072
			c-0.195,0.537-0.655,0.723-1.161,0.439c-0.427-0.238-0.841-0.551-1.161-0.918c-1.724-1.979-2.671-4.314-3.036-6.895
			c-0.059-0.408-0.023-0.848,0.064-1.252c0.204-0.949,0.827-1.207,1.599-0.613c0.553,0.428,1.066,0.949,1.467,1.52
			C294.454,51.002,295.333,53.146,295.538,55.705z"/>
		<path fill-rule="evenodd" clip-rule="evenodd" fill="#FFFFFF" d="M280.394,101.025c-0.439-0.338-0.781-0.693-1.195-0.906
			c-1.732-0.895-2.757-2.385-3.521-4.098c-0.266-0.592-0.507-1.199-0.717-1.812c-0.357-1.045-1.056-1.84-1.912-2.459
			c-1.702-1.236-3.45-2.412-5.198-3.584c-1.18-0.791-2.353-1.586-3.259-2.703c-0.215-0.264-0.402-0.551-0.614-0.842
			c0.263-0.316,0.504-0.602,0.794-0.951c0.782,1.424,1.94,2.436,3.217,3.32c0.911,0.631,1.875,1.189,2.777,1.832
			c1.488,1.061,2.862,2.254,3.9,3.777c0.277,0.406,0.508,0.857,0.679,1.32c0.92,2.494,2.415,4.453,4.927,5.537
			C281.135,99.83,281.122,100.389,280.394,101.025z"/>
		<path fill-rule="evenodd" clip-rule="evenodd" fill="#FFFFFF" d="M295.924,46.73c0.803,1.922,1.635,3.83,2.398,5.766
			c1.779,4.502,3.332,9.08,4.329,13.828c0.521,2.479,0.994,4.971,0.631,7.518c-0.081,0.568-0.327,1.141-0.62,1.639
			c-0.177,0.297-0.591,0.455-0.953,0.613c1.362-2.088,1.067-4.357,0.816-6.58c-0.618-5.475-2.247-10.699-4.099-15.859
			c-0.824-2.299-1.729-4.568-2.598-6.852C295.86,46.777,295.893,46.754,295.924,46.73z"/>
		<path fill-rule="evenodd" clip-rule="evenodd" fill="#FFFFFF" d="M293.264,57.514c-1.21,0.523-2.437,1.055-3.73,1.613
			c-0.297-0.598-0.587-1.186-0.911-1.838c0.974-0.428,1.909-0.848,2.856-1.236c0.102-0.043,0.309,0.07,0.417,0.168
			C292.349,56.627,292.782,57.055,293.264,57.514z"/>
		<path fill-rule="evenodd" clip-rule="evenodd" fill="#FFFFFF" d="M259.767,79.678c0.379-0.252,0.553-0.367,0.591-0.393
			c1.31,0.541,2.515,1.053,3.732,1.535c0.658,0.262,0.776,0.674,0.381,1.354c-0.525-0.244-1.056-0.461-1.557-0.732
			C261.899,80.895,260.901,80.316,259.767,79.678z"/>
		<path fill-rule="evenodd" clip-rule="evenodd" fill="#FFFFFF" d="M289.466,47.549c-0.146,0.676-0.521,1.031-1.138,1.254
			c-0.95,0.344-1.864,0.789-2.849,1.215c-0.115-0.27-0.223-0.52-0.326-0.762C286.026,48.656,288.986,47.482,289.466,47.549z"/>
		<path fill-rule="evenodd" clip-rule="evenodd" fill="#FFFFFF" d="M286.208,51.828c1.019-0.439,1.99-0.857,2.959-1.275
			c0.452,0.881,0.426,0.967-0.354,1.305c-0.716,0.309-1.431,0.621-2.194,0.953C286.481,52.484,286.354,52.178,286.208,51.828z"/>
		<path fill-rule="evenodd" clip-rule="evenodd" fill="#FFFFFF" d="M288.071,56.088c0.99-0.428,1.912-0.824,2.867-1.234
			c0.163,0.266,0.311,0.502,0.471,0.762c-0.998,0.43-1.954,0.84-2.956,1.271C288.321,56.609,288.209,56.377,288.071,56.088z"/>
		<path fill-rule="evenodd" clip-rule="evenodd" fill="#FFFFFF" d="M252.593,84.672c0.478-0.029,0.591,0.197,0.479,0.635
			c-0.061,0.236-0.074,0.49-0.07,0.736c0.004,0.301,0.094,0.605,0.063,0.902c-0.027,0.277-0.162,0.541-0.249,0.811
			C252.15,87.23,252.036,85.707,252.593,84.672z"/>
		<path fill-rule="evenodd" clip-rule="evenodd" fill="#FFFFFF" d="M318.521,33.951c-0.314,1.859-0.602,3.551-0.917,5.412
			c5.899-2.779,11.653-5.488,17.494-8.239c-0.318,1.883-0.621,3.67-0.946,5.592c3.756-1.766,7.42-3.49,11.086-5.213
			c0.021,0.034,0.041,0.068,0.062,0.104c-4.42,3.471-8.841,6.944-13.39,10.516c0.314-1.861,0.601-3.566,0.911-5.406
			c-5.857,2.762-11.61,5.471-17.51,8.252c0.326-1.916,0.629-3.693,0.952-5.588c-3.773,1.775-7.459,3.508-11.146,5.24
			c-0.021-0.033-0.041-0.066-0.062-0.102C309.503,41.031,313.949,37.541,318.521,33.951z"/>
		<path fill-rule="evenodd" clip-rule="evenodd" fill="#FFFFFF" d="M306.094,22.323c-1.971,2.835-3.89,5.598-5.81,8.359
			c-0.036-0.018-0.073-0.035-0.109-0.053c1.735-4.33,3.471-8.659,5.267-13.136c0.535,1.44,1.022,2.752,1.556,4.186
			c3.187-4.588,6.312-9.09,9.499-13.679c0.577,1.554,1.119,3.014,1.703,4.586c1.987-2.858,3.913-5.628,5.838-8.397
			c0.036,0.019,0.07,0.037,0.104,0.056c-1.74,4.343-3.482,8.686-5.268,13.14c-0.561-1.493-1.081-2.879-1.646-4.387
			c-3.196,4.6-6.325,9.104-9.505,13.683C307.169,25.198,306.649,23.81,306.094,22.323z"/>
		<path fill-rule="evenodd" clip-rule="evenodd" fill="#FFFFFF" d="M328.67,57.486c-0.937,1.123-1.874,2.248-2.882,3.457
			c5.567,0.469,11.047,0.93,16.629,1.4c-1.055,1.277-2.046,2.477-3.109,3.766c3.522,0.297,6.925,0.582,10.328,0.867
			c0.001,0.027,0.003,0.055,0.004,0.082c-4.654,0.668-9.31,1.336-13.964,2.004c-0.028-0.037-0.055-0.076-0.082-0.113
			c0.931-1.127,1.862-2.252,2.876-3.479c-5.568-0.463-11.032-0.916-16.621-1.379c1.022-1.24,1.976-2.396,3.002-3.641
			c-3.554-0.295-7.009-0.582-10.464-0.871c0-0.027-0.001-0.057-0.001-0.086c4.742-0.709,9.484-1.418,14.227-2.127
			C328.632,57.406,328.651,57.447,328.67,57.486z"/>
	</g>
</g>
<path fill-rule="evenodd" clip-rule="evenodd" fill="none" stroke="#000000" stroke-width="1.51" stroke-miterlimit="10" stroke-dasharray="6.04" d="
	M270.678,106.758c5.518,18.643-22.999,36.377-37.118,22.656c-11.685-11.354,14.219-19.805,20.778-10.859
	c3.897,5.314,5.85,15.164,2.436,21.141c-2.436,4.262-7.005,6.271-11.847,6.105c-6.259-0.217-9.507-5.734-14.031-9.652
	c-5.663-4.9-10.297-10.043-18.184-11.01c-3.28-0.402-8.482,1.854-9.024,5.543"/>
<g id="ihkErM.tif_2_">
	<g>
		<path fill-rule="evenodd" clip-rule="evenodd" fill="#B24D43" d="M337.147,169.072c-1.008,0.24-1.547,1.127-2.307,1.703
			c-12.188,9.234-29.426,3.65-33.868-10.992c-0.12-0.395-0.257-0.783-0.386-1.176c-0.151-0.871-0.303-1.74-0.453-2.611
			c-0.261-4.586,0.44-8.953,2.821-12.971c5.952-10.035,17.686-13.633,28.257-8.643c0.227,0.105,0.426,0.311,0.698,0.117
			c1.593,1.16,3.186,2.316,4.778,3.477c-0.104,0.398,0.26,0.51,0.451,0.725c5.988,6.643,7.569,14.189,4.672,22.674
			c-0.307,0.902-0.98,1.664-1.006,2.666C339.587,165.719,338.367,167.396,337.147,169.072z M331.601,140.018
			c-7.534-5.488-18.133-3.848-23.627,3.66c-5.526,7.551-3.856,18.254,3.707,23.754c7.529,5.479,18.129,3.811,23.618-3.713
			C340.871,156.078,339.233,145.58,331.601,140.018z"/>
		<path fill-rule="evenodd" clip-rule="evenodd" fill="#384447" d="M286.126,163.896c-0.404,0.527-1.027,0.43-1.568,0.516
			c-7.656,1.223-15.313,2.434-22.974,3.631c-0.748,0.117-1.513,0.129-2.27,0.188c-0.335-0.242-0.671-0.486-1.007-0.73
			c-1.521-2.176-1.729-4.6-1.349-7.135c0.305-0.418,0.61-0.838,0.914-1.256c0.994-0.217,1.979-0.482,2.982-0.643
			c7.399-1.184,14.803-2.35,22.207-3.506c0.542-0.084,1.104-0.367,1.652,0.006C284.905,157.986,285.375,160.965,286.126,163.896z"/>
		<path fill-rule="evenodd" clip-rule="evenodd" fill="#FDFCFC" d="M256.959,160.365c-0.381,2.535-0.172,4.959,1.349,7.135
			c-1.257-0.914-2.496-1.855-3.781-2.73c-0.449-0.305-0.476-0.465-0.142-0.893C255.277,162.734,256.105,161.539,256.959,160.365z"/>
		<path fill-rule="evenodd" clip-rule="evenodd" fill="#B7B4B4" d="M286.126,163.896c-0.751-2.932-1.221-5.91-1.411-8.93
			c3.692-1.205,5.908-1.322,8.289,2.367c-0.091,0.615,0.001,1.201,0.278,1.758C292.153,163.34,289.986,163.912,286.126,163.896z"/>
		<path fill-rule="evenodd" clip-rule="evenodd" fill="#E6E3E6" d="M293.282,159.092c-0.277-0.557-0.369-1.143-0.278-1.758
			c2.272-1,4.728-1.025,7.13-1.338c0.15,0.871,0.302,1.74,0.453,2.611c-1.121-0.498-2.183,0.133-3.277,0.172
			C295.964,158.824,294.669,159.553,293.282,159.092z"/>
		<path fill-rule="evenodd" clip-rule="evenodd" fill="#E6E3E6" d="M331.601,140.018c7.633,5.562,9.271,16.061,3.698,23.701
			c-5.489,7.523-16.089,9.191-23.618,3.713c-7.563-5.5-9.233-16.203-3.707-23.754C313.468,136.17,324.066,134.529,331.601,140.018z
			 M334.59,152.482c0.536-0.602,0.32-1.266,0.144-1.912c-1.833-6.754-7.4-10.633-14.116-10.229c-1.009,0.061-2.02,0.098-1.964,1.363
			c0.051,1.15,1.037,1.008,1.892,0.965c2.525-0.125,4.909,0.336,7.061,1.768c2.626,1.744,4.237,4.164,4.892,7.225
			c0.135,0.631,0.473,1.027,1.035,1.24C333.984,153.074,334.33,152.85,334.59,152.482z"/>
		<path fill-rule="evenodd" clip-rule="evenodd" fill="#FDFDFD" d="M334.591,152.48c-0.261,0.369-0.606,0.594-1.059,0.422
			c-0.562-0.213-0.9-0.609-1.035-1.24c-0.654-3.061-2.266-5.48-4.892-7.225c-2.151-1.432-4.535-1.893-7.061-1.768
			c-0.854,0.043-1.841,0.186-1.892-0.965c-0.056-1.266,0.955-1.303,1.964-1.363c6.716-0.404,12.283,3.475,14.116,10.229
			C334.91,151.217,335.126,151.881,334.591,152.48z"/>
	</g>
</g>
<path fill-rule="evenodd" clip-rule="evenodd" fill="none" stroke="#000000" stroke-width="1.51" stroke-miterlimit="10" stroke-dasharray="6.04" d="
	M250.888,165.48c-2.748,0-8.323-1.09-10.785,0.062c-4.365,2.039-4.189,8.494-6.477,12.369c-4.173,7.07-18.334,8.258-25.343,4.703"/>
</svg>
