<?xml version="1.0" encoding="utf-8"?>
<!-- Generator: Adobe Illustrator 16.0.0, SVG Export Plug-In . SVG Version: 6.00 Build 0)  -->
<!DOCTYPE svg PUBLIC "-//W3C//DTD SVG 1.1//EN" "http://www.w3.org/Graphics/SVG/1.1/DTD/svg11.dtd">
<svg version="1.1" id="Capa_1" xmlns="http://www.w3.org/2000/svg" xmlns:xlink="http://www.w3.org/1999/xlink" x="0px" y="0px"
	 width="268.649px" height="116.215px" viewBox="0 0 268.649 116.215" enable-background="new 0 0 268.649 116.215"
	 xml:space="preserve">
<g>
	<g>
		<g>
			<defs>
				<circle id="SVGID_1_" cx="234.065" cy="81.72" r="32.723"/>
			</defs>
			<clipPath id="SVGID_2_">
				<use xlink:href="#SVGID_1_"  overflow="visible"/>
			</clipPath>
			<g clip-path="url(#SVGID_2_)">
				<circle fill="#3B98CB" cx="234.065" cy="81.72" r="32.723"/>
				<circle fill="#3B98CB" cx="233.165" cy="80.519" r="31.822"/>
				<circle fill="#3B98CB" cx="232.263" cy="79.317" r="30.92"/>
				<circle fill="#3C99CB" cx="232.236" cy="79.235" r="30.838"/>
				<circle fill="#3D99CB" cx="232.208" cy="79.153" r="30.756"/>
				<circle fill="#3E99CC" cx="232.18" cy="79.071" r="30.674"/>
				<circle fill="#3F9ACC" cx="232.152" cy="78.989" r="30.592"/>
				<circle fill="#409ACC" cx="232.125" cy="78.907" r="30.51"/>
				<circle fill="#419BCC" cx="232.098" cy="78.825" r="30.428"/>
				<circle fill="#439BCC" cx="232.07" cy="78.743" r="30.346"/>
				<circle fill="#449BCD" cx="232.042" cy="78.661" r="30.264"/>
				<circle fill="#459CCD" cx="232.015" cy="78.579" r="30.181"/>
				<circle fill="#469CCD" cx="231.987" cy="78.497" r="30.099"/>
				<circle fill="#479CCD" cx="231.959" cy="78.415" r="30.017"/>
				<circle fill="#489DCD" cx="231.932" cy="78.333" r="29.935"/>
				<circle fill="#499DCE" cx="231.904" cy="78.251" r="29.853"/>
				<circle fill="#499ECE" cx="231.877" cy="78.169" r="29.771"/>
				<circle fill="#4A9ECE" cx="231.849" cy="78.087" r="29.688"/>
				<circle fill="#4B9ECE" cx="231.821" cy="78.005" r="29.606"/>
				<circle fill="#4C9FCE" cx="231.794" cy="77.923" r="29.524"/>
				<circle fill="#4D9FCF" cx="231.766" cy="77.841" r="29.442"/>
				<path fill="#4EA0CF" d="M261.098,77.758c0,16.216-13.145,29.361-29.361,29.361c-16.214,0-29.357-13.146-29.357-29.361
					c0-16.213,13.144-29.359,29.357-29.359C247.953,48.398,261.098,61.545,261.098,77.758z"/>
				<circle fill="#4FA0CF" cx="231.711" cy="77.676" r="29.277"/>
				<circle fill="#50A0CF" cx="231.684" cy="77.594" r="29.195"/>
				<circle fill="#51A1CF" cx="231.656" cy="77.512" r="29.113"/>
				<path fill="#52A1D0" d="M260.659,77.43c0,16.034-12.998,29.033-29.032,29.033c-16.033,0-29.03-12.999-29.03-29.033
					c0-16.031,12.997-29.031,29.03-29.031C247.661,48.398,260.659,61.398,260.659,77.43z"/>
				<path fill="#53A2D0" d="M260.55,77.348c0,15.988-12.962,28.951-28.951,28.951c-15.987,0-28.947-12.963-28.947-28.951
					c0-15.986,12.96-28.949,28.947-28.949C247.588,48.398,260.55,61.361,260.55,77.348z"/>
				<circle fill="#54A2D0" cx="231.573" cy="77.266" r="28.867"/>
				<circle fill="#55A2D0" cx="231.545" cy="77.184" r="28.785"/>
				<circle fill="#55A3D0" cx="231.518" cy="77.102" r="28.703"/>
				<path fill="#56A3D1" d="M260.111,77.02c0,15.807-12.815,28.622-28.623,28.622c-15.806,0-28.619-12.815-28.619-28.622
					c0-15.805,12.813-28.621,28.619-28.621C247.296,48.398,260.111,61.215,260.111,77.02z"/>
				<circle fill="#57A3D1" cx="231.462" cy="76.938" r="28.539"/>
				<circle fill="#58A4D1" cx="231.435" cy="76.855" r="28.457"/>
				<circle fill="#59A4D1" cx="231.407" cy="76.773" r="28.374"/>
				<circle fill="#5AA5D1" cx="231.38" cy="76.691" r="28.292"/>
				<circle fill="#5BA5D2" cx="231.352" cy="76.609" r="28.209"/>
				<circle fill="#5CA5D2" cx="231.325" cy="76.527" r="28.127"/>
				<circle fill="#5CA6D2" cx="231.297" cy="76.445" r="28.045"/>
				<circle fill="#5DA6D2" cx="231.269" cy="76.363" r="27.963"/>
				<circle fill="#5EA7D2" cx="231.242" cy="76.281" r="27.881"/>
				<circle fill="#5FA7D3" cx="231.214" cy="76.199" r="27.799"/>
				<circle fill="#60A7D3" cx="231.187" cy="76.117" r="27.717"/>
				<circle fill="#61A8D3" cx="231.159" cy="76.035" r="27.635"/>
				<circle fill="#61A8D3" cx="231.131" cy="75.953" r="27.553"/>
				<circle fill="#62A9D3" cx="231.104" cy="75.871" r="27.471"/>
				<circle fill="#63A9D4" cx="231.076" cy="75.789" r="27.389"/>
				<circle fill="#64A9D4" cx="231.048" cy="75.707" r="27.306"/>
				<circle fill="#65AAD4" cx="231.021" cy="75.625" r="27.224"/>
				<circle fill="#66AAD4" cx="230.994" cy="75.543" r="27.142"/>
				<circle fill="#66AAD4" cx="230.965" cy="75.461" r="27.06"/>
				<circle fill="#67ABD5" cx="230.938" cy="75.379" r="26.978"/>
				<circle fill="#68ABD5" cx="230.911" cy="75.297" r="26.896"/>
				<circle fill="#69ACD5" cx="230.883" cy="75.215" r="26.813"/>
				<circle fill="#6AACD5" cx="230.855" cy="75.133" r="26.731"/>
				<circle fill="#6AACD5" cx="230.828" cy="75.051" r="26.649"/>
				<circle fill="#6BADD6" cx="230.8" cy="74.969" r="26.567"/>
				<circle fill="#6CADD6" cx="230.772" cy="74.887" r="26.485"/>
				<path fill="#6DAED6" d="M257.147,74.805c0,14.581-11.823,26.404-26.405,26.404c-14.579,0-26.4-11.823-26.4-26.404
					c0-14.582,11.821-26.403,26.4-26.403C245.324,48.401,257.147,60.223,257.147,74.805z"/>
				<circle fill="#6EAED6" cx="230.717" cy="74.723" r="26.321"/>
				<circle fill="#6EAED6" cx="230.689" cy="74.641" r="26.238"/>
				<circle fill="#6FAFD7" cx="230.662" cy="74.559" r="26.156"/>
				<circle fill="#70AFD7" cx="230.635" cy="74.477" r="26.074"/>
				<circle fill="#71B0D7" cx="230.607" cy="74.395" r="25.992"/>
				<circle fill="#71B0D7" cx="230.58" cy="74.312" r="25.91"/>
				<circle fill="#72B0D7" cx="230.551" cy="74.23" r="25.828"/>
				<circle fill="#73B1D8" cx="230.524" cy="74.147" r="25.746"/>
				<circle fill="#74B1D8" cx="230.497" cy="74.065" r="25.664"/>
				<circle fill="#75B2D8" cx="230.469" cy="73.983" r="25.582"/>
				<path fill="#75B2D8" d="M255.94,73.901c0,14.083-11.419,25.502-25.502,25.502c-14.08,0-25.497-11.419-25.497-25.502
					c0-14.081,11.417-25.499,25.497-25.499C244.521,48.402,255.94,59.82,255.94,73.901z"/>
				<path fill="#76B2D8" d="M255.831,73.819c0,14.038-11.383,25.42-25.42,25.42c-14.035,0-25.415-11.382-25.415-25.42
					c0-14.036,11.38-25.417,25.415-25.417C244.448,48.402,255.831,59.783,255.831,73.819z"/>
				<circle fill="#77B3D9" cx="230.386" cy="73.737" r="25.335"/>
				<circle fill="#78B3D9" cx="230.358" cy="73.655" r="25.253"/>
				<path fill="#78B4D9" d="M255.502,73.573c0,13.901-11.272,25.173-25.174,25.173c-13.899,0-25.168-11.271-25.168-25.173
					c0-13.9,11.269-25.171,25.168-25.171C244.229,48.402,255.502,59.673,255.502,73.573z"/>
				<path fill="#79B4D9" d="M255.392,73.491c0,13.856-11.235,25.091-25.091,25.091c-13.854,0-25.086-11.234-25.086-25.091
					c0-13.854,11.232-25.089,25.086-25.089C244.156,48.402,255.392,59.637,255.392,73.491z"/>
				<circle fill="#7AB4D9" cx="230.275" cy="73.409" r="25.007"/>
				<circle fill="#7BB5DA" cx="230.248" cy="73.327" r="24.924"/>
				<circle fill="#7CB5DA" cx="230.22" cy="73.245" r="24.842"/>
				<circle fill="#7CB5DA" cx="230.192" cy="73.163" r="24.76"/>
				<path fill="#7DB6DA" d="M254.843,73.081c0,13.629-11.052,24.681-24.68,24.681c-13.627,0-24.676-11.052-24.676-24.681
					c0-13.628,11.049-24.679,24.676-24.679C243.791,48.402,254.843,59.453,254.843,73.081z"/>
				<circle fill="#7EB6DA" cx="230.138" cy="72.999" r="24.596"/>
				<circle fill="#7FB7DB" cx="230.109" cy="72.917" r="24.514"/>
				<circle fill="#7FB7DB" cx="230.082" cy="72.835" r="24.432"/>
				<path fill="#80B7DB" d="M254.404,72.753c0,13.447-10.905,24.352-24.353,24.352c-13.445,0-24.347-10.904-24.347-24.352
					s10.901-24.35,24.347-24.35C243.499,48.403,254.404,59.306,254.404,72.753z"/>
				<circle fill="#81B8DB" cx="230.028" cy="72.671" r="24.267"/>
				<circle fill="#82B8DB" cx="230" cy="72.589" r="24.185"/>
			</g>
		</g>
		<g>
			<path fill="#FFFFFF" d="M210.591,72.503h-2.002v-1.501h2.002V72.503z M210.591,81.697h-2.002v-7.419h2.002V81.697z"/>
			<path fill="#FFFFFF" d="M214.265,72.462v1.816h1.247v1.405h-1.247v3.777c0,0.288,0.059,0.494,0.178,0.617
				c0.118,0.123,0.279,0.186,0.479,0.186c0.105,0,0.196-0.006,0.271-0.018c0.076-0.011,0.164-0.031,0.266-0.059l0.171,1.447
				c-0.2,0.069-0.398,0.119-0.591,0.154c-0.19,0.034-0.399,0.052-0.622,0.052c-0.692,0-1.223-0.189-1.595-0.57
				c-0.373-0.379-0.559-0.979-0.559-1.802v-3.785h-1.083v-1.405h1.083v-1.816H214.265z"/>
			<path fill="#FFFFFF" d="M218.157,72.332l-1.111,2.398h-0.987l0.412-2.392v-1.337h1.687V72.332z"/>
			<path fill="#FFFFFF" d="M222.275,79.653c0-0.22-0.106-0.409-0.319-0.568c-0.213-0.161-0.606-0.302-1.182-0.425
				c-0.878-0.179-1.54-0.443-1.985-0.792c-0.445-0.351-0.667-0.827-0.667-1.43c0-0.64,0.268-1.183,0.804-1.628
				c0.537-0.447,1.257-0.669,2.157-0.669c0.946,0,1.699,0.222,2.259,0.665s0.829,1.003,0.805,1.68l-0.013,0.042h-1.933
				c0-0.298-0.097-0.54-0.286-0.728c-0.19-0.188-0.467-0.281-0.832-0.281c-0.326,0-0.58,0.078-0.766,0.237
				c-0.185,0.156-0.276,0.354-0.276,0.593c0,0.229,0.098,0.415,0.291,0.562c0.194,0.146,0.589,0.277,1.182,0.391
				c0.915,0.183,1.595,0.451,2.037,0.806c0.443,0.354,0.666,0.842,0.666,1.463c0,0.669-0.287,1.213-0.858,1.636
				s-1.325,0.635-2.262,0.635c-0.988,0-1.768-0.251-2.342-0.752c-0.573-0.5-0.847-1.069-0.818-1.709l0.012-0.042h1.833
				c0.012,0.397,0.142,0.687,0.39,0.863c0.246,0.179,0.568,0.269,0.967,0.269c0.369,0,0.652-0.073,0.847-0.22
				C222.178,80.104,222.275,79.905,222.275,79.653z"/>
			<path fill="#FFFFFF" d="M230.253,75.218c0.231-0.339,0.519-0.603,0.857-0.792c0.337-0.189,0.711-0.284,1.124-0.284
				c0.771,0,1.378,0.257,1.819,0.771s0.662,1.308,0.662,2.382v4.402h-2.002v-4.426c0-0.577-0.102-0.986-0.305-1.227
				c-0.204-0.241-0.508-0.361-0.909-0.361c-0.273,0-0.516,0.05-0.726,0.148c-0.211,0.099-0.385,0.237-0.521,0.416v5.449h-2.003
				V71.002h2.003V75.218z"/>
			<path fill="#FFFFFF" d="M235.564,77.919c0-1.105,0.309-2.013,0.926-2.719c0.617-0.705,1.471-1.059,2.563-1.059
				c1.098,0,1.957,0.352,2.578,1.056s0.932,1.611,0.932,2.722v0.144c0,1.115-0.309,2.023-0.929,2.725
				c-0.618,0.703-1.476,1.054-2.566,1.054c-1.098,0-1.956-0.351-2.574-1.054c-0.62-0.701-0.93-1.609-0.93-2.725V77.919z
				 M237.56,78.061c0,0.674,0.119,1.217,0.355,1.624c0.238,0.41,0.623,0.613,1.153,0.613c0.516,0,0.895-0.205,1.134-0.616
				c0.24-0.41,0.36-0.951,0.36-1.621v-0.146c0-0.656-0.122-1.192-0.364-1.607c-0.242-0.416-0.624-0.624-1.145-0.624
				c-0.516,0-0.894,0.21-1.135,0.626c-0.239,0.419-0.359,0.953-0.359,1.605V78.061z"/>
			<path fill="#FFFFFF" d="M245.304,74.278l0.084,0.98c0.237-0.356,0.535-0.631,0.894-0.826c0.358-0.193,0.774-0.291,1.245-0.291
				c0.476,0,0.881,0.105,1.22,0.315c0.338,0.21,0.594,0.528,0.769,0.953c0.228-0.398,0.523-0.708,0.891-0.933
				c0.365-0.224,0.795-0.336,1.289-0.336c0.73,0,1.307,0.253,1.73,0.758s0.635,1.274,0.635,2.307v4.491h-2.002v-4.509
				c0-0.563-0.092-0.954-0.274-1.175c-0.183-0.22-0.455-0.33-0.816-0.33c-0.282,0-0.529,0.063-0.737,0.189
				c-0.207,0.126-0.372,0.302-0.495,0.525c0,0.088,0.001,0.162,0.005,0.223c0.006,0.062,0.007,0.126,0.007,0.189v4.887h-1.993
				v-4.509c0-0.55-0.093-0.938-0.275-1.164c-0.183-0.228-0.457-0.341-0.821-0.341c-0.271,0-0.508,0.053-0.711,0.155
				c-0.204,0.103-0.372,0.248-0.505,0.436v5.423h-1.993v-7.419H245.304z"/>
			<path fill="#FFFFFF" d="M258.527,81.841c-1.07,0-1.925-0.343-2.564-1.029c-0.639-0.685-0.96-1.557-0.96-2.612v-0.273
				c0-1.102,0.304-2.008,0.91-2.722c0.604-0.713,1.417-1.066,2.436-1.062c1.001,0,1.777,0.302,2.331,0.904
				c0.554,0.604,0.83,1.42,0.83,2.447v1.091h-4.429l-0.014,0.041c0.036,0.486,0.2,0.888,0.49,1.201
				c0.289,0.314,0.684,0.472,1.183,0.472c0.442,0,0.812-0.045,1.103-0.133c0.293-0.09,0.613-0.23,0.96-0.423l0.543,1.237
				c-0.302,0.248-0.697,0.453-1.188,0.616C259.67,81.758,259.126,81.841,258.527,81.841z M258.349,75.684
				c-0.37,0-0.663,0.142-0.877,0.426c-0.215,0.283-0.348,0.655-0.397,1.117l0.021,0.033h2.454v-0.177c0-0.425-0.101-0.765-0.3-1.018
				C259.052,75.811,258.751,75.684,258.349,75.684z"/>
			<path fill="#FFFFFF" d="M220.372,85.213h-2.001v-1.501h2.001V85.213z M220.372,94.407h-2.001v-7.418h2.001V94.407z"/>
			<path fill="#FFFFFF" d="M224.046,85.173v1.816h1.248v1.406h-1.248v3.776c0,0.288,0.06,0.494,0.179,0.617
				c0.118,0.123,0.278,0.186,0.479,0.186c0.105,0,0.196-0.006,0.271-0.018c0.075-0.011,0.163-0.031,0.264-0.059l0.172,1.447
				c-0.2,0.068-0.397,0.119-0.59,0.154c-0.191,0.033-0.4,0.051-0.623,0.051c-0.691,0-1.222-0.189-1.594-0.569
				c-0.374-0.379-0.56-0.98-0.56-1.802v-3.784h-1.084v-1.406h1.084v-1.816H224.046z"/>
			<path fill="#FFFFFF" d="M227.938,85.043l-1.111,2.398h-0.986l0.41-2.392v-1.338h1.688V85.043z"/>
			<path fill="#FFFFFF" d="M232.058,92.364c0-0.22-0.107-0.409-0.319-0.569c-0.213-0.159-0.606-0.302-1.184-0.425
				c-0.877-0.179-1.539-0.442-1.984-0.792s-0.667-0.826-0.667-1.429c0-0.641,0.267-1.183,0.804-1.628
				c0.538-0.447,1.258-0.669,2.156-0.669c0.947,0,1.699,0.222,2.261,0.664c0.559,0.444,0.828,1.003,0.804,1.68l-0.012,0.042h-1.935
				c0-0.298-0.095-0.54-0.284-0.727c-0.19-0.188-0.467-0.281-0.834-0.281c-0.324,0-0.579,0.078-0.765,0.236
				c-0.184,0.157-0.276,0.356-0.276,0.593c0,0.229,0.098,0.416,0.291,0.562c0.195,0.146,0.589,0.277,1.182,0.391
				c0.914,0.183,1.594,0.451,2.037,0.806c0.444,0.354,0.665,0.842,0.665,1.464c0,0.668-0.286,1.212-0.857,1.634
				c-0.57,0.424-1.326,0.635-2.262,0.635c-0.987,0-1.768-0.25-2.341-0.75c-0.574-0.502-0.848-1.07-0.819-1.71l0.013-0.042h1.831
				c0.014,0.397,0.144,0.686,0.391,0.863c0.247,0.179,0.569,0.268,0.967,0.268c0.369,0,0.652-0.072,0.848-0.219
				C231.96,92.814,232.058,92.615,232.058,92.364z"/>
			<path fill="#FFFFFF" d="M242.612,93.338c-0.229,0.388-0.519,0.688-0.871,0.897c-0.352,0.21-0.756,0.315-1.214,0.315
				c-0.782,0-1.393-0.25-1.834-0.75c-0.441-0.502-0.662-1.278-0.662-2.334v-4.478h1.995v4.5c0,0.542,0.093,0.929,0.275,1.166
				c0.183,0.235,0.452,0.353,0.808,0.353c0.321,0,0.596-0.051,0.823-0.154c0.229-0.103,0.417-0.254,0.562-0.457v-5.407h2.002v7.418
				h-1.707L242.612,93.338z"/>
			<path fill="#FFFFFF" d="M249.665,92.364c0-0.22-0.105-0.409-0.318-0.569c-0.214-0.159-0.607-0.302-1.183-0.425
				c-0.877-0.179-1.539-0.442-1.984-0.792c-0.446-0.35-0.669-0.826-0.669-1.429c0-0.641,0.269-1.183,0.806-1.628
				c0.536-0.447,1.255-0.669,2.156-0.669c0.946,0,1.698,0.222,2.258,0.664c0.56,0.444,0.828,1.003,0.807,1.68l-0.014,0.042h-1.935
				c0-0.298-0.095-0.54-0.282-0.727c-0.191-0.188-0.469-0.281-0.834-0.281c-0.325,0-0.579,0.078-0.765,0.236
				c-0.186,0.157-0.277,0.356-0.277,0.593c0,0.229,0.097,0.416,0.291,0.562c0.193,0.146,0.589,0.277,1.183,0.391
				c0.914,0.183,1.592,0.451,2.036,0.806c0.442,0.354,0.664,0.842,0.664,1.464c0,0.668-0.284,1.212-0.855,1.634
				c-0.572,0.424-1.326,0.635-2.263,0.635c-0.987,0-1.77-0.25-2.342-0.75c-0.572-0.502-0.846-1.07-0.819-1.71l0.014-0.042h1.83
				c0.015,0.397,0.145,0.686,0.392,0.863c0.247,0.179,0.568,0.268,0.966,0.268c0.371,0,0.652-0.072,0.848-0.219
				S249.665,92.615,249.665,92.364z"/>
		</g>
	</g>
	<g>
		<g>
			<path fill="#FFFFFF" d="M32.838,10.921H21.382v34.23h-8.12v-34.23h-11.4V4.664h30.976V10.921z"/>
			<path fill="#FFFFFF" d="M42.521,18.874c0.946-1.372,2.104-2.443,3.477-3.213c1.372-0.769,2.892-1.153,4.56-1.153
				c3.133,0,5.594,1.042,7.383,3.128c1.789,2.086,2.684,5.307,2.684,9.663v17.853h-8.121V27.202c0-2.341-0.413-4-1.237-4.974
				c-0.825-0.976-2.054-1.465-3.685-1.465c-1.112,0-2.094,0.2-2.947,0.6c-0.853,0.399-1.557,0.962-2.113,1.687v22.102h-8.12V1.771
				h8.12V18.874z"/>
			<path fill="#FFFFFF" d="M77.953,45.734c-4.338,0-7.804-1.39-10.399-4.172c-2.595-2.78-3.892-6.311-3.892-10.593v-1.113
				c0-4.468,1.227-8.146,3.683-11.039c2.457-2.893,5.752-4.327,9.886-4.31c4.059,0,7.211,1.224,9.454,3.671s3.365,5.756,3.365,9.926
				v4.422H72.086l-0.056,0.166c0.148,1.976,0.811,3.602,1.988,4.875c1.177,1.274,2.776,1.909,4.797,1.909
				c1.797,0,3.291-0.18,4.477-0.541c1.187-0.361,2.484-0.933,3.893-1.709l2.197,5.016c-1.224,1.007-2.828,1.84-4.811,2.5
				C82.587,45.404,80.382,45.734,77.953,45.734z M77.23,20.764c-1.501,0-2.688,0.575-3.559,1.725
				c-0.872,1.149-1.41,2.661-1.613,4.533l0.083,0.138h9.955v-0.723c0-1.725-0.403-3.1-1.21-4.13
				C80.08,21.278,78.861,20.764,77.23,20.764z"/>
			<path fill="#FFFFFF" d="M113.53,30.468v14.683h-8.12V4.664h16.129c4.652,0,8.313,1.187,10.983,3.56s4.004,5.497,4.004,9.37
				c0,3.875-1.334,6.99-4.004,9.343c-2.67,2.355-6.331,3.531-10.983,3.531H113.53z M113.53,24.212h8.009
				c2.262,0,3.977-0.616,5.144-1.849c1.169-1.233,1.752-2.805,1.752-4.713c0-1.948-0.58-3.556-1.737-4.825
				c-1.159-1.27-2.878-1.905-5.158-1.905h-8.009V24.212z"/>
			<path fill="#FFFFFF" d="M157.053,45.151c-0.296-0.687-0.551-1.409-0.763-2.17c-0.214-0.759-0.367-1.538-0.461-2.337
				c-0.833,1.465-1.931,2.68-3.294,3.645c-1.363,0.964-2.988,1.445-4.879,1.445c-3.152,0-5.581-0.811-7.286-2.434
				c-1.706-1.622-2.559-3.832-2.559-6.631c0-2.948,1.136-5.232,3.407-6.854c2.27-1.623,5.584-2.434,9.939-2.434h4.533v-2.392
				c0-1.445-0.38-2.567-1.141-3.365c-0.76-0.797-1.882-1.195-3.363-1.195c-1.317,0-2.333,0.319-3.046,0.96
				c-0.713,0.639-1.07,1.524-1.07,2.655l-7.841-0.028l-0.028-0.167c-0.13-2.539,0.973-4.732,3.309-6.577
				c2.337-1.845,5.403-2.767,9.204-2.767c3.597,0,6.516,0.914,8.759,2.738c2.244,1.827,3.364,4.427,3.364,7.8v12.429
				c0,1.409,0.107,2.735,0.319,3.977c0.214,1.242,0.552,2.476,1.017,3.699H157.053z M149.629,39.729
				c1.427,0,2.698-0.352,3.811-1.056c1.111-0.704,1.862-1.521,2.252-2.448v-4.254h-4.533c-1.724,0-3.03,0.431-3.921,1.292
				c-0.889,0.862-1.334,1.905-1.334,3.128c0,1.002,0.334,1.807,1.001,2.42C147.572,39.422,148.48,39.729,149.629,39.729z"/>
			<path fill="#FFFFFF" d="M176.413,45.151h-8.119V1.771h8.119V45.151z"/>
			<path fill="#FFFFFF" d="M194.299,45.734c-4.337,0-7.805-1.39-10.399-4.172c-2.596-2.78-3.893-6.311-3.893-10.593v-1.113
				c0-4.468,1.228-8.146,3.685-11.039c2.455-2.893,5.751-4.327,9.885-4.31c4.061,0,7.211,1.224,9.454,3.671
				c2.242,2.447,3.364,5.756,3.364,9.926v4.422h-17.962l-0.057,0.166c0.148,1.976,0.812,3.602,1.988,4.875
				c1.178,1.274,2.775,1.909,4.797,1.909c1.799,0,3.29-0.18,4.478-0.541c1.186-0.361,2.483-0.933,3.893-1.709l2.196,5.016
				c-1.224,1.007-2.827,1.84-4.811,2.5C198.933,45.404,196.727,45.734,194.299,45.734z M193.576,20.764
				c-1.501,0-2.687,0.575-3.559,1.725c-0.872,1.149-1.409,2.661-1.613,4.533l0.083,0.138h9.954v-0.723c0-1.725-0.403-3.1-1.208-4.13
				C196.425,21.278,195.207,20.764,193.576,20.764z"/>
			<path fill="#FFFFFF" d="M12.96,92.214V51.728h13.68c4.765,0,8.481,0.928,11.15,2.78c2.67,1.854,4.004,4.626,4.004,8.314
				c0,1.872-0.496,3.545-1.488,5.019c-0.991,1.475-2.433,2.583-4.324,3.323c2.428,0.52,4.25,1.632,5.464,3.336
				c1.214,1.707,1.821,3.681,1.821,5.925c0,3.874-1.279,6.808-3.837,8.8c-2.558,1.993-6.183,2.989-10.872,2.989H12.96z
				 M21.079,68.689h5.84c2.169,0,3.837-0.445,5.005-1.334c1.168-0.891,1.752-2.188,1.752-3.895c0-1.87-0.589-3.252-1.766-4.142
				c-1.178-0.891-2.934-1.336-5.27-1.336h-5.562V68.689z M21.079,74.307v11.651h7.481c2.149,0,3.791-0.467,4.921-1.401
				c1.13-0.934,1.696-2.317,1.696-4.146c0-1.979-0.482-3.491-1.445-4.536c-0.964-1.045-2.484-1.567-4.56-1.567H21.079z"/>
			<path fill="#FFFFFF" d="M55.259,92.214h-8.119V48.835h8.119V92.214z"/>
			<path fill="#FFFFFF" d="M78.207,87.876c-0.928,1.576-2.104,2.791-3.532,3.644c-1.428,0.852-3.068,1.279-4.922,1.279
				c-3.169,0-5.648-1.016-7.438-3.046s-2.684-5.187-2.684-9.468V62.127h8.092v18.256c0,2.191,0.371,3.767,1.112,4.724
				c0.741,0.957,1.835,1.435,3.281,1.435c1.298,0,2.41-0.208,3.336-0.627c0.927-0.418,1.688-1.035,2.281-1.854V62.127h8.12v30.087
				h-6.924L78.207,87.876z"/>
			<path fill="#FFFFFF" d="M103.184,92.799c-4.338,0-7.805-1.392-10.4-4.172s-3.893-6.312-3.893-10.594v-1.112
				c0-4.467,1.228-8.147,3.684-11.04c2.456-2.892,5.751-4.328,9.885-4.309c4.061,0,7.211,1.223,9.455,3.669
				c2.242,2.447,3.363,5.757,3.363,9.928v4.421H97.315l-0.055,0.166c0.147,1.977,0.811,3.601,1.988,4.875
				c1.177,1.274,2.776,1.91,4.796,1.91c1.799,0,3.291-0.18,4.478-0.541c1.186-0.363,2.484-0.932,3.893-1.711l2.196,5.018
				c-1.223,1.005-2.827,1.839-4.81,2.5C107.817,92.467,105.612,92.799,103.184,92.799z M102.46,67.828
				c-1.501,0-2.688,0.575-3.56,1.724c-0.871,1.149-1.409,2.66-1.612,4.532l0.084,0.139h9.954V73.5c0-1.725-0.402-3.101-1.209-4.129
				C105.311,68.342,104.092,67.828,102.46,67.828z"/>
			<path fill="#FFFFFF" d="M130.641,92.214V51.728h13.903c4.95,0,9.028,1.58,12.234,4.741c3.208,3.161,4.812,7.216,4.812,12.166
				v6.701c0,4.969-1.604,9.023-4.812,12.165c-3.206,3.143-7.284,4.713-12.234,4.713H130.641z M138.761,57.983v27.975h5.366
				c2.91,0,5.19-0.981,6.84-2.945c1.649-1.963,2.476-4.527,2.476-7.694v-6.75c0-3.13-0.826-5.677-2.476-7.64s-3.93-2.945-6.84-2.945
				H138.761z"/>
			<path fill="#FFFFFF" d="M163.932,76.892c0-4.485,1.252-8.16,3.753-11.023c2.504-2.864,5.969-4.296,10.4-4.296
				c4.45,0,7.935,1.426,10.455,4.28c2.521,2.854,3.782,6.535,3.782,11.039v0.585c0,4.523-1.257,8.208-3.768,11.053
				c-2.513,2.847-5.984,4.27-10.413,4.27c-4.45,0-7.931-1.423-10.441-4.27c-2.513-2.845-3.769-6.529-3.769-11.053V76.892z
				 M172.024,77.462c0,2.739,0.481,4.938,1.444,6.594c0.965,1.657,2.521,2.485,4.673,2.485c2.095,0,3.628-0.832,4.601-2.498
				c0.974-1.667,1.461-3.859,1.461-6.581v-0.583c0-2.665-0.491-4.839-1.474-6.524c-0.983-1.685-2.53-2.526-4.645-2.526
				c-2.095,0-3.629,0.847-4.602,2.54c-0.974,1.693-1.459,3.864-1.459,6.511V77.462z"/>
			<path fill="#FFFFFF" d="M204.868,54.758v7.369h5.062v5.701h-5.062v15.321c0,1.168,0.242,2.002,0.725,2.503
				c0.48,0.5,1.13,0.749,1.946,0.749c0.426,0,0.791-0.021,1.098-0.068c0.307-0.046,0.663-0.125,1.071-0.235l0.694,5.865
				c-0.815,0.279-1.611,0.487-2.392,0.627c-0.778,0.138-1.621,0.209-2.529,0.209c-2.799,0-4.954-0.771-6.466-2.309
				c-1.511-1.538-2.266-3.977-2.266-7.313V67.828h-4.394v-5.701h4.394v-7.369H204.868z"/>
		</g>
	</g>
</g>
</svg>
