<?xml version="1.0" encoding="utf-8"?>
<!-- Generator: Adobe Illustrator 16.0.0, SVG Export Plug-In . SVG Version: 6.00 Build 0)  -->
<!DOCTYPE svg PUBLIC "-//W3C//DTD SVG 1.1//EN" "http://www.w3.org/Graphics/SVG/1.1/DTD/svg11.dtd">
<svg version="1.1" id="Capa_1" xmlns="http://www.w3.org/2000/svg" xmlns:xlink="http://www.w3.org/1999/xlink" x="0px" y="0px"
	 width="35.926px" height="25px" viewBox="0 0 35.926 25" enable-background="new 0 0 35.926 25" xml:space="preserve">
<g id="wmx8f9.tif_2_">
	<g>
		<path fill="#FFFFFF" d="M32.518,8.145c0,2.888,0,5.777,0,8.665c-0.045,0.09-0.036,0.189-0.045,0.284
			c-0.08,0.798-0.161,1.599-0.369,2.375c-0.377,1.409-1.276,2.314-2.688,2.69c-0.594,0.159-1.209,0.206-1.819,0.264
			c-1.138,0.105-2.281,0.162-3.425,0.206c-1.426,0.053-2.853,0.089-4.281,0.102c-0.044,0.001-0.092-0.015-0.131,0.016
			c-1.1,0-2.199,0-3.299,0c-0.16-0.018-0.318-0.036-0.479,0c-0.067,0-0.136,0-0.203,0c-0.022-0.042-0.061-0.021-0.092-0.021
			c-2.027-0.035-4.055-0.09-6.076-0.229c-0.893-0.061-1.786-0.123-2.664-0.299c-1.51-0.305-2.506-1.193-2.938-2.674
			c-0.236-0.811-0.315-1.65-0.396-2.488c-0.128-1.339-0.188-2.684-0.202-4.029c-0.02-1.725,0.051-3.447,0.217-5.166
			c0.078-0.783,0.158-1.57,0.371-2.329C4.39,4.126,5.282,3.22,6.678,2.841c0.686-0.186,1.397-0.228,2.102-0.287
			c0.964-0.084,1.93-0.129,2.895-0.17c1.715-0.073,3.433-0.104,5.147-0.123c1.941-0.023,3.882,0.01,5.82,0.064
			c1.475,0.041,2.947,0.098,4.417,0.219c0.737,0.062,1.476,0.117,2.196,0.28c1.432,0.324,2.381,1.19,2.812,2.597
			c0.218,0.711,0.3,1.451,0.384,2.189C32.47,7.789,32.468,7.97,32.518,8.145z M22.748,12.5c-2.542-1.464-5.073-2.921-7.615-4.385
			c0,2.93,0,5.841,0,8.77C17.675,15.421,20.206,13.964,22.748,12.5z"/>
		<path fill-rule="evenodd" clip-rule="evenodd" fill="#FDFCFB" d="M15.981,22.747c0.16-0.036,0.318-0.018,0.479,0
			C16.3,22.747,16.142,22.747,15.981,22.747z"/>
	</g>
</g>
</svg>
