<?xml version="1.0" encoding="utf-8"?>
<!-- Generator: Adobe Illustrator 16.0.0, SVG Export Plug-In . SVG Version: 6.00 Build 0)  -->
<!DOCTYPE svg PUBLIC "-//W3C//DTD SVG 1.1//EN" "http://www.w3.org/Graphics/SVG/1.1/DTD/svg11.dtd">
<svg version="1.1" id="Capa_1" xmlns="http://www.w3.org/2000/svg" xmlns:xlink="http://www.w3.org/1999/xlink" x="0px" y="0px"
	 width="35.016px" height="26.908px" viewBox="0 0 35.016 26.908" enable-background="new 0 0 35.016 26.908" xml:space="preserve">
<g id="ro4Jh6.tif">
	<g>
		<path fill="#FFFFFF" d="M3.996,5.39c0-0.064,0-0.132,0-0.198c0.022-0.048,0.051-0.094,0.066-0.145c0.312-1.064,1-1.72,2.111-1.855
			C6.761,3.119,7.357,3.13,7.949,3.109c0.516-0.018,1.03-0.026,1.546-0.037c6.207,0,12.413,0,18.62,0
			c0.163,0.021,0.326,0.046,0.489,0.063c0.988,0.108,1.756,0.55,2.211,1.462c0.337,0.679,0.237,1.033-0.409,1.442
			c-4.079,2.584-8.16,5.165-12.235,7.756c-0.456,0.29-0.855,0.298-1.314,0.006c-4.109-2.62-8.227-5.226-12.335-7.847
			C4.312,5.821,4.17,5.581,3.996,5.39z"/>
		<path fill="#FFFFFF" d="M3.996,21.757c0-0.066,0-0.133,0-0.198c0.162-0.174,0.295-0.391,0.488-0.513
			c3.161-2,6.33-3.983,9.493-5.979c0.421-0.267,0.826-0.283,1.24-0.028c0.601,0.371,1.199,0.746,1.791,1.13
			c0.319,0.205,0.625,0.245,0.956,0.032c0.64-0.412,1.293-0.805,1.922-1.232c0.358-0.243,0.677-0.255,1.039-0.024
			c3.204,2.031,6.413,4.057,9.618,6.09c0.456,0.29,0.549,0.586,0.375,1.102c-0.224,0.665-0.664,1.132-1.301,1.418
			c-0.538,0.242-1.105,0.283-1.683,0.283c-6.966,0-13.933,0-20.898,0c-0.232,0-0.464-0.006-0.695-0.026
			c-1.126-0.1-1.962-0.789-2.276-1.869C4.045,21.879,4.019,21.818,3.996,21.757z"/>
		<path fill="#FFFFFF" d="M12.784,13.483c-2.922-1.86-5.799-3.691-8.711-5.545c0,3.718,0,7.38,0,11.091
			C6.984,17.175,9.855,15.348,12.784,13.483z M30.961,7.941c-2.917,1.856-5.793,3.688-8.705,5.542
			c2.92,1.858,5.794,3.688,8.705,5.539C30.961,15.297,30.961,11.649,30.961,7.941z"/>
		<path fill="#FFFFFF" d="M12.784,13.483c-2.929,1.864-5.799,3.691-8.711,5.546c0-3.711,0-7.373,0-11.091
			C6.985,9.792,9.861,11.623,12.784,13.483z"/>
		<path fill="#FFFFFF" d="M22.257,13.483c2.912-1.854,5.788-3.686,8.705-5.542c0,3.708,0,7.355,0,11.081"/>
	</g>
</g>
</svg>
