<?xml version="1.0" encoding="utf-8"?>
<!-- Generator: Adobe Illustrator 16.0.0, SVG Export Plug-In . SVG Version: 6.00 Build 0)  -->
<!DOCTYPE svg PUBLIC "-//W3C//DTD SVG 1.1//EN" "http://www.w3.org/Graphics/SVG/1.1/DTD/svg11.dtd">
<svg version="1.1" id="Capa_1" xmlns="http://www.w3.org/2000/svg" xmlns:xlink="http://www.w3.org/1999/xlink" x="0px" y="0px"
	 width="35.926px" height="25px" viewBox="0 0 35.926 25" enable-background="new 0 0 35.926 25" xml:space="preserve">
<g>
	<g id="XMLID_9_">
		<path id="XMLID_14_" fill="#59595B" d="M22.13,23.247h-8.333c-3.629,0-6.581-2.953-6.581-6.58V8.334
			c0-3.63,2.952-6.581,6.581-6.581h8.333c3.628,0,6.579,2.951,6.579,6.581v8.333C28.709,20.294,25.758,23.247,22.13,23.247z
			 M13.797,3.362c-2.742,0-4.973,2.229-4.973,4.972v8.333c0,2.74,2.23,4.969,4.973,4.969h8.333c2.74,0,4.972-2.229,4.972-4.969
			V8.334c0-2.743-2.23-4.972-4.972-4.972H13.797z"/>
		<path id="XMLID_11_" fill="#59595B" d="M17.963,17.938c-2.997,0-5.438-2.439-5.438-5.438c0-2.997,2.44-5.436,5.438-5.436
			S23.4,9.501,23.4,12.499S20.961,17.938,17.963,17.938z M17.963,8.711c-2.089,0-3.789,1.698-3.789,3.788
			c0,2.091,1.7,3.789,3.789,3.789c2.088,0,3.788-1.698,3.788-3.789C21.751,10.409,20.051,8.711,17.963,8.711z"/>
		<circle id="XMLID_10_" fill="#59595B" cx="23.991" cy="6.472" r="1.416"/>
	</g>
</g>
</svg>
