<?xml version="1.0" encoding="utf-8"?>
<!-- Generator: Adobe Illustrator 16.0.0, SVG Export Plug-In . SVG Version: 6.00 Build 0)  -->
<!DOCTYPE svg PUBLIC "-//W3C//DTD SVG 1.1//EN" "http://www.w3.org/Graphics/SVG/1.1/DTD/svg11.dtd">
<svg version="1.1" id="Capa_1" xmlns="http://www.w3.org/2000/svg" xmlns:xlink="http://www.w3.org/1999/xlink" x="0px" y="0px"
	 width="114.415px" height="99.706px" viewBox="0 0 114.415 99.706" enable-background="new 0 0 114.415 99.706"
	 xml:space="preserve">
<g>
	<path fill="#FFFFFF" d="M21.509,61.387c0,0-9.067-7.787-6.456-11.221l10.584,5.184C25.637,55.35,23.912,62.225,21.509,61.387z"/>
	<path fill="#FFFFFF" d="M23.634,8.596c-0.89-1.637-3.42-2.385-5.443-1.285l-2.789,1.527c-2.206,1.086-2.715,3.188-1.825,4.824
		l4.191,7.705c0.891,1.637,3.252,2.072,5.274,0.973l2.563-1.395c2.023-1.1,2.941-3.318,2.051-4.957L23.634,8.596z"/>
	<g id="_x32_lTrEm_2_">
		<g>
			<path fill-rule="evenodd" clip-rule="evenodd" fill="#D3BCA0" d="M50.039,22.467c1.555-4.318,5.35-5.393,8.034-4.793
				c2.243,0.502,3.51,2.146,4.724,3.875c0.411,0.998,0.824,1.998,1.236,2.998c1.113,2.174,2.215,4.354,3.35,6.518
				c0.191,0.363,0.437,0.969,0.946,0.727c0.61-0.293,0.099-0.77-0.08-1.123c-1.073-2.131-2.168-4.25-3.256-6.375
				c-0.778-3.021,0.026-5.789,2.134-7.342c2.498-1.838,5.182-1.877,7.912-0.162c0.79,0.496,1.304,1.188,1.712,1.986
				c2.904,5.676,5.817,11.346,8.704,17.031c2.811,5.535,5.676,11.045,8.358,16.643c2.204,4.596,2.288,9.113-1.35,13.166
				c-0.675,0.752-0.594,1.436-0.164,2.268c1.246,2.414,2.432,4.857,3.641,7.289c-0.479,0.277-0.947,0.58-1.44,0.83
				c-7.478,3.791-14.932,7.631-22.449,11.34c-3.48,1.717-6.837,3.695-10.469,5.104c-1.255-2.451-2.518-4.898-3.76-7.355
				c-0.309-0.613-0.621-1.238-1.401-1.229c-2.783,0.037-5.279-0.971-7.761-2.055c-0.718-1.217-2.088-1.711-2.994-2.719
				c-2.016-3.945-4.027-7.895-6.047-11.838c-2.272-4.438-4.337-8.982-6.828-13.307c-0.539-1.217-1.025-2.461-1.627-3.645
				c-5.655-11.143-11.348-22.268-16.982-33.42c-0.811-1.604-1.361-3.332-0.88-5.725c0.991,1.793,1.729,3.184,2.521,4.543
				c0.698,1.197,1.752,1.895,3.169,1.672c1.438-0.229,2.783-0.742,3.924-1.713c1.608-1.371,1.903-2.641,0.983-4.568
				c-0.558-1.17-1.136-2.328-1.914-3.92c1.85,0.826,2.716,1.949,3.378,3.229c2.348,4.537,4.619,9.115,6.998,13.635
				c1.442,2.74,2.43,5.725,4.364,8.203c1.353,3.762,3.574,7.104,5.231,10.723c0.235,0.516,0.314,1.799,1.229,1.322
				c0.653-0.342-0.01-1.299-0.317-1.92c-1.744-3.52-3.507-7.029-5.263-10.543c-0.436-0.836-0.936-1.645-1.293-2.512
				c-0.975-2.365-0.961-4.658,0.768-6.717c3.048-3.625,8.401-3.145,10.805,0.932c0.868,1.473,1.319,3.186,2.56,4.441
				c1.05,3.109,2.784,5.889,4.211,8.816c0.126,0.262,0.321,0.533,0.619,0.428c0.399-0.141,0.386-0.553,0.229-0.844
				c-1.542-2.859-2.703-5.922-4.567-8.611C50.175,26.069,49.713,24.334,50.039,22.467z"/>
			<path fill-rule="evenodd" clip-rule="evenodd" fill="#C6B197" d="M64.993,24.293c1.088,2.125,2.183,4.244,3.256,6.375
				c0.179,0.354,0.69,0.83,0.08,1.123c-0.51,0.242-0.755-0.363-0.946-0.727c-1.135-2.164-2.236-4.344-3.35-6.518
				C64.354,24.461,64.673,24.377,64.993,24.293z"/>
			<path fill-rule="evenodd" clip-rule="evenodd" fill="#C6B197" d="M37.193,73.54c-0.099-0.705-0.7-0.947-1.186-1.303
				c-4.565-3.34-9.118-6.697-13.703-10.01c-0.89-0.643-1.173-1.012-0.272-2.016c1.563-1.742,1.357-3.752-0.462-5.229
				c-1.878-1.525-3.653-3.293-6.163-3.789c-0.843-0.164-0.655-0.529-0.354-1.027c0.937-1.545,2.31-2.365,4.112-2.412
				c4.308-0.111,7.814,1.838,11.014,4.443c0.827,0.674,1.685,1.246,2.611,1.744c2.492,4.326,4.557,8.871,6.829,13.309
				c2.02,3.943,4.031,7.893,6.047,11.838c-2.239-1.586-4.481-3.174-6.717-4.766C38.414,73.942,37.925,73.475,37.193,73.54z"/>
			<path fill-rule="evenodd" clip-rule="evenodd" fill="#C6B197" d="M36.726,32.235c0.293-0.139,0.588-0.277,0.882-0.418
				c1.755,3.514,3.518,7.023,5.262,10.543c0.308,0.621,0.971,1.578,0.317,1.92c-0.915,0.477-0.994-0.807-1.229-1.322
				C40.3,39.338,38.078,35.997,36.726,32.235z"/>
			<path fill-rule="evenodd" clip-rule="evenodd" fill="#C6B197" d="M50.445,27.961c0.164-0.07,0.328-0.141,0.492-0.211
				c1.863,2.689,3.024,5.752,4.566,8.611c0.157,0.291,0.171,0.703-0.229,0.844c-0.298,0.105-0.493-0.166-0.619-0.428
				C53.229,33.85,51.495,31.071,50.445,27.961z"/>
		</g>
	</g>
</g>
</svg>
