<?xml version="1.0" encoding="utf-8"?>
<!-- Generator: Adobe Illustrator 16.0.0, SVG Export Plug-In . SVG Version: 6.00 Build 0)  -->
<!DOCTYPE svg PUBLIC "-//W3C//DTD SVG 1.1//EN" "http://www.w3.org/Graphics/SVG/1.1/DTD/svg11.dtd">
<svg version="1.1" id="Capa_1" xmlns="http://www.w3.org/2000/svg" xmlns:xlink="http://www.w3.org/1999/xlink" x="0px" y="0px"
	 width="35.016px" height="35.001px" viewBox="0 0 35.016 35.001" enable-background="new 0 0 35.016 35.001" xml:space="preserve">
<g id="Z4y5lv.tif">
	<g>
		<path fill="#FFFFFF" d="M31.004,8.543c0,5.971,0,11.942,0,17.915c-0.018,0.059-0.042,0.115-0.05,0.174
			c-0.273,2.027-1.792,3.717-3.792,4.209c-0.228,0.058-0.46,0.098-0.689,0.148c-5.971,0-11.944,0-17.914,0
			c-0.049-0.017-0.098-0.041-0.148-0.049c-2.075-0.284-3.736-1.775-4.243-3.817c-0.055-0.22-0.094-0.444-0.141-0.665
			c0-5.973,0-11.944,0-17.915c0.016-0.059,0.041-0.115,0.048-0.174C4.35,6.339,5.87,4.65,7.869,4.16
			c0.228-0.058,0.46-0.1,0.69-0.148c5.97,0,11.943,0,17.914,0c0.049,0.015,0.097,0.039,0.147,0.047
			c2.078,0.287,3.735,1.777,4.242,3.82C30.918,8.098,30.958,8.32,31.004,8.543z M22.291,26.484c1.042-0.075,1.917-0.42,2.743-0.898
			c0.664-0.387,1.139-0.933,1.293-1.708c0.068-0.343,0.124-0.688,0.174-1.035c0.042-0.294-0.056-0.521-0.328-0.682
			c-1.208-0.695-2.409-1.401-3.616-2.098c-0.268-0.155-0.545-0.135-0.785,0.071c-0.179,0.152-0.35,0.318-0.509,0.495
			c-0.371,0.409-0.723,0.835-1.097,1.244c-0.403,0.435-0.633,0.487-1.157,0.202c-1.066-0.579-2.087-1.226-3.003-2.03
			c-1.286-1.129-2.231-2.515-3.048-3.998c-0.071-0.13-0.149-0.273-0.153-0.416c-0.006-0.17,0.007-0.389,0.106-0.504
			c0.26-0.305,0.57-0.57,0.865-0.844c0.342-0.314,0.71-0.6,1.03-0.936c0.319-0.337,0.319-0.604,0.083-1.001
			c-0.213-0.363-0.433-0.723-0.643-1.087c-0.405-0.707-0.829-1.406-1.199-2.132c-0.265-0.515-0.626-0.699-1.19-0.596
			c-0.787,0.144-1.588,0.281-2.082,0.98c-0.35,0.497-0.638,1.048-0.88,1.607c-0.34,0.784-0.449,1.615-0.301,2.471
			c0.206,1.205,0.662,2.328,1.166,3.424c1.264,2.757,3.286,4.889,5.661,6.717c1.423,1.094,3.043,1.795,4.729,2.366
			C20.87,26.342,21.601,26.502,22.291,26.484z"/>
	</g>
</g>
</svg>
