<?xml version="1.0" encoding="utf-8"?>
<!-- Generator: Adobe Illustrator 16.0.0, SVG Export Plug-In . SVG Version: 6.00 Build 0)  -->
<!DOCTYPE svg PUBLIC "-//W3C//DTD SVG 1.1//EN" "http://www.w3.org/Graphics/SVG/1.1/DTD/svg11.dtd">
<svg version="1.1" id="Capa_1" xmlns="http://www.w3.org/2000/svg" xmlns:xlink="http://www.w3.org/1999/xlink" x="0px" y="0px"
	 width="214.016px" height="217.199px" viewBox="0 0 214.016 217.199" enable-background="new 0 0 214.016 217.199"
	 xml:space="preserve">
<g id="EeqpSu.tif">
	<g>
		<path fill="#FFFFFF" d="M0.02,108.216C-0.001,48.706,47.973-0.036,106.529,0c59.904,0.037,107.351,48.534,107.486,109.349
			c0.124,55.142-43.295,107.694-106.859,107.85C43.623,217.355-1.075,164.476,0.02,108.216z M106.938,114.74
			c8.151,8.266,15.343,15.802,22.807,23.06c8.35,8.12,18.483,8.519,25.68,1.339c7.427-7.407,7.152-17.238-1.066-25.621
			c-11.201-11.428-22.502-22.762-33.951-33.938c-8.984-8.77-17.833-8.858-26.732-0.206c-11.472,11.153-22.781,22.481-33.956,33.932
			c-8.209,8.41-8.588,18.343-1.411,25.634c7.416,7.534,17.481,7.045,26.177-1.503C91.883,130.167,99.083,122.697,106.938,114.74z"/>
	</g>
</g>
</svg>
